<?xml version="1.0" encoding="utf-8"?>
<!-- Generator: Adobe Illustrator 26.1.0, SVG Export Plug-In . SVG Version: 6.00 Build 0)  -->
<svg version="1.1" id="Layer_1" xmlns="http://www.w3.org/2000/svg" xmlns:xlink="http://www.w3.org/1999/xlink" x="0px" y="0px"
	 viewBox="0 0 1000 400" style="enable-background:new 0 0 1000 400;" xml:space="preserve">
<style type="text/css">
	.st0{fill:#FDFEFE;}
	.st1{fill:#3CBBFB;}
	.st2{fill:#F1F1F1;}
	.st3{fill:#0AACFE;}
</style>
<g>
	<path class="st0" d="M415,160.1c0,10.1,0,20.2,0,30.3c0,0.7-0.1,0.9-0.9,0.9c-20.4,0-40.9,0-61.3,0c0-0.1,0-0.1-0.1-0.1
		c0.5-0.2,0.5-0.6,0.5-1.1c0-1.7,0-3.4,0-5.1l0,0c3.8,0,7.5,0,11.3,0c0.6,0,1.1,0,1.1-0.9c0-1.8,0-3.5-0.1-5.3
		c0.1,0,0.1-0.1,0.1-0.1c2,0.1,4,0.1,6,0c0,0.1,0.1,0.1,0.1,0.1c0,1.8,0,3.5-0.1,5.3c0,0.6,0.2,0.9,0.8,0.9c3.6,0,7.2,0,10.8,0
		c0.5,0,0.8-0.2,0.8-0.7c0-1.8-0.1-3.6-0.1-5.4c0.1,0,0.1-0.1,0.1-0.1c3.8,0.2,7.7,0,11.5,0.1c0.7,0,0.8-0.5,0.8-1
		c0-1.3-0.1-2.6,0-3.9c0-0.8-0.2-1.1-1-1.1c-1.7,0-3.5,0-5.2,0c-2,0-4-0.1-5.9,0.1c-0.6-0.7-0.5,0.1-0.5,0.3c0,1.5,0,3,0.1,4.4
		c0,0.6-0.1,0.9-0.8,0.9c-3.4,0-6.7,0-10.1,0c-0.7,0-1.1-0.3-1-1.1c0.1-1.3,0-2.7,0-4c0-0.8-0.3-1.1-1-1.1c-1.6,0-3.1,0-4.7,0
		c-0.8,0-1.1,0.4-1,1.1c0,1.2,0,2.5,0,3.7c0,1.4,0,1.4-1.5,1.4c-3.2,0-6.4,0-9.7,0c-0.9,0-1.3,0.3-1.2,1.2c0.1,1.3,0,2.7,0,4
		c0,0.7-0.2,1-0.9,1c-7.5,0-14.9,0-22.4,0c-0.7,0-1-0.3-1-1c0-1.3,0-2.5,0-3.8c0.1-1-0.3-1.4-1.3-1.4c-2.6,0.1-5.2,0-7.7,0
		c-0.7,0-1.5,0-2.2,0c-0.7,0-1.2-0.3-1.1-1.1c0.1-1.3,0-2.6,0-3.9c0-0.9-0.4-1.2-1.2-1.2c-1.3,0-2.7,0-4,0c-1.3,0-1.6,0.2-1.5,1.6
		c0.1,1.2,0,2.4,0.1,3.6c0.1,0.8-0.2,1.2-1.1,1.1c-1.4,0-2.8,0-4.2,0c-0.7,0-1,0.3-1,0.9c0,1.3-0.1,2.7,0.1,4c0.1,1-0.2,1.2-1.1,1.2
		c-3.5,0-6.9,0-10.4,0c-1.9,0-3.7,0-5.6,0c-0.7,0-1-0.2-0.9-1c0.1-1.2,0.1-2.5,0.1-3.7c0-1.4,0-1.5-1.5-1.5c-3.3,0-6.6,0-9.9,0
		c-0.8,0-1.1-0.2-1-1.1c0.1-1.4,0.1-2.8,0.1-4.1c0-0.6-0.3-1.1-1-1c-1.6,0-3.1,0-4.7,0c-0.7,0-1,0.3-1,1.1c0,1.2,0,2.3,0,3.5
		c0,1.7,0,1.7-1.7,1.7c-3.2,0-6.4,0-9.5,0c-0.8,0-1.1,0.3-1.1,1.1c0.1,1.3,0,2.6,0,3.9c0,0.8-0.2,1.2-1.1,1.2c-7.4,0-14.8,0-22.3,0
		c-0.7,0-0.9-0.2-0.9-0.9c0-1.3,0-2.6,0-3.9c0.1-1-0.3-1.4-1.3-1.3c-3.3,0.1-6.6,0-10,0c-0.8,0-1.1-0.2-1.1-1.1c0.1-1.4,0-2.8,0-4.1
		c0-0.7-0.3-1-1-1c-1.6,0-3.1,0-4.7,0c-0.8,0-1.1,0.4-1.1,1.1c0,1.2,0,2.4,0,3.6c0,0.2-0.1,0.4,0.2,0.5c0,0.3,0,0.5,0,0.8
		c-0.7,0.3-1.4,0.3-2.1,0.3c-1.1,0-2.3,0-3.4,0c-0.6,0-0.9,0.3-0.9,0.9c0,1.3-0.1,2.7,0,4c0.1,1-0.2,1.3-1.2,1.3
		c-5.3,0-10.5,0-15.8,0c-0.4,0-0.8,0-1.2-0.2c-0.1-0.3-0.1-0.6,0-0.9c0.3-1.4,0.3-2.9,0-4.3c-0.1-0.3-0.3-0.5-0.6-0.6
		c-0.3-0.3-0.6-0.2-1-0.2c-3.1,0-6.3,0-9.4,0c-0.5,0-0.9,0-1.3-0.2c-0.2-0.6,0-1.2-0.1-1.8c-0.1-1.3,0.2-2.6-0.1-3.9
		c0.1,0,0.1-0.1,0.2-0.1c0,0,0-0.1,0-0.1c-0.2-0.3-0.6-0.2-0.9-0.2c-1.5,0-3,0-4.5,0c-0.8,0-1.1,0.3-1.1,1.1c0,1.3-0.1,2.6,0,3.8
		c0.1,1-0.3,1.2-1.3,1.2c-3.3,0-6.6,0-9.9,0c-1,0-1.3,0.4-1.3,1.3c0,1.3,0,2.6,0.1,3.9c0.1,0.7-0.1,1-0.8,1c-1.4,0-2.9,0-4.3,0
		c-5.9,0-11.8,0-17.7,0c-1,0-1.4-0.3-1.3-1.3c0.1-1.1,0-2.2,0-3.3c0-1.5-0.1-1.6-1.5-1.6c-3.2,0-6.4,0-9.5,0c-1,0-1.4-0.1-1.3-1.3
		c0.2-1.2,0-2.5,0-3.7c0-0.9-0.4-1.2-1.2-1.2c-1.4,0-2.9,0-4.3,0c-0.9,0-1.2,0.4-1.2,1.2c0,1.3,0,2.7,0,4c0,0.7-0.2,1-0.9,0.9
		c-1.3,0-2.7,0-4,0c-0.9,0-1.3,0.3-1.3,1.2c0.1,1.3,0,2.7,0,4c0,0.6-0.2,0.9-0.8,0.9c-5.4,0-10.9,0-16.3,0c-0.7,0-0.9-0.3-0.9-1
		c0-1.3,0-2.5,0-3.8c0-1.3,0-1.4-1.4-1.4c-3.3,0-6.6,0-9.9,0c-0.9,0-1.2-0.3-1.1-1.2c0.1-1.2,0-2.3,0-3.5c0-1.5-0.1-1.5-1.5-1.5
		c-1.2,0-2.4,0-3.6,0c-0.9,0-1.2-0.3-1.1-1.2c0.1-1.2,0-2.4,0-3.6c0-1.3-0.1-1.4-1.4-1.4c-5.2,0-10.5,0-15.7,0c-1.4,0-1.4,0-1.4-1.4
		c0-3.2,0-6.4,0-9.7c0-0.9-0.3-1.4-1.3-1.3c-1.4,0.1-2.8,0-4.1,0c-0.6,0-0.9-0.2-0.8-0.9c0.1-1.4,0-2.8,0.1-4.1
		c0-0.9-0.4-1.2-1.2-1.2c-1.4,0-2.8,0-4.1,0c-0.6,0-0.9-0.1-0.9-0.8c0.1-1.4,0-2.8,0.1-4.1c0-0.9-0.4-1.3-1.3-1.2
		c-1.4,0-2.8,0-4.1,0c-0.7,0-0.9-0.3-0.9-1c0.1-1.4,0.1-2.8,0.1-4.1c0-0.8-0.3-1.1-1.1-1.1c-1.4,0-2.8,0-4.2,0c-0.7,0-0.9-0.2-0.9-1
		c0.1-3.2,0.1-6.4,0-9.6c0-1.1,0.3-1.3,1.2-1.2c3.3,0,6.6,0,9.9,0c1,0,1.4-0.3,1.3-1.3c-0.1-3.3-0.1-6.6-0.2-9.8
		c0-0.9,0.2-1.2,1.1-1.2c1.4,0.1,2.8,0,4.1,0c0.7,0,1.1-0.2,1.1-1c0-1.4,0-2.8-0.1-4.1c-0.1-0.8,0.2-1,0.9-1c1.4,0,2.8,0,4.1,0
		c0.9,0,1.2-0.3,1.2-1.2c0-1.1,0-2.3,0-3.4c0-1.6,0-1.6,1.6-1.6c5.2,0,10.3,0,15.5,0c1.3,0,1.4-0.1,1.4-1.4c0-1.2,0-2.5,0-3.7
		c0-0.8,0.2-1.1,1-1.1c1.2,0,2.4,0,3.6,0c1.5,0,1.6,0,1.6-1.5c0-1.2,0-2.5,0-3.7c0-0.7,0.2-0.9,0.9-0.9c1.4,0,2.8,0,4.1,0
		c0.8,0,1.2-0.3,1.1-1.1c0-1.3,0-2.7,0-4c0-0.8,0.3-1.1,1-1c1.3,0,2.5,0,3.8,0c1,0.1,1.4-0.3,1.3-1.3c0-5.3,0-10.7,0-16
		c0-1,0.3-1.3,1.3-1.3c3.3,0,6.6,0,10,0c0.9,0,1.2-0.3,1.1-1.2c-0.1-1.3,0-2.7,0-4c0-0.7,0.3-1,1-1c1.4,0,2.8,0,4.2,0
		c0.7,0,1.1-0.3,1.1-1c0-1.3,0-2.5,0-3.8c-0.1-1.3-0.1-1.4,1.3-1.4c7.2,0,14.4,0,21.6,0c0.5,0,1,0,1.4,0.2c0,0.3,0,0.5,0,0.8
		c0,0-0.1,0-0.1,0c0,0-0.1,0-0.1,0c0,1.3,0,2.7-0.1,4c0,0.9,0.3,1.2,1.2,1.2c1.7,0,3.4-0.2,5.2,0.1c0,0.3,0,0.5,0,0.8
		c-0.1,0-0.1,0-0.2,0c0,0-0.1,0.1-0.1,0.2c0,3.4,0,6.9,0,10.3c0,0.7,0.4,0.9,1,0.9c1.8,0,3.6-0.1,5.3,0.1c0.1,0.3,0.1,0.7,0,1
		c-0.2-0.1-0.2,0.1-0.2,0.2c0,1.3,0,2.7,0,4c0,0.5,0.2,0.8,0.8,0.8c1.7,0.2,3.3,0.1,5,0c0.8,0,1-0.4,1-1.2c-0.1-1.4,0-2.8,0-4.1
		c0-0.6,0.1-0.9,0.8-0.9c1.3,0,2.7,0,4,0c0.7,0,0.9,0.2,0.9,1c-0.1,1.4-0.1,2.8-0.1,4.1c0,0.7,0.3,1.1,1.1,1.1c1.3,0,2.6,0.1,3.9,0
		c1,0,1.3,0.2,1.3,1.3c-0.1,5.3,0,10.7,0,16c0,0.8,0.2,1.2,1.1,1.2c3.5,0,7,0,10.5,0c0.9,0,1.2-0.3,1.2-1.2c-0.1-1.3,0-2.6,0-3.9
		c0-0.9,0.3-1.1,1.1-1.1c1.3,0,2.7,0,4,0c0.8,0,1.1-0.3,1.1-1.1c0-1.4,0-2.8,0-4.2c0-0.6,0.2-0.9,0.9-0.9c1.4,0,2.8,0,4.1,0
		c1,0,1.3-0.4,1.3-1.3c0-1.2,0-2.4,0-3.6c0-4.1,0.1-8.3-0.1-12.4c0-1,0.2-1.3,1.2-1.3c3.4,0,6.7,0,10.1,0c0.8,0,1.2-0.2,1.1-1.1
		c0-1.3,0.1-2.7-0.1-4c-0.1-0.8,0.2-1.1,0.9-1.1c1.4,0,2.8,0,4.2,0c0.8,0,1.1-0.3,1-1.1c0-1.3,0.1-2.6-0.1-3.9
		c-0.1-1,0.2-1.2,1.1-1.2c4.2,0,8.5,0,12.7,0c3,0,6,0,9,0c1.4,0,1.3,0,1.3,1.3c-0.1,1.2,0,2.5,0,3.7c0,0.8,0.3,1.2,1.2,1.1
		c1.4,0,2.8,0,4.2,0c0.7,0,0.9,0.3,0.9,1c-0.1,3.4-0.1,6.9-0.1,10.3c0,0.8,0.3,1.1,1.2,1.1c1.4-0.1,2.8,0,4.1,0c0.7,0,1,0.3,1,1
		c0,1.4,0,2.8,0,4.2c0,0.6,0.1,0.9,0.8,1c1.7,0.1,3.3,0.1,5,0c0.7,0,0.9-0.4,0.8-1c0-1.3,0-2.7,0-4c0-0.9,0.3-1.2,1.2-1.2
		c1.2,0,2.4,0,3.6,0c0.7,0,1,0.3,1,1c0,1.4,0,2.8,0,4.1c0,0.7,0.2,1,1,1.1c1.3,0.1,2.6,0.1,3.9,0.1c1,0,1.3,0.2,1.3,1.3
		c-0.1,5.3,0,10.7,0,16c0,0.7,0.1,1.2,1,1.2c3.6,0,7.2,0,10.8,0c0.7,0,1-0.3,1-1c0-1.4,0.1-2.8-0.1-4.1c-0.1-0.9,0.2-1,1-1
		c1.4,0,2.8,0,4.1,0c0.7,0,1.1-0.3,1.1-1.1c0-1.3,0.1-2.7-0.1-4c-0.1-0.9,0.3-1.1,1.1-1.1c1.3,0,2.7,0,4,0c0.7,0,1.1-0.2,1.1-1
		c0-5.4,0-10.9-0.1-16.3c0-1,0.2-1.3,1.2-1.3c3.4,0,6.7,0,10.1,0c0.8,0,1.2-0.2,1.1-1.1c-0.1-1.3,0.1-2.6,0-3.9
		c-0.1-1,0.3-1.2,1.2-1.2c1.3,0.1,2.5,0,3.8,0c0.9,0,1.2-0.2,1.2-1.1c-0.1-1.3,0-2.7,0-4c0-0.7,0.2-1,0.9-1c7.5,0,14.9,0,22.4,0
		c0.7,0,0.9,0.2,0.9,0.9c0,1.4,0,2.8,0,4.1c0,0.8,0.2,1.2,1.1,1.1c1.3-0.1,2.7,0,4,0c0.8,0,1.1,0.2,1.1,1.1c-0.1,3.4,0,6.7,0,10.1
		c0,0.9,0.2,1.2,1.1,1.2c1.4-0.1,2.8,0,4.1,0c0.7,0,0.9,0.2,0.9,0.9c0,1.4,0,2.8,0,4.2c0,0.6,0.2,1,0.9,1c1.6,0.1,3.2,0.1,4.8,0
		c0.8,0,1.1-0.5,1.1-1.2c0-1.4,0-2.8-0.1-4.1c0-0.7,0.2-0.9,0.8-0.9c1.3,0,2.7,0,4,0c0.6,0,0.9,0.2,0.9,0.9c0,1.4,0,2.9,0,4.3
		c0,0.6,0.2,0.9,0.8,1c1.4,0.2,2.8,0.1,4.1,0.1c1,0,1.2,0.3,1.2,1.3c-0.1,5.3,0,10.6,0,15.9c0,1,0.4,1.4,1.4,1.3
		c1.3-0.1,2.5,0,3.8,0c0.8,0,1,0.3,1,1c0,3.3,0,6.6,0,9.9c0,1.4,0.1,1.4,1.5,1.4c1.6,0.1,3.3-0.2,4.9,0.2c0,0.2,0,0.5,0,0.7
		c-0.4,0-0.2,0.3-0.2,0.5c0,1.2,0,2.5,0,3.7c0,0.8,0.3,1.1,1.1,1.1c1.6,0,3.1,0,4.7,0c0.7,0,1-0.3,1-1c0-1.4,0-2.8,0-4.1
		c0-0.8,0.2-1.1,1-1.1c1.4,0,2.8,0,4.2,0c0.7,0,1-0.2,0.9-0.9c0-1.4,0-2.9,0-4.3c0-0.6,0.2-0.9,0.8-0.9c1.4,0,2.8,0,4.1,0
		c0.6,0,0.8,0.3,0.8,0.8c-0.2,5.5,0,11-0.1,16.5c0,0.8,0.3,1.2,1.2,1.1c1.4,0,2.8,0,4.2,0c0.7,0,0.9,0.3,0.9,1
		c-0.1,1.4-0.1,2.8-0.1,4.1c0,0.7,0.3,1.1,1.1,1.1c1.5,0,3,0,4.6,0c0.9,0,1.1-0.3,1.1-1.1c0-1.3,0-2.7,0-4c0-0.7,0.2-1,0.9-1
		c1.3,0,2.6,0,3.9,0c0.7,0,0.9,0.2,0.9,0.9c0,5.4,0,10.7,0,16.1c0,0.7-0.3,1-1,1c-1.2,0-2.5,0-3.7,0c-1.5,0-1.5,0-1.5,1.5
		c0,1.2,0,2.3,0,3.5c0,0.8-0.2,1.2-1.1,1.1c-1.4,0-2.8,0-4.1,0c-0.7,0-1.1,0.3-1.1,1c0,1.6,0,3.1,0,4.7c0,0.8,0.4,1.1,1.2,1.1
		c1.3,0,2.7,0,4,0c0.8,0,1.1,0.2,1,1c-0.1,1.3,0,2.7,0,4c0,0.8,0.3,1.1,1.1,1.1c1.3,0,2.7,0,4,0c0.7,0,1.1,0.2,1.1,1
		c0,3.2,0,6.4,0,9.6c0,0.9-0.3,1.2-1.1,1.1c-3.4,0-6.8,0-10.2,0c-1,0-1.1,0.1-1.1,1.1c0.1-0.1,0.1-0.5,0.4-0.4c0,1.6,0,3.2,0,4.9
		c0,0.6,0.2,0.8,0.9,0.8c3.5,0,6.9,0,10.4,0c0.8,0,0.9-0.4,0.9-1.1c0-1.2-0.1-2.5,0-3.7c0.1-1-0.2-1.2-1.1-1.2c-3.6,0-7.2,0-10.8,0
		c0.2-0.5,0.7-0.3,1.1-0.3c2.9,0,5.8,0,8.7,0c2.5,0,2.1,0.2,2.2-2.2c0-1.5,0-2.9,0-4.4c0.4,0.1,0.5,0.6,1,0.6c1.4-0.1,2.8,0,4.2,0
		c0.4,0,0.7,0,0.9-0.4C414.9,160,414.9,160.1,415,160.1z M143.4,160.2c-3.7,0-7.4,0-11.1,0c-0.8,0-1.1-0.3-1.1-1.1c0-1.3,0-2.7,0-4
		c0-0.8-0.3-1.1-1.1-1c-1.3,0-2.7,0-4,0c-0.8,0-1.1-0.3-1.1-1.1c0-1.2,0.1-2.4,0-3.6c0-0.9,0.2-1.2,1.1-1.2c1.3,0,2.7,0,4,0
		c0.7,0,1-0.2,1-1c0-1.5,0-3,0-4.6c0-0.7-0.3-1-1-1c-1.4,0-2.8,0-4.2,0c-0.9,0-1.2,0.4-1.1,1.2c0,1.3,0,2.6,0,3.9c0,0.8-0.3,1.1-1,1
		c-1.3,0-2.6,0-3.9,0c-1-0.1-1.4,0.5-1.3,1.3c0.1,1.2,0.1,2.4,0.1,3.6c0,1.3,0,1.4-1.3,1.4c-3.3,0-6.6,0-10,0
		c-0.6,0-1.1,0.1-1.1,0.9c0,1.4-0.1,2.8,0.1,4.1c0.1,0.9-0.1,1.2-1,1.2c-5.4,0-10.8,0-16.2,0c-0.8,0-1-0.3-1-1.1c0-1.3,0-2.5,0-3.8
		c0.1-1.1-0.4-1.4-1.3-1.3c-1.2,0.1-2.3,0-3.5,0c-0.9,0-1.4-0.2-1.4-1.3c0.1-1.3,0-2.5,0-3.8c0-0.7-0.3-1.1-1.1-1.1
		c-1.5,0-3,0-4.5,0c-0.7,0-1.1,0.4-1,1.1c0,1.3,0,2.7,0,4c0,0.8-0.3,1.1-1.1,1.1c-3.3,0-6.6,0-9.9,0c-1,0-1.3-0.4-1.1-1.3
		c0.2-1.2,0.1-2.5,0.1-3.7c0-0.9-0.3-1.4-1.3-1.3c-1.3,0.1-2.5,0-3.8,0c-0.9,0-1.2-0.3-1.2-1.2c0-1.3,0-2.6,0-3.9
		c0-0.8-0.3-1.1-1.1-1.1c-1.4,0-2.9,0-4.3,0c-0.7,0-1,0.3-1,1c0,1.5,0,3,0,4.6c0,0.8,0.3,1,1,0.9c1.3,0,2.7,0,4,0
		c0.8,0,1.2,0.3,1.1,1.1c0,1.3,0,2.7,0,4c0,0.8,0.3,1.1,1.1,1c1.4,0,2.8,0,4.1,0c0.7,0,1,0.3,1,1c0,1.3,0,2.5,0,3.8
		c0,1.3,0,1.3,1.4,1.3c5.3,0,10.5,0,15.8,0c1,0,1.4,0.2,1.3,1.3c-0.1,1.2,0,2.5,0,3.7c-0.1,1,0.3,1.2,1.2,1.2c3.4,0,6.7,0,10.1,0
		c0.8,0,1.1,0.2,1,1c-0.1,1.4,0,2.8,0,4.1c0,0.8,0.3,1.1,1,1.1c3.5,0,7.1,0,10.6,0c0.7,0,1.1-0.3,1.1-1.1c0-1.3,0-2.6,0-3.9
		c-0.1-1,0.3-1.3,1.3-1.3c3.3,0,6.6,0,9.9,0c0.9,0,1.3-0.3,1.2-1.2c-0.1-1.3,0-2.5,0-3.8c0-0.8,0.2-1.2,1.1-1.2c1.3,0,2.5,0,3.8,0
		c0.8,0,1.1,0.3,1.1,1.1c0,1.4,0,2.8,0,4.1c0,0.7,0.3,1,1,1c1.4,0,2.8,0,4.1,0c0.8,0,1.1,0.3,1,1.1c0,1.2,0,2.5,0,3.7
		c0,1.4,0.1,1.5,1.5,1.5c4.5,0,8.9,0,13.4,0c1,0,1.9,0,2.9,0c0.8,0,1.2-0.4,1.1-1.2c-0.1-1.3,0-2.7-0.1-4c-0.1-0.9,0.2-1.1,1-1.1
		c1.3,0,2.7,0,4,0c0.9,0,1.3-0.3,1.2-1.2c-0.1-1.3,0-2.7,0-4c0-0.7,0.2-1,0.9-0.9c1.4,0,2.8,0,4.2,0c0.7,0,1-0.3,1-1
		c0-1.5,0-3,0-4.5c0-0.7-0.3-1-1-0.9c-1.5,0-3,0-4.6,0c-0.8,0-1,0.3-1,1.1c0,1.3,0,2.5,0,3.8c0.1,1-0.3,1.3-1.3,1.3
		C150.7,160.2,147.1,160.2,143.4,160.2z M340.9,160.1c-3.7,0-7.4,0-11.1,0c-0.8,0-1.1-0.2-1-1c0.1-1.2,0-2.5,0-3.7
		c0-1.3-0.1-1.4-1.5-1.4c-1.2,0-2.5,0-3.7,0c-0.7,0-1-0.2-1-1c0-1.3,0.1-2.5,0-3.8c0-0.8,0.3-1,1.1-1c1.4,0,2.8,0,4.1,0
		c0.7,0,1-0.2,1-1c0-1.5,0-3,0-4.5c0-0.8-0.3-1.1-1.1-1.1c-1.4,0-2.8,0-4.2,0c-0.9,0-1.2,0.4-1.2,1.2c0,1.3,0,2.7,0,4
		c0,0.7-0.2,1-0.9,0.9c-1.4,0-2.8,0-4.2,0c-0.7,0-1,0.3-1,1c0,1.3-0.1,2.6,0,3.8c0.1,1.1-0.3,1.4-1.4,1.4c-3.2-0.1-6.4,0-9.5,0
		c-1.4,0-1.4,0.1-1.4,1.5c0,1.1,0,2.1,0,3.2c0,1.5,0,1.5-1.5,1.5c-5.1,0-10.3,0-15.4,0c-1.4,0-1.4,0-1.4-1.3c0-1.2,0-2.5,0-3.7
		c0-0.8-0.3-1.2-1.1-1.1c-1.3,0-2.5,0-3.8,0c-0.9,0-1.4-0.2-1.3-1.2c0.1-1.3,0-2.6,0-3.9c0-0.6-0.2-1-0.9-1c-1.6,0-3.1,0-4.7,0
		c-0.6,0-1,0.3-1,1c0,1.4-0.1,2.8,0.1,4.1c0.1,0.9-0.3,1.1-1,1c-1.3,0-2.6,0-3.9,0c-0.9,0-1.4,0.3-1.3,1.3c0.1,1.3,0,2.5,0,3.8
		c0,1.4,0,1.4,1.5,1.4c3.3,0,6.6,0,9.9,0c0.6,0,1.2,0,1.1,0.9c-0.2,1.3-0.1,2.7-0.1,4c0,1.2,0.2,1.4,1.4,1.4c3.2,0,6.4,0,9.7,0
		c1,0,1.5,0.2,1.4,1.3c-0.1,1.3,0,2.5,0,3.8c0,0.7,0.3,1,1,1c3.5,0,7.1,0,10.6,0c0.7,0,1.1-0.3,1.1-1.1c0-1.2,0-2.5,0-3.7
		c0-1.4-0.1-1.4,1.3-1.4c3.2,0,6.4,0,9.5,0c1.4,0,1.5-0.1,1.5-1.5c0-1.3,0-2.5,0-3.8c0-0.7,0.2-1,1-1c1.3,0,2.5,0,3.8,0
		c0.8,0,1.1,0.3,1.1,1.1c0,1.3,0,2.7,0,4c0,0.9,0.4,1.2,1.2,1.2c1.4,0,2.8,0,4.1,0c0.6,0,0.9,0.2,0.9,0.9c0,1.4,0,2.8,0,4.1
		c0,0.8,0.3,1.2,1.1,1.2c5.6,0,11.1,0,16.7,0c0.8,0,1.1-0.3,1.1-1.2c0-1.3,0-2.7,0-4c0-0.7,0.2-1,1-1c1.3,0,2.7,0,4,0
		c0.8,0,1.2-0.3,1.2-1.2c-0.1-1.3,0-2.7,0-4c0-0.8,0.3-1.1,1.1-1.1c1.4,0,2.8,0,4.1,0c0.7,0,1-0.2,1-1c0-1.5,0-3,0-4.5
		c0-0.7-0.3-1.1-1-1.1c-1.4,0-2.9,0-4.3,0c-0.8,0-1.2,0.3-1.2,1.2c0,1.3,0,2.5,0,3.8c0.1,0.9-0.3,1.2-1.2,1.2
		C348.1,160,344.5,160.1,340.9,160.1z M242.2,160.2c-3.7,0-7.4,0-11.1,0c-0.9,0-1.3-0.3-1.2-1.2c0.1-1.2,0-2.5,0-3.7
		c0.1-1-0.3-1.3-1.3-1.2c-1.3,0.1-2.5,0-3.8,0c-0.7,0-1.1-0.2-1.1-1c0-1.3,0-2.7,0-4c0-0.6,0.2-0.9,0.9-0.9c1.4,0,2.8,0,4.2,0
		c0.8,0,1.1-0.3,1.1-1.1c0-1.4,0-2.9,0-4.3c0-0.7-0.3-1-1-1c-1.4,0-2.9,0-4.3,0c-0.9,0-1.1,0.3-1.1,1.1c0.1,1.3,0,2.7,0,4
		c0,0.8-0.3,1.1-1,1c-1.3,0-2.7,0-4,0c-0.8,0-1.2,0.2-1.1,1.1c0.1,1.3,0,2.5,0,3.8c0.1,1-0.3,1.3-1.3,1.3c-3.3,0-6.6,0-10,0
		c-0.8,0-1.2,0.2-1.1,1.1c0.1,1.3,0,2.7,0,4c0,0.8-0.3,1.1-1.1,1.1c-5.4,0-10.8,0-16.2,0c-0.8,0-1-0.3-1-1.1c0-1.3,0-2.6,0-3.9
		c0-0.9-0.3-1.2-1.2-1.2c-1.3,0-2.6,0-3.9,0c-0.8,0-1.2-0.2-1.1-1.2c0.1-1.3,0-2.7,0.1-4c0-0.7-0.4-1-1.1-1c-1.4,0-2.9,0-4.3,0
		c-0.8,0-1,0.3-1,1.1c0,1.4,0,2.8,0,4.1c0,0.7-0.3,1-0.9,1c-1.3,0-2.7,0-4,0c-1.1,0-1.4,0.3-1.3,1.4c0.1,1.2,0.1,2.5,0,3.7
		c-0.1,1.1,0.2,1.3,1.3,1.3c3.3,0,6.6,0,9.9,0c1,0,1.3,0.3,1.3,1.3c-0.1,1.1,0,2.3,0,3.4c0,1.5,0,1.5,1.4,1.5c3.2,0,6.4,0,9.7,0
		c1,0,1.3,0.3,1.3,1.3c-0.1,1.3,0,2.6,0,3.9c0,0.7,0.2,1,0.9,1c3.6,0,7.1,0,10.7,0c0.8,0,1-0.3,1-1c0-1.2,0-2.5,0-3.7
		c0-1.4,0-1.4,1.4-1.4c3.3,0,6.6,0,9.9,0c0.8,0,1.1-0.3,1.1-1.1c-0.1-1.3,0-2.7,0-4c0-0.8,0.3-1.1,1.1-1.1c1.3,0,2.6,0,3.9,0
		c0.7,0,1,0.3,1,1c0,1.3,0,2.5,0,3.8c0,1,0.3,1.4,1.3,1.4c1.2-0.1,2.5,0,3.7,0c0.9,0,1.2,0.2,1.2,1.1c-0.1,1.3,0,2.6,0,3.9
		c0,0.8,0.3,1.1,1.1,1.1c5.5,0,11,0,16.5,0c0.9,0,1.3-0.4,1.1-1.2c-0.2-1.3,0-2.6-0.1-3.9c-0.1-0.8,0.3-1.1,1.1-1c1.3,0,2.7,0,4,0
		c0.9,0,1.2-0.4,1.2-1.2c0-1.3,0-2.7-0.1-4c0-0.7,0.2-1,0.9-1c1.4,0,2.9,0,4.3,0c0.7,0,1-0.3,1-1c0-1.4,0-2.9,0-4.3
		c0-0.8-0.3-1.1-1.1-1.1c-1.4,0-2.9,0-4.3,0c-0.8,0-1,0.3-1,1c0,1.2,0,2.5,0,3.7c0,1.4,0,1.4-1.5,1.4
		C249.4,160.2,245.8,160.2,242.2,160.2z M303.8,79.9c-1.7,0-3.3,0-5,0c-1,0-1.4,0.4-1.3,1.4c0.1,1.3,0,2.5,0,3.8c0,0.7-0.2,1-1,1
		c-1.3,0-2.7,0-4,0c-0.8,0-1.2,0.3-1.2,1.2c0.1,1.4,0,2.9,0,4.3c0,0.7,0.2,1,1,1c1.5,0,3,0,4.4,0c0.7,0,1-0.3,1-1c0-1.3,0-2.6,0-3.9
		c-0.1-1,0.3-1.3,1.3-1.3c3.3,0,6.6,0,10,0c0.9,0,1.3-0.3,1.3-1.2c0-1.3,0-2.7,0-4c0-0.9-0.3-1.3-1.2-1.3
		C307.3,79.9,305.5,79.9,303.8,79.9z M106.5,80c-1.6,0-3.3,0-4.9,0c-1.4,0-1.4,0-1.4,1.4c0,1.2,0,2.5,0,3.7c0,0.8-0.2,1.1-1,1.1
		c-1.3,0-2.7,0-4,0c-0.9,0-1.2,0.3-1.2,1.2c0.1,1.4,0.1,2.7,0,4.1c-0.1,0.7,0.2,1.1,1,1.1c1.4,0,2.9,0,4.3,0c0.8,0,1.2-0.3,1.1-1.1
		c0-1.3,0.1-2.5,0-3.8c-0.1-1,0.3-1.3,1.3-1.2c3.3,0,6.5,0,9.8,0c1,0,1.4-0.4,1.3-1.4c-0.1-1.3,0-2.7,0-4c0-0.8-0.3-1.1-1.1-1
		C109.9,80,108.2,80,106.5,80z M137.4,83.2c0-0.7,0-1.5,0-2.2c0.1-0.8-0.3-1.2-1.1-1.1c-1.3,0-2.6,0-3.9,0c-0.9,0-1.2-0.2-1.2-1.1
		c0.1-1.3,0-2.7,0-4c0-0.7-0.3-1-1-1c-1.5,0-3,0-4.5,0c-0.6,0-1,0.2-1,0.9c0,1.6,0,3.1,0,4.7c0,0.7,0.2,1,0.9,0.9c1.4,0,2.8,0,4.2,0
		c0.7,0,1,0.3,1,1c0,1.4,0,2.8,0,4.1c0,0.8,0.3,1.1,1.1,1c0.7,0,1.5,0,2.2,0C137.4,86.4,137.4,86.4,137.4,83.2z M236.1,83.2
		c0-0.6-0.1-1.3,0-1.9c0.1-1-0.2-1.4-1.3-1.3c-1.1,0.1-2.2,0-3.3,0c-1.6,0-1.6,0-1.6-1.6c0-1.2,0-2.3,0-3.5c0-0.8-0.2-1.2-1.1-1.1
		c-1.4,0-2.8,0-4.2,0c-0.9,0-1.1,0.4-1.1,1.1c0,1.4,0,2.8,0,4.1c0,0.9,0.4,1.2,1.2,1.1c1.3,0,2.6,0,3.9,0c0.8,0,1.1,0.2,1,1
		c-0.1,1.3,0,2.7,0,4c0,0.8,0.3,1.2,1.1,1.1c0.7,0,1.4,0,2.1,0C236,86.4,236,86.4,236.1,83.2z M205,86.3C205,86.3,205,86.3,205,86.3
		c1.7,0,3.3,0,5,0c0.9,0,1.3-0.3,1.3-1.2c0-1.3,0-2.6,0-3.9c0-0.8-0.3-1.1-1.1-1.1c-3.4,0-6.9,0-10.3,0c-0.7,0-1,0.2-1,1
		c0,1.4,0,2.8,0,4.2c0,0.8,0.3,1,1,1C201.7,86.2,203.4,86.3,205,86.3z M198.9,89.3c0-0.7,0-1.4,0-2.1c0-0.8-0.3-1-1-0.9
		c-1.3,0.1-2.6,0.1-3.9,0c-0.8-0.1-1.1,0.2-1.1,1c0.2,1.3,0.1,2.6,0,3.9c-0.1,0.9,0.3,1.1,1.1,1.1c1.3,0,2.5-0.1,3.8,0
		c0.9,0,1.2-0.3,1.1-1.2C198.8,90.6,198.9,89.9,198.9,89.3z M325.4,74.1c-0.7,0-1.3,0-2,0c-0.8,0-1.1,0.3-1,1.1
		c0.2,1.3,0.2,2.5,0,3.8c-0.1,0.7,0.1,1.1,0.9,1.1c1.3,0,2.7,0,4,0c0.7,0,1-0.3,1-1c0-1.4-0.1-2.8,0.1-4.1c0.1-0.5-0.2-0.8-0.8-0.8
		C326.9,74,326.2,74.1,325.4,74.1z M331.6,80.2C331.6,80.2,331.6,80.2,331.6,80.2c-0.6,0-1.3,0-1.9,0c-0.7-0.1-1,0.2-1,1
		c0,1.3,0.1,2.7-0.1,4c-0.1,0.7,0.3,1,1,1c1.4,0,2.8,0,4.1,0c0.8,0,1-0.4,0.9-1.1c-0.2-1.3-0.2-2.6,0-3.9c0.1-0.7-0.2-1-0.9-1
		C333,80.2,332.3,80.2,331.6,80.2z"/>
	<path class="st0" d="M285.8,191.3c-10.5,0-21.1,0-31.6,0c0-0.1,0-0.1-0.1-0.1c0.2-0.1,0.4-0.3,0.4-0.5c-0.1-1.9,0.2-3.8-0.2-5.6
		c0.1-0.1,0.1-0.1,0.2-0.2c3.9,0.3,7.8,0.1,11.7,0.1c0.4,0,0.7-0.3,0.7-0.7c-0.1-1.8,0.1-3.5-0.1-5.3c0-0.1,0.1-0.1,0.1-0.2
		c2-0.1,4.1,0.1,6.1-0.1c0,0.1,0.1,0.1,0.1,0.1c0,1.8-0.1,3.6-0.1,5.4c0,0.5,0.3,0.8,0.8,0.8c3.8-0.1,7.7,0.1,11.5-0.1
		c0,0.1,0.1,0.2,0.1,0.3c0,1.7,0,3.4,0,5.1c0,0.4,0.1,0.8,0.6,0.9C285.8,191.2,285.8,191.2,285.8,191.3z"/>
	<path class="st0" d="M186.9,191.3c-10.5,0-20.9,0-31.4,0c0-0.1-0.1-0.1-0.1-0.1c0.2-0.1,0.4-0.3,0.4-0.6c-0.1-1.9,0.1-3.7-0.1-5.6
		c0.1,0,0.1-0.1,0.1-0.1c3.9,0.2,7.8,0.1,11.7,0.1c0.4,0,0.7-0.2,0.7-0.5c-0.1-1.9,0.2-3.7-0.2-5.6c0.1,0,0.1-0.1,0.1-0.1
		c2.1,0.2,4.1,0.2,6.2,0c0,0.1,0,0.1,0.1,0.1c-0.3,1.8-0.1,3.7-0.1,5.6c0,0.5,0.4,0.6,0.8,0.6c1.2,0,2.4,0,3.6,0
		c2.6-0.1,5.3,0.1,7.9-0.1c0,0.1,0.1,0.1,0.1,0.1c-0.3,1.8,0,3.7-0.1,5.5c0,0.3,0.2,0.5,0.4,0.7C187,191.2,186.9,191.2,186.9,191.3z
		"/>
	<path class="st0" d="M131.5,191.3c-8.5,0-17,0-25.5,0l0-0.1l-0.1,0c0.3-0.1,0.5-0.3,0.5-0.6c-0.1-1.8,0.2-3.6-0.1-5.3
		c0.1-0.1,0.1-0.2,0.2-0.2c1.7,0,3.4,0,5.1,0c0.8,0,1.2-0.2,1.1-1.1c0-1.7,0-3.4,0-5.1c0,0,0,0,0,0c2,0,4.1-0.1,6.1-0.1
		c0,0.1,0.1,0.1,0.1,0.1c0,1.8-0.1,3.6-0.1,5.4c0,0.5,0.3,0.8,0.8,0.8c3.8-0.1,7.7,0.1,11.5-0.1c0,0.1,0.1,0.1,0.1,0.1
		c0,1.8,0,3.6-0.1,5.4c0,0.4,0.1,0.7,0.5,0.8L131.5,191.3L131.5,191.3z"/>
	<path class="st0" d="M230.2,191.3c-8.5,0-17,0-25.5,0l0-0.1c0,0-0.1,0-0.1,0c0.5-0.2,0.5-0.5,0.5-0.9c0-1.7,0-3.5-0.1-5.2l0,0
		c1.7,0,3.5,0,5.2,0c0.6,0,1-0.2,1-0.9c0-1.8,0-3.5-0.1-5.3l0,0c2.1,0,4.1,0,6.2,0l0,0c0,1.6,0,3.3-0.1,4.9c0,1,0.3,1.3,1.3,1.3
		c3.7,0,7.4,0,11.1,0l0,0c0,1.7,0,3.5,0,5.2c0,0.4,0.1,0.8,0.5,0.9C230.2,191.2,230.2,191.2,230.2,191.3z"/>
	<path class="st0" d="M328.8,191.3c-8.4,0-16.8,0-25.2,0c0-0.1-0.1-0.1-0.2-0.1c0.3-0.2,0.4-0.5,0.4-0.8c0-1.7,0-3.4-0.1-5.1
		c0-0.1,0.1-0.2,0.1-0.3c1.8,0.2,3.6,0.1,5.4,0.1c0.5,0,0.8-0.2,0.8-0.7c-0.1-1.8,0.1-3.6-0.1-5.5c0.1,0,0.1-0.1,0.1-0.1
		c2,0.2,4,0.1,6,0c0.1,0,0.2,0.1,0.3,0.1c-0.1,0.2-0.2,0.4-0.2,0.6c0,1.6,0,3.2,0,4.9c0,0.6,0.5,0.7,1,0.7c1.4,0,2.9,0,4.3,0
		c2.4,0,4.7,0.1,7.1-0.1c0.1,0,0.1,0.1,0.2,0.1c-0.4,1.9-0.1,3.8-0.2,5.6c0,0.3,0.2,0.4,0.4,0.5
		C328.9,191.2,328.9,191.2,328.8,191.3z"/>
	<path class="st0" d="M415,135.3c0,6.4,0,12.7,0,19.1c-0.1,0-0.1,0.1-0.1,0.1c-0.2-0.4-0.6-0.4-0.9-0.4c-1.7,0-3.4,0-5,0
		c-0.1,0-0.2-0.1-0.3-0.1c0.3-1.8,0.1-3.7,0.1-5.6c0-0.4-0.4-0.5-0.8-0.5c-1.8,0-3.6,0.1-5.4,0.1c0-0.1-0.1-0.1-0.1-0.1
		c0.2-2.1,0.2-4.1,0-6.2c0.1-0.1,0.1-0.1,0.2-0.2c1.8,0.4,3.7,0.1,5.6,0.2c0.5,0,0.6-0.3,0.6-0.7c-0.1-1.8,0.2-3.7-0.2-5.5
		c0.1-0.1,0.1-0.1,0.2-0.2c1.9,0.4,3.8,0.1,5.7,0.2C414.5,135.6,414.7,135.4,415,135.3C414.9,135.3,414.9,135.3,415,135.3L415,135.3
		z"/>
	<path d="M106.3,185.2c0.3,1.8,0,3.6,0.1,5.3c0,0.3-0.2,0.5-0.5,0.6c-0.2,0-0.3-0.1-0.5-0.1c-4.8,0-9.6,0-14.4,0
		c-0.9,0-1.9-0.2-2.8,0.2c-0.1,0-0.1,0-0.2,0c-0.1-2.1-0.3-4.2,0.1-6.3c0.4,0,0.8,0.1,1.1,0.1c5.3,0,10.6,0,15.9,0
		C105.5,185.1,105.9,185,106.3,185.2z"/>
	<path class="st1" d="M328.8,191.3c0-0.1,0.1-0.1,0.1-0.1c0.2,0,0.5,0,0.7,0c7,0,14,0,20.9,0c0.7,0,1.4,0,2.1,0.1
		c0.1,0,0.1,0,0.1,0.1C344.8,191.3,336.8,191.3,328.8,191.3z"/>
	<path class="st1" d="M131.5,191.3L131.5,191.3c0-0.1,0.1-0.1,0.1-0.1c2.2,0,4.4-0.1,6.7-0.1c5.7,0,11.4,0,17.1,0
		c0.1,0,0.1,0.1,0.1,0.1C147.5,191.3,139.5,191.3,131.5,191.3z"/>
	<path class="st1" d="M230.2,191.3c0-0.1,0-0.1,0.1-0.1c5.2,0,10.5-0.1,15.7-0.1c2.7,0,5.3,0,8,0.1c0.1,0,0.1,0,0.1,0.1
		C246.2,191.3,238.2,191.3,230.2,191.3z"/>
	<path class="st1" d="M415,135.3L415,135.3C414.9,135.3,414.9,135.3,415,135.3c-0.1-6-0.1-11.9-0.1-17.9c0-0.1,0.1-0.1,0.1-0.2
		C415,123.3,415,129.3,415,135.3z"/>
	<path class="st1" d="M88.2,191.3c0.9-0.4,1.8-0.2,2.8-0.2c4.8,0,9.6,0,14.4,0c0.2,0,0.3,0,0.5,0.1c0,0,0.1,0,0.1,0l0,0.1
		C100.1,191.3,94.2,191.3,88.2,191.3z"/>
	<path class="st1" d="M204.6,191.2C204.6,191.2,204.7,191.2,204.6,191.2l0.1,0.1c-5.9,0-11.9,0-17.8,0c0-0.1,0.1-0.1,0.1-0.1
		c3.1,0,6.3,0,9.4,0C199.2,191.1,201.9,191.2,204.6,191.2z"/>
	<path class="st1" d="M303.4,191.2c0.1,0,0.1,0.1,0.2,0.1c-5.9,0-11.9,0-17.8,0c0-0.1,0-0.1,0.1-0.1
		C291.7,191.2,297.6,191.2,303.4,191.2z"/>
	<path class="st1" d="M414.9,154.5c0-0.1,0-0.1,0.1-0.1c0,1.9,0,3.8,0,5.7c-0.1,0-0.1-0.1-0.1-0.1
		C414.9,158.1,414.9,156.3,414.9,154.5z"/>
	<path class="st1" d="M143.4,160.2c3.6,0,7.3,0,10.9,0c1,0,1.3-0.3,1.3-1.3c-0.1-1.3,0-2.5,0-3.8c0-0.8,0.2-1.1,1-1.1
		c1.5,0,3,0,4.6,0c0.7,0,1,0.3,1,0.9c0,1.5,0,3,0,4.5c0,0.7-0.3,1-1,1c-1.4,0-2.8,0-4.2,0c-0.7,0-0.9,0.3-0.9,0.9c0,1.3,0,2.7,0,4
		c0,0.9-0.3,1.2-1.2,1.2c-1.3-0.1-2.7,0-4,0c-0.8,0-1.1,0.2-1,1.1c0.1,1.3,0,2.7,0.1,4c0,0.8-0.4,1.2-1.1,1.2c-1,0-1.9,0-2.9,0
		c-4.5,0-8.9,0-13.4,0c-1.4,0-1.5-0.1-1.5-1.5c0-1.2,0-2.5,0-3.7c0-0.8-0.3-1.1-1-1.1c-1.4,0-2.8,0-4.1,0c-0.7,0-1-0.2-1-1
		c0-1.4,0-2.8,0-4.1c0-0.8-0.3-1.1-1.1-1.1c-1.3,0-2.5,0-3.8,0c-0.8,0-1.1,0.3-1.1,1.2c0,1.3,0,2.5,0,3.8c0,0.9-0.3,1.2-1.2,1.2
		c-3.3,0-6.6,0-9.9,0c-0.9,0-1.4,0.3-1.3,1.3c0.1,1.3,0,2.6,0,3.9c0,0.8-0.3,1.1-1.1,1.1c-3.5,0-7.1,0-10.6,0c-0.7,0-1.1-0.4-1-1.1
		c0-1.4,0-2.8,0-4.1c0-0.8-0.3-1-1-1c-3.4,0-6.7,0-10.1,0c-0.9,0-1.3-0.2-1.2-1.2c0.1-1.2-0.1-2.5,0-3.7c0.1-1.1-0.3-1.3-1.3-1.3
		c-5.3,0-10.5,0-15.8,0c-1.4,0-1.4,0-1.4-1.3c0-1.3,0-2.5,0-3.8c0-0.7-0.3-1-1-1c-1.4,0-2.8,0-4.1,0c-0.8,0-1.1-0.2-1.1-1
		c0-1.3,0-2.7,0-4c0-0.8-0.3-1.1-1.1-1.1c-1.3,0-2.7,0-4,0c-0.7,0-1.1-0.2-1-0.9c0-1.5,0-3,0-4.6c0-0.7,0.3-1,1-1c1.4,0,2.9,0,4.3,0
		c0.8,0,1.1,0.3,1.1,1.1c0,1.3,0,2.6,0,3.9c0,0.9,0.3,1.2,1.2,1.2c1.3-0.1,2.5,0,3.8,0c1,0,1.4,0.4,1.3,1.3c0,1.2,0.1,2.5-0.1,3.7
		c-0.1,0.9,0.1,1.3,1.1,1.3c3.3,0,6.6,0,9.9,0c0.8,0,1.1-0.3,1.1-1.1c-0.1-1.3,0-2.7,0-4c0-0.8,0.3-1.1,1-1.1c1.5,0,3,0,4.5,0
		c0.8,0,1.1,0.4,1.1,1.1c0,1.3,0.1,2.6,0,3.8c-0.1,1.1,0.4,1.4,1.4,1.3c1.2,0,2.3,0,3.5,0c1-0.1,1.4,0.2,1.3,1.3
		c-0.1,1.3,0,2.5,0,3.8c0,0.8,0.2,1.1,1,1.1c5.4,0,10.8,0,16.2,0c0.9,0,1-0.3,1-1.2c-0.1-1.4,0-2.8-0.1-4.1c0-0.8,0.5-0.9,1.1-0.9
		c3.3,0,6.6,0,10,0c1.3,0,1.4,0,1.3-1.4c0-1.2,0.1-2.4-0.1-3.6c-0.1-0.9,0.3-1.4,1.3-1.3c1.3,0.1,2.6,0,3.9,0c0.8,0,1.1-0.2,1-1
		c-0.1-1.3,0-2.6,0-3.9c0-0.8,0.2-1.3,1.1-1.2c1.4,0,2.8,0,4.2,0c0.7,0,1,0.3,1,1c0,1.5,0,3,0,4.6c0,0.8-0.3,1-1,1c-1.3,0-2.7,0-4,0
		c-0.9,0-1.2,0.4-1.1,1.2c0.1,1.2,0,2.4,0,3.6c0,0.8,0.3,1.2,1.1,1.1c1.3,0,2.7,0,4,0c0.8,0,1.1,0.2,1.1,1c0,1.3,0,2.7,0,4
		c0,0.8,0.3,1.1,1.1,1.1C136,160.2,139.7,160.2,143.4,160.2z"/>
	<path class="st1" d="M340.9,160.1c3.6,0,7.3,0,10.9,0c0.9,0,1.3-0.3,1.2-1.2c-0.1-1.3,0-2.5,0-3.8c0-0.8,0.3-1.2,1.2-1.2
		c1.4,0,2.9,0,4.3,0c0.8,0,1.1,0.4,1,1.1c0,1.5,0,3,0,4.5c0,0.7-0.3,1-1,1c-1.4,0-2.8,0-4.1,0c-0.8,0-1.1,0.3-1.1,1.1
		c0,1.3,0,2.7,0,4c0,0.9-0.4,1.2-1.2,1.2c-1.3,0-2.7,0-4,0c-0.7,0-1,0.3-1,1c0,1.3,0,2.7,0,4c0,0.8-0.3,1.2-1.1,1.2
		c-5.6,0-11.1,0-16.7,0c-0.8,0-1.1-0.4-1.1-1.2c0-1.4,0-2.8,0-4.1c0-0.6-0.2-0.9-0.9-0.9c-1.4,0-2.8,0-4.1,0c-0.8,0-1.2-0.3-1.2-1.2
		c0.1-1.3,0-2.7,0-4c0-0.8-0.3-1.1-1.1-1.1c-1.3,0-2.5,0-3.8,0c-0.7,0-1,0.3-1,1c0,1.3,0,2.5,0,3.8c0,1.4-0.1,1.5-1.5,1.5
		c-3.2,0-6.4,0-9.5,0c-1.3,0-1.3,0-1.3,1.4c0,1.2,0,2.5,0,3.7c0,0.8-0.4,1.1-1.1,1.1c-3.5,0-7.1,0-10.6,0c-0.7,0-1-0.3-1-1
		c0-1.3-0.1-2.6,0-3.8c0.1-1.1-0.3-1.4-1.4-1.3c-3.2,0.1-6.4,0-9.7,0c-1.2,0-1.4-0.2-1.4-1.4c0-1.3-0.1-2.7,0.1-4
		c0.1-0.9-0.5-0.9-1.1-0.9c-3.3,0-6.6,0-9.9,0c-1.5,0-1.5,0-1.5-1.4c0-1.3,0.1-2.5,0-3.8c-0.1-1,0.4-1.3,1.3-1.3c1.3,0,2.6,0,3.9,0
		c0.7,0,1.1-0.2,1-1c-0.1-1.4,0-2.8-0.1-4.1c0-0.7,0.3-1,1-1c1.6,0,3.1,0,4.7,0c0.7,0,0.9,0.4,0.9,1c0,1.3,0.1,2.6,0,3.9
		c-0.1,1,0.3,1.3,1.3,1.2c1.3-0.1,2.5,0,3.8,0c0.8,0,1.1,0.3,1.1,1.1c0,1.2,0,2.5,0,3.7c0,1.4,0,1.3,1.4,1.3c5.1,0,10.3,0,15.4,0
		c1.5,0,1.5,0,1.5-1.5c0-1.1,0-2.1,0-3.2c0-1.4,0.1-1.5,1.4-1.5c3.2,0,6.4,0,9.5,0c1,0,1.5-0.2,1.4-1.4c-0.1-1.3,0-2.5,0-3.8
		c0-0.7,0.3-1,1-1c1.4,0,2.8,0,4.2,0c0.7,0,0.9-0.3,0.9-0.9c0-1.3,0-2.7,0-4c0-0.8,0.3-1.2,1.2-1.2c1.4,0,2.8,0,4.2,0
		c0.8,0,1.2,0.3,1.1,1.1c0,1.5,0,3,0,4.5c0,0.7-0.3,1-1,1c-1.4,0-2.8,0-4.1,0c-0.8,0-1.1,0.2-1.1,1c0.1,1.3,0,2.5,0,3.8
		c0,0.8,0.3,1,1,1c1.2,0,2.5,0,3.7,0c1.4,0,1.5,0.1,1.5,1.4c0,1.2,0,2.5,0,3.7c0,0.8,0.3,1,1,1C333.4,160,337.1,160.1,340.9,160.1z"
		/>
	<path class="st1" d="M242.2,160.2c3.6,0,7.1,0,10.7,0c1.5,0,1.5,0,1.5-1.4c0-1.2,0-2.5,0-3.7c0-0.7,0.2-1,1-1c1.4,0,2.9,0,4.3,0
		c0.8,0,1.1,0.3,1.1,1.1c0,1.4,0,2.9,0,4.3c0,0.7-0.3,1-1,1c-1.4,0-2.9,0-4.3,0c-0.7,0-0.9,0.2-0.9,1c0.1,1.3,0.1,2.7,0.1,4
		c0,0.8-0.3,1.2-1.2,1.2c-1.3-0.1-2.7,0-4,0c-0.8,0-1.1,0.3-1.1,1c0.1,1.3-0.1,2.6,0.1,3.9c0.1,0.8-0.2,1.2-1.1,1.2
		c-5.5,0-11,0-16.5,0c-0.8,0-1.2-0.3-1.1-1.1c0-1.3,0-2.6,0-3.9c0-0.9-0.3-1.2-1.2-1.1c-1.2,0.1-2.5,0-3.7,0c-1,0.1-1.4-0.4-1.3-1.4
		c0.1-1.3,0-2.5,0-3.8c0-0.7-0.2-1-1-1c-1.3,0-2.6,0-3.9,0c-0.8,0-1.1,0.3-1.1,1.1c0,1.3,0,2.7,0,4c0,0.8-0.3,1.1-1.1,1.1
		c-3.3,0-6.6,0-9.9,0c-1.4,0-1.4,0-1.4,1.4c0,1.2,0,2.5,0,3.7c0,0.7-0.2,1-1,1c-3.6,0-7.1,0-10.7,0c-0.7,0-0.9-0.3-0.9-1
		c0-1.3,0-2.6,0-3.9c0.1-1-0.3-1.3-1.3-1.3c-3.2,0-6.4,0-9.7,0c-1.4,0-1.4,0-1.4-1.5c0-1.1,0-2.3,0-3.4c0.1-1-0.3-1.3-1.3-1.3
		c-3.3,0.1-6.6,0-9.9,0c-1.1,0-1.4-0.3-1.3-1.3c0.1-1.2,0.1-2.5,0-3.7c-0.1-1.1,0.2-1.4,1.3-1.4c1.3,0,2.7,0,4,0c0.7,0,1-0.3,0.9-1
		c0-1.4,0-2.8,0-4.1c0-0.7,0.2-1.1,1-1.1c1.4,0,2.9,0,4.3,0c0.7,0,1.1,0.3,1.1,1c0,1.3,0.1,2.7-0.1,4c-0.1,1,0.3,1.2,1.1,1.2
		c1.3,0,2.6,0,3.9,0c0.9,0,1.2,0.3,1.2,1.2c0,1.3,0,2.6,0,3.9c0,0.8,0.2,1.1,1,1.1c5.4,0,10.8,0,16.2,0c0.8,0,1.1-0.3,1.1-1.1
		c0-1.3,0-2.7,0-4c0-0.9,0.3-1.1,1.1-1.1c3.3,0,6.6,0,10,0c1,0,1.3-0.3,1.3-1.3c-0.1-1.3,0-2.5,0-3.8c0-0.9,0.3-1.1,1.1-1.1
		c1.3,0,2.7,0,4,0c0.8,0,1.1-0.2,1-1c-0.1-1.3,0-2.7,0-4c0-0.8,0.2-1.2,1.1-1.1c1.4,0,2.9,0,4.3,0c0.7,0,1,0.3,1,1
		c0,1.4,0,2.9,0,4.3c0,0.8-0.3,1.1-1.1,1.1c-1.4,0-2.8,0-4.2,0c-0.6,0-0.9,0.2-0.9,0.9c0,1.3,0,2.7,0,4c0,0.8,0.3,1,1.1,1
		c1.3,0,2.5,0,3.8,0c1-0.1,1.4,0.2,1.3,1.2c-0.1,1.2,0,2.5,0,3.7c0,0.9,0.3,1.3,1.2,1.2C234.8,160.2,238.5,160.2,242.2,160.2z"/>
	<path class="st1" d="M248.3,67.9c0.1-0.1,0.1-0.1,0.2-0.2c1.9-0.1,3.9-0.1,5.8,0c0.1,0.1,0.1,0.1,0.2,0.2c0.2,1.6,0.1,3.2,0.1,4.8
		c0,0.8,0.3,1.1,1.1,1.1c1.6,0,3.2,0,4.8,0.1c0.1,0,0.2,0.1,0.3,0.1c0,0.1,0,0.1,0,0.2c0,5.7,0,11.5-0.1,17.2c0,0.7,0.4,0.9,1,0.9
		c3.4,0,6.8,0,10.2,0c0.9,0,1.1-0.3,1.1-1.1c0-1.6,0-3.2,0-4.9c0-0.1,0.1-0.1,0.1-0.1c1.6,0,3.2-0.1,4.7,0c0.9,0,1.3-0.2,1.3-1.3
		c-0.1-1.6,0-3.2,0-4.7c0-0.1,0.1-0.1,0.1-0.1c1.6,0,3.2-0.1,4.8,0c0.9,0,1.3-0.2,1.3-1.3c0-5.7,0-11.4,0-17c0-0.1,0.1-0.1,0.1-0.1
		c0.4,0,0.8-0.1,1.3-0.1c3.2,0,6.4,0,9.6,0c1.3,0,1.3,0,1.3-1.4c0-1.5,0-3,0-4.5c0-0.1,0.1-0.1,0.1-0.1c1.6-0.2,3.1-0.1,4.7-0.1
		c1.4,0,1.4,0,1.4-1.3c0-1.6,0-3.2,0-4.8l0,0c7.9,0,15.7,0,23.6,0c0.4,0,0.8,0.1,1.1-0.1l0.1,0c0,0,0,0.1,0,0.1c0,1.7,0,3.4,0,5.2
		c0,0.8,0.3,1.1,1.1,1.1c1.6,0,3.2-0.2,4.8,0.1c0.1,0.1,0.1,0.1,0.2,0.2c0,0.3,0.1,0.6,0.1,0.9c0,3.3,0,6.7,0,10
		c0,0.8,0.2,1.1,1.1,1.1c1.6,0,3.2-0.1,4.8,0.1c0.1,0,0.2,0.1,0.4,0.1c0,1.7-0.1,3.4-0.1,5.1c0,0.6,0.3,0.9,0.9,0.9
		c1.4,0,2.8,0,4.1,0c0.8,0,1-0.3,1-1.1c0-1.6,0-3.2,0-4.9c0-0.1,0.1-0.1,0.1-0.1c2-0.1,4-0.1,6.1,0c0,0,0,0,0,0
		c0,1.6,0.1,3.2,0.1,4.7c0,1.3,0,1.3,1.4,1.3c1.6,0,3.2,0,4.7,0.1c0,0,0,0,0,0c0,0.3,0.1,0.6,0.1,0.9c0,5.4,0,10.8,0,16.2
		c0,1,0.3,1.3,1.3,1.3c1.6,0,3.3-0.2,4.9,0.1c0,0,0,0,0,0c0,3.7,0.1,7.4,0,11.1c0,0.9,0.3,1.2,1.2,1.2c1.7,0,3.3,0,5,0l0,0
		c0,0.2,0,0.3,0,0.5c-1.6-0.4-3.3-0.1-4.9-0.2c-1.4,0-1.5-0.1-1.5-1.4c0-3.3,0-6.6,0-9.9c0-0.8-0.2-1.1-1-1c-1.3,0-2.5,0-3.8,0
		c-1,0.1-1.4-0.3-1.4-1.3c0-5.3,0-10.6,0-15.9c0-1-0.2-1.3-1.2-1.3c-1.4,0-2.8,0.1-4.1-0.1c-0.6-0.1-0.8-0.4-0.8-1
		c0-1.4,0-2.9,0-4.3c0-0.6-0.2-0.9-0.9-0.9c-1.3,0-2.7,0-4,0c-0.6,0-0.9,0.2-0.8,0.9c0.1,1.4,0.1,2.8,0.1,4.1c0,0.7-0.3,1.2-1.1,1.2
		c-1.6,0.1-3.2,0.1-4.8,0c-0.7-0.1-0.9-0.4-0.9-1c0-1.4,0-2.8,0-4.2c0-0.7-0.2-0.9-0.9-0.9c-1.4,0-2.8,0-4.1,0
		c-0.9,0-1.2-0.3-1.1-1.2c0-3.4,0-6.7,0-10.1c0-0.9-0.2-1.1-1.1-1.1c-1.3,0.1-2.7,0-4,0c-0.9,0-1.1-0.3-1.1-1.1c0-1.4,0-2.8,0-4.1
		c0-0.7-0.2-0.9-0.9-0.9c-7.5,0-14.9,0-22.4,0c-0.8,0-1,0.3-0.9,1c0.1,1.3,0,2.7,0,4c0,0.9-0.3,1.2-1.2,1.1c-1.3-0.1-2.5,0-3.8,0
		c-0.9,0-1.3,0.2-1.2,1.2c0.1,1.3,0,2.6,0,3.9c0,0.9-0.3,1.1-1.1,1.1c-3.4,0-6.7,0-10.1,0c-1,0-1.2,0.2-1.2,1.3
		c0.1,5.4,0,10.9,0.1,16.3c0,0.8-0.5,1-1.1,1c-1.3,0-2.7,0-4,0c-0.8,0-1.1,0.2-1.1,1.1c0.1,1.3,0,2.7,0.1,4c0,0.8-0.4,1.1-1.1,1.1
		c-1.4,0-2.8,0-4.1,0c-0.8,0-1,0.1-1,1c0.1,1.4,0.1,2.8,0.1,4.1c0,0.7-0.3,1-1,1c-3.6,0-7.2,0-10.8,0c-0.9,0-1-0.5-1-1.2
		c0-5.3,0-10.7,0-16c0-1.1-0.3-1.3-1.3-1.3c-1.3,0-2.6,0.1-3.9-0.1c-0.7-0.1-1-0.4-1-1.1c0-1.4,0-2.8,0-4.1c0-0.7-0.3-1-1-1
		c-1.2,0-2.4,0-3.6,0c-0.9,0-1.2,0.2-1.2,1.2c0.1,1.3,0,2.7,0,4c0,0.6-0.1,1-0.8,1c-1.7,0.1-3.3,0.1-5,0c-0.7,0-0.8-0.4-0.8-1
		c0-1.4,0-2.8,0-4.2c0-0.7-0.3-1-1-1c-1.4,0-2.8,0-4.1,0c-0.8,0-1.2-0.3-1.2-1.1c0-3.4,0-6.9,0.1-10.3c0-0.7-0.2-1-0.9-1
		c-1.4,0-2.8,0-4.2,0c-0.8,0-1.2-0.3-1.2-1.1c0-1.2,0-2.5,0-3.7c0.1-1.3,0.1-1.3-1.3-1.3c-3,0-6,0-9,0c-4.2,0-8.5,0-12.7,0
		c-0.9,0-1.2,0.2-1.1,1.2c0.1,1.3,0,2.6,0.1,3.9c0,0.8-0.2,1.1-1,1.1c-1.4,0-2.8,0-4.2,0c-0.8,0-1,0.2-0.9,1.1c0.1,1.3,0,2.7,0.1,4
		c0,0.8-0.3,1.1-1.1,1.1c-3.4,0-6.7,0-10.1,0c-1,0-1.2,0.2-1.2,1.3c0.1,4.1,0.1,8.3,0.1,12.4c0,1.2,0,2.4,0,3.6
		c0,0.9-0.3,1.4-1.3,1.3c-1.4,0-2.8,0-4.1,0c-0.6,0-0.9,0.2-0.9,0.9c0,1.4,0,2.8,0,4.2c0,0.8-0.3,1.1-1.1,1.1c-1.3,0-2.7,0-4,0
		c-0.8,0-1.1,0.2-1.1,1.1c0.1,1.3,0,2.6,0,3.9c0,0.9-0.3,1.2-1.2,1.2c-3.5,0-7,0-10.5,0c-0.9,0-1.1-0.4-1.1-1.2c0-5.3,0-10.7,0-16
		c0-1.1-0.3-1.3-1.3-1.3c-1.3,0.1-2.6,0-3.9,0c-0.8,0-1.1-0.4-1.1-1.1c0-1.4,0-2.8,0.1-4.1c0.1-0.7-0.2-1-0.9-1c-1.3,0-2.7,0-4,0
		c-0.7,0-0.8,0.3-0.8,0.9c0,1.4,0,2.8,0,4.1c0,0.7-0.2,1.1-1,1.2c-1.7,0.1-3.3,0.1-5,0c-0.5-0.1-0.8-0.3-0.8-0.8c0-1.3,0-2.7,0-4
		c0-0.1,0-0.3,0.2-0.2c0.2,1.2,0.1,2.4,0.1,3.7c0,0.7,0.2,1.1,1,1.1c1.4,0,2.8,0,4.1,0c0.7,0,1-0.3,1-1c0-1.7,0-3.4,0-5.1
		c0,0,0,0,0,0c2-0.1,4-0.1,6.1,0c0.1,0,0.1,0.1,0.1,0.1c0,1.5,0.1,3.1,0,4.6c-0.1,1.1,0.3,1.3,1.3,1.3c1.5,0,3.1,0,4.6,0.1
		c0.1,0,0.1,0.1,0.1,0.1c0,0.4,0.1,0.8,0.1,1.3c0,5.3,0,10.7,0,16c0,0.6,0,1.1,0.8,1c3.5,0,7.1,0,10.6,0c0.5,0,0.8-0.2,0.8-0.7
		c-0.1-1.8,0.1-3.5-0.1-5.3c0.1,0,0.2-0.1,0.3-0.1c1.6,0,3.3-0.1,4.9,0c0.8,0,1-0.3,1-1c0-1.6,0-3.3,0-4.9c0-0.1,0.1-0.1,0.1-0.1
		c1.6,0,3.3-0.1,4.9,0c0.8,0,1.1-0.2,1.1-1.1c0-3.3,0-6.6,0-10c0-2.4,0-4.8,0.1-7.2c0,0,0.1-0.1,0.1-0.1c0.4,0,0.8-0.1,1.2-0.1
		c3.3,0,6.6,0,9.9,0c0.9,0,1.2-0.3,1.1-1.2c-0.1-1.6,0-3.2,0-4.8c0-0.1,0.1-0.1,0.1-0.1c1.7-0.2,3.3-0.1,5-0.1c0.8,0,1.1-0.3,1-1.1
		c0-1.7,0-3.4,0-5.1c0,0,0,0,0,0c3.3,0,6.6,0,10,0c4.9,0,9.9,0,14.8,0c0,0,0,0,0,0c0,1.7,0.1,3.3,0,5c0,0.9,0.2,1.2,1.1,1.2
		c1.6,0,3.2-0.2,4.8,0.1c0.1,0.1,0.1,0.1,0.2,0.2c0,3.6,0.1,7.2,0,10.8c0,1.1,0.3,1.3,1.3,1.3c1.5,0,3.1-0.1,4.6,0.1
		c0,0,0.1,0.1,0.1,0.1c0.2,1.6,0.1,3.2,0.1,4.8c0,0.9,0.2,1.2,1.1,1.2c1.3-0.1,2.5-0.1,3.8,0c0.9,0,1.1-0.3,1.1-1.2
		C248.2,71,248.1,69.5,248.3,67.9z"/>
	<path class="st1" d="M106.3,185.2c-0.4-0.2-0.8-0.1-1.1-0.1c-5.3,0-10.6,0-15.9,0c-0.4,0-0.8-0.1-1.1-0.1c-0.1,0-0.1-0.1-0.2-0.1
		c-0.2-1.5-0.1-3.1-0.1-4.6c0-1-0.3-1.3-1.3-1.3c-3.6,0-7.2,0-10.8,0c-0.1-0.1-0.1-0.1-0.2-0.2c-0.2-1.6-0.1-3.2-0.1-4.8
		c0-0.9-0.3-1.2-1.1-1.2c-1.7,0-3.4,0.2-5-0.1l0,0c0-1.6-0.1-3.2,0-4.8c0.1-1-0.3-1.3-1.3-1.3c-5.1,0-10.2,0-15.3,0
		c-0.6,0-1.3-0.1-1.9-0.1l0,0c0-3.7-0.1-7.3,0-11c0-1-0.2-1.3-1.2-1.3c-1.7,0-3.3,0-5,0c0,0,0,0,0,0c0-1.7,0-3.4,0-5.1
		c0-0.7-0.2-1-1-1c-1.7,0-3.4,0-5.1,0c0,0,0,0,0,0c-0.3-1.7-0.2-3.4-0.1-5c0-1-0.3-1.2-1.2-1.2c-1.6,0-3.2,0.2-4.8-0.1
		c-0.1-0.1-0.1-0.1-0.2-0.2c0-1.6-0.1-3.2,0-4.7c0-0.9-0.3-1.2-1.1-1.2c-1.6,0-3.2,0.2-4.8-0.1c-0.1-0.1-0.1-0.1-0.2-0.2
		c-0.1-4-0.1-8,0-12c0-0.1,0.1-0.2,0.1-0.3c0.5,0,1.1,0.1,1.6,0.1c3.4,0,6.8,0,10.3,0.1c0.6,0,0.5-0.4,0.5-0.8c0-1.6,0-3.1,0-4.7
		c0-0.2,0.2-0.7-0.3-0.7c0,0,0,0.1-0.1,0.1c0.4-0.4,0.2-1,0.2-1.5c0.1-0.8,0-1.5,0-2.3c0-1-0.3-2,0.8-2.7c1.7,0,3.3,0,5,0
		c0.1,0.1,0.1,0.2,0.2,0.2c0.2,0,0.2-0.1,0.2-0.3c0-2,0.1-3.9,0.1-5.9c0,0,0,0,0,0c1.7,0,3.4-0.1,5.2-0.1c0.8,0,1-0.3,1-1.1
		c0-1.7,0-3.4,0-5.1c0,0,0,0,0,0c0.5,0,1-0.1,1.5-0.1c5.2,0,10.5,0,15.7,0c1,0,1.4-0.3,1.3-1.4c-0.1-1.6,0-3.2,0-4.8l0,0
		c1.6-0.2,3.2-0.1,4.7-0.1c1.4,0,1.4,0,1.4-1.4c0-1.5-0.1-3.1,0.1-4.6c0.1-0.1,0.1-0.1,0.2-0.2c1.5,0,3,0,4.4,0c1.5,0,1.5,0,1.5-1.4
		c0-1.5-0.1-3,0.1-4.5c0,0,0.1-0.1,0.1-0.1c1.6,0,3.2-0.1,4.8,0c0.8,0,1.2-0.2,1.2-1.1c0-5.4,0-10.8,0-16.2c0-0.3,0.1-0.6,0.1-0.9
		c0.1-0.1,0.1-0.1,0.2-0.2c0.4,0,0.8-0.1,1.1-0.1c3.3,0,6.6,0,9.8,0c0.9,0,1.2-0.3,1.1-1.2c0-1.6,0-3.2,0-4.7
		c0.1-0.1,0.1-0.1,0.2-0.2c1.5-0.2,2.9-0.1,4.4-0.1c1.6,0,1.6,0,1.6-1.7c0-1.5-0.2-3,0.1-4.5c0,0,0,0,0,0c8.2,0,16.4,0,24.6,0
		c0,0,0,0,0,0c0,0.2,0,0.3,0,0.5c-0.5-0.2-0.9-0.2-1.4-0.2c-7.2,0-14.4,0-21.6,0c-1.4,0-1.3,0-1.3,1.4c0.1,1.3,0,2.5,0,3.8
		c0,0.7-0.3,1-1.1,1c-1.4,0-2.8,0-4.2,0c-0.7,0-1,0.3-1,1c0,1.3,0,2.7,0,4c0,0.9-0.3,1.2-1.1,1.2c-3.3,0-6.6,0-10,0
		c-1,0-1.3,0.3-1.3,1.3c0,5.3,0,10.7,0,16c0,1-0.3,1.4-1.3,1.3c-1.3-0.1-2.5,0-3.8,0c-0.8,0-1.1,0.2-1,1c0.1,1.3,0,2.7,0,4
		c0,0.8-0.3,1.1-1.1,1.1c-1.4,0-2.8,0-4.1,0c-0.7,0-0.9,0.2-0.9,0.9c0,1.2,0,2.5,0,3.7c0,1.5,0,1.5-1.6,1.5c-1.2,0-2.4,0-3.6,0
		c-0.8,0-1,0.3-1,1.1c0.1,1.2,0,2.5,0,3.7c0,1.3-0.1,1.4-1.4,1.4c-5.2,0-10.3,0-15.5,0c-1.6,0-1.6,0-1.6,1.6c0,1.1,0,2.3,0,3.4
		c0,0.9-0.3,1.2-1.2,1.2c-1.4,0-2.8,0-4.1,0c-0.7,0-1,0.2-0.9,1c0.1,1.4,0,2.8,0.1,4.1c0,0.8-0.4,1.1-1.1,1c-1.4,0-2.8,0-4.1,0
		c-0.9,0-1.1,0.3-1.1,1.2c0.1,3.3,0.1,6.6,0.2,9.8c0,1-0.3,1.4-1.3,1.3c-3.3-0.1-6.6,0-9.9,0c-0.9,0-1.2,0.1-1.2,1.2
		c0.1,3.2,0.1,6.4,0,9.6c0,0.8,0.2,1,0.9,1c1.4,0,2.8,0,4.2,0c0.8,0,1.1,0.3,1.1,1.1c0,1.4,0,2.8-0.1,4.1c0,0.7,0.2,1,0.9,1
		c1.4,0,2.8,0,4.1,0c0.9,0,1.3,0.3,1.3,1.2c-0.1,1.4,0,2.8-0.1,4.1c0,0.7,0.3,0.8,0.9,0.8c1.4,0,2.8,0,4.1,0c0.8,0,1.2,0.3,1.2,1.2
		c-0.1,1.4,0,2.8-0.1,4.1c0,0.7,0.2,0.9,0.8,0.9c1.4,0,2.8,0,4.1,0c1,0,1.3,0.4,1.3,1.3c0,3.2,0,6.4,0,9.7c0,1.4,0,1.4,1.4,1.4
		c5.2,0,10.5,0,15.7,0c1.3,0,1.4,0.1,1.4,1.4c0,1.2,0,2.4,0,3.6c-0.1,0.9,0.2,1.2,1.1,1.2c1.2-0.1,2.4,0,3.6,0
		c1.4,0,1.5,0.1,1.5,1.5c0,1.2,0.1,2.3,0,3.5c-0.1,0.9,0.2,1.2,1.1,1.2c3.3,0,6.6,0,9.9,0c1.3,0,1.4,0,1.4,1.4c0,1.3,0,2.5,0,3.8
		c0,0.7,0.2,1,0.9,1c5.4,0,10.9,0,16.3,0c0.6,0,0.9-0.3,0.8-0.9c0-1.3,0-2.7,0-4c0-0.9,0.4-1.3,1.3-1.2c1.3,0,2.7,0,4,0
		c0.7,0,0.9-0.2,0.9-0.9c0-1.3,0-2.7,0-4c0-0.8,0.3-1.2,1.2-1.2c1.4,0,2.9,0,4.3,0c0.8,0,1.2,0.3,1.2,1.2c0,1.2,0.1,2.5,0,3.7
		c-0.2,1.1,0.3,1.3,1.3,1.3c3.2,0,6.4,0,9.5,0c1.5,0,1.5,0.1,1.5,1.6c0,1.1,0.1,2.2,0,3.3c-0.1,1,0.2,1.3,1.3,1.3
		c5.9,0,11.8,0,17.7,0c1.4,0,2.9,0,4.3,0c0.7,0,0.9-0.2,0.8-1c-0.1-1.3,0-2.6-0.1-3.9c0-0.9,0.3-1.3,1.3-1.3c3.3,0,6.6,0,9.9,0
		c0.9,0,1.4-0.2,1.3-1.2c-0.1-1.3,0-2.5,0-3.8c0-0.8,0.3-1.2,1.1-1.1c1.5,0,3,0,4.5,0c0.3,0,0.6,0,0.9,0.2c0,0,0,0.1,0,0.1
		c0,0-0.1,0.1-0.2,0.1c-1.6,0-3.2,0-4.8-0.1c-0.9,0-1.2,0.2-1.1,1.1c0,1.6,0.1,3.2-0.1,4.8c0,0.1-0.1,0.1-0.1,0.1
		c-3.6,0-7.3,0.1-10.9,0c-0.9,0-1.3,0.2-1.2,1.2c0.1,1.6,0,3.2,0,4.8c0,0.1-0.1,0.1-0.1,0.1c-8.2,0.1-16.3,0.1-24.5,0
		c-0.1,0-0.1-0.1-0.1-0.1c0-1.5,0-3,0-4.5c0-1.4,0-1.4-1.4-1.4c-3.6,0-7.2,0-10.8-0.1c-0.1,0-0.1-0.1-0.1-0.1c0-1.7,0-3.3,0-5
		c0-0.7-0.2-1-1-1c-1.3,0-2.7,0-4,0c-0.9,0-1.1,0.3-1.1,1.1c0,1.7,0,3.3,0,5c0,0,0,0,0,0c-1.7,0-3.3,0.1-5,0c-0.9,0-1.2,0.3-1.2,1.2
		c0.1,1.6,0,3.2,0,4.9C106.4,185.1,106.3,185.1,106.3,185.2z"/>
	<path d="M352.7,191.2c-0.7,0-1.4-0.1-2.1-0.1c-7,0-14,0-20.9,0c-0.2,0-0.5,0-0.7,0c-0.2-0.1-0.5-0.3-0.4-0.5
		c0.1-1.9-0.2-3.8,0.2-5.6c0.3,0,0.6,0.1,0.8,0.1c7.6,0,15.2,0,22.7,0c0.3,0,0.6-0.1,0.9-0.1c0,1.7,0,3.4,0,5.1
		C353.2,190.6,353.2,191,352.7,191.2z"/>
	<path class="st1" d="M303.8,79.9c1.7,0,3.5,0,5.2,0c0.9,0,1.2,0.4,1.2,1.3c0,1.3,0,2.7,0,4c0,0.9-0.3,1.2-1.3,1.2
		c-3.3,0-6.6,0-10,0c-1,0-1.3,0.3-1.3,1.3c0.1,1.3,0,2.6,0,3.9c0,0.7-0.3,1-1,1c-1.5,0-3,0-4.4,0c-0.7,0-1-0.3-1-1
		c0-1.4,0-2.9,0-4.3c0-0.9,0.4-1.2,1.2-1.2c1.3,0,2.7,0,4,0c0.7,0,1-0.3,1-1c0-1.3,0-2.5,0-3.8c0-1,0.3-1.4,1.3-1.4
		C300.5,79.9,302.2,79.9,303.8,79.9z"/>
	<path class="st1" d="M353.2,185c-0.3,0-0.6,0.1-0.9,0.1c-7.6,0-15.2,0-22.7,0c-0.3,0-0.6-0.1-0.8-0.1c-0.1,0-0.1-0.1-0.2-0.1
		c-0.2-1.5-0.1-3-0.1-4.5c0-1.4,0-1.4-1.4-1.4c-3.6,0-7.1,0-10.7-0.1c-0.1,0-0.2-0.1-0.3-0.1c0-1.7,0-3.4,0.1-5.1
		c0-0.7-0.3-0.9-0.9-0.9c-1.4,0-2.7,0-4.1,0c-0.8,0-1,0.3-1,1c0,1.7,0,3.3,0,5c0,0.1-0.1,0.1-0.1,0.1c-1.5,0-3.1,0-4.6,0.1
		c-1.4,0-1.4,0-1.4,1.3c0,1.5,0,3.1,0,4.6c0,0.1-0.1,0.2-0.1,0.3c-0.4,0-0.8-0.1-1.2-0.1c-5.4,0-10.7,0-16.1,0
		c-0.4,0-0.8,0.1-1.2,0.1c0-0.1-0.1-0.2-0.1-0.3c0-1.5,0-3,0-4.5c0-1.4,0-1.4-1.4-1.4c-3.6,0-7.2,0-10.8-0.1c-0.1,0-0.1-0.1-0.1-0.1
		c0-1.7-0.1-3.3,0-5c0-0.7-0.2-1-1-1c-1.4,0-2.8,0-4.1,0c-0.8,0-1,0.3-1,1c0,1.7,0,3.4,0,5.1c0,0.1-0.1,0.1-0.1,0.2
		c-0.1,0-0.3-0.1-0.4-0.1c-3.6,0-7.3,0-10.9,0c-0.7,0-0.9,0.3-0.9,1c0,1.7,0.1,3.3-0.1,5c-0.1,0.1-0.1,0.1-0.2,0.2
		c-0.1,0-0.3,0.1-0.4,0.1c-7.8,0-15.6,0-23.5,0c-0.2,0-0.4,0-0.6-0.1c0,0,0,0,0,0c0-1.5-0.1-3-0.1-4.5c0-1.5,0-1.5-1.6-1.5
		c-3.6,0-7.1,0-10.7-0.1c0,0,0,0,0,0c-0.2-1.7-0.1-3.4-0.1-5.1c0-0.8-0.3-1.1-1-1c-1.3,0-2.7,0-4,0c-0.8,0-1.1,0.3-1,1.1
		c0,1.3,0.1,2.5-0.1,3.8c-0.4,0-0.2-0.3-0.2-0.5c0-1.2,0-2.4,0-3.6c0-0.7,0.3-1.1,1.1-1.1c1.6,0,3.1,0,4.7,0c0.7,0,1,0.3,1,1
		c0,1.4,0,2.8,0,4.1c0,0.9,0.2,1.1,1.1,1.1c3.3,0,6.6,0,10,0c1,0,1.4,0.3,1.3,1.3c-0.1,1.3,0,2.6,0,3.9c0,0.7,0.2,0.9,0.9,0.9
		c7.4,0,14.8,0,22.3,0c0.9,0,1.1-0.3,1.1-1.2c-0.1-1.3,0-2.6,0-3.9c0-0.8,0.3-1.1,1.1-1.1c3.2,0,6.4,0,9.5,0c1.7,0,1.7,0,1.7-1.7
		c0-1.2,0-2.3,0-3.5c0-0.7,0.3-1.1,1-1.1c1.6,0,3.1,0,4.7,0c0.7,0,1,0.4,1,1c0,1.4,0.1,2.8-0.1,4.1c-0.1,0.9,0.2,1.1,1,1.1
		c3.3,0,6.6,0,9.9,0c1.5,0,1.5,0,1.5,1.5c0,1.2,0,2.5-0.1,3.7c-0.1,0.8,0.2,1,0.9,1c1.9,0,3.7,0,5.6,0c3.5,0,6.9,0,10.4,0
		c0.9,0,1.2-0.2,1.1-1.2c-0.2-1.3,0-2.7-0.1-4c0-0.7,0.3-0.9,1-0.9c1.4,0,2.8,0,4.2,0c0.8,0,1.1-0.3,1.1-1.1c-0.1-1.2,0-2.4-0.1-3.6
		c-0.1-1.3,0.2-1.5,1.5-1.6c1.3,0,2.7,0,4,0c0.8,0,1.2,0.3,1.2,1.2c-0.1,1.3,0,2.6,0,3.9c-0.1,0.9,0.3,1.1,1.1,1.1
		c0.7,0,1.5,0,2.2,0c2.6,0,5.2,0,7.7,0c1,0,1.4,0.4,1.3,1.4c-0.1,1.3,0,2.5,0,3.8c0,0.7,0.2,1,1,1c7.5,0,14.9,0,22.4,0
		c0.7,0,0.9-0.3,0.9-1c0-1.3,0-2.7,0-4c0-1,0.3-1.2,1.2-1.2c3.2,0,6.4,0,9.7,0c1.5,0,1.5,0,1.5-1.4c0-1.2,0-2.5,0-3.7
		c0-0.8,0.3-1.1,1-1.1c1.6,0,3.1,0,4.7,0c0.8,0,1.1,0.4,1,1.1c0,1.3,0,2.7,0,4c0,0.8,0.3,1.1,1,1.1c3.4,0,6.7,0,10.1,0
		c0.7,0,0.8-0.3,0.8-0.9c-0.1-1.5-0.1-3-0.1-4.4c0-0.2-0.1-1,0.5-0.3c0,0,0-0.1,0-0.1c-0.1,0-0.1,0-0.2-0.1c0,0.1,0,0.2,0,0.3
		c0,1.9,0,3.8,0,5.6c0,0.1-0.1,0.1-0.1,0.1c-4.1,0.1-8.1,0.1-12.2,0c-0.1,0-0.1-0.1-0.1-0.1c0-1.6,0-3.2,0-4.9
		c0-0.8-0.2-1.2-1.1-1.1c-1.3,0.1-2.6,0.1-3.9,0c-0.9,0-1.1,0.3-1.1,1.1c0.1,1.6,0,3.2,0,4.9c0,0.1-0.1,0.1-0.1,0.1
		c-3.6,0-7.1,0-10.7,0.1c-1.6,0-1.6,0-1.6,1.5C353.3,182,353.2,183.5,353.2,185C353.2,185,353.2,185,353.2,185z"/>
	<path class="st1" d="M106.5,80c1.7,0,3.5,0,5.2,0c0.8,0,1.1,0.2,1.1,1c0,1.3-0.1,2.7,0,4c0,1-0.3,1.4-1.3,1.4c-3.3,0-6.5,0-9.8,0
		c-1,0-1.3,0.2-1.3,1.2c0.1,1.3,0,2.5,0,3.8c0,0.8-0.3,1.1-1.1,1.1c-1.4,0-2.9,0-4.3,0c-0.8,0-1.1-0.4-1-1.1c0.2-1.4,0.1-2.7,0-4.1
		c-0.1-0.8,0.3-1.2,1.2-1.2c1.3,0.1,2.7,0,4,0c0.8,0,1.1-0.3,1-1.1c0-1.2,0-2.5,0-3.7c0-1.4,0-1.4,1.4-1.4
		C103.2,80,104.8,80,106.5,80z"/>
	<path class="st1" d="M137.4,83.2c0,3.2,0,3.2-3.1,3.2c-0.7,0-1.5,0-2.2,0c-0.8,0-1.1-0.2-1.1-1c0-1.4,0-2.8,0-4.1c0-0.7-0.3-1-1-1
		c-1.4,0-2.8,0-4.2,0c-0.7,0-0.9-0.3-0.9-0.9c0-1.6,0-3.1,0-4.7c0-0.7,0.3-0.9,1-0.9c1.5,0,3,0,4.5,0c0.7,0,1,0.3,1,1
		c0,1.3,0,2.7,0,4c0,0.9,0.3,1.2,1.2,1.1c1.3-0.1,2.6,0,3.9,0c0.8,0,1.2,0.3,1.1,1.1C137.3,81.7,137.4,82.5,137.4,83.2z"/>
	<path class="st1" d="M236.1,83.2c0,3.2,0,3.2-3.2,3.2c-0.7,0-1.4,0-2.1,0c-0.8,0-1.2-0.3-1.1-1.1c0-1.3,0-2.7,0-4
		c0-0.8-0.3-1.1-1-1c-1.3,0-2.6,0-3.9,0c-0.8,0-1.2-0.2-1.2-1.1c0-1.4,0-2.8,0-4.1c0-0.8,0.2-1.2,1.1-1.1c1.4,0.1,2.8,0.1,4.2,0
		c0.9,0,1.1,0.3,1.1,1.1c0,1.2,0,2.3,0,3.5c0,1.5,0,1.6,1.6,1.6c1.1,0,2.2,0.1,3.3,0c1.1-0.1,1.4,0.4,1.3,1.3
		C236,81.9,236.1,82.6,236.1,83.2z"/>
	<path class="st1" d="M402.6,141.6c-0.1,0.1-0.1,0.1-0.2,0.2c-1.6,0.3-3.2,0.1-4.8,0.1c-0.9,0-1.2,0.3-1.1,1.2
		c0.1,1.3,0.1,2.5,0,3.8c0,0.8,0.2,1.1,1,1.1c1.7,0,3.3,0,5,0c0.1,0,0.1,0.1,0.1,0.1c0.2,1.6,0.1,3.3,0.1,4.9c0,0.8,0.2,1.1,1,1.1
		c1.6,0,3.3,0,4.9,0c0.1,0,0.2,0.1,0.3,0.1c-0.2,1.9,0.1,3.8-0.2,5.6c0,1.5,0,2.9,0,4.4c0,2.5,0.4,2.2-2.2,2.2c-2.9,0-5.8,0-8.7,0
		c-0.4,0-0.9-0.2-1.1,0.3c-0.1,0.1-0.1,0.2-0.2,0.3c-0.3-0.1-0.3,0.2-0.4,0.4c0-1,0.1-1.1,1.1-1.1c3.4,0,6.8,0,10.2,0
		c0.9,0,1.2-0.2,1.1-1.1c-0.1-3.2-0.1-6.4,0-9.6c0-0.8-0.3-1-1.1-1c-1.3,0-2.7,0-4,0c-0.8,0-1.1-0.3-1.1-1.1c0-1.3,0-2.7,0-4
		c0-0.8-0.3-1.1-1-1c-1.3,0-2.7,0-4,0c-0.8,0-1.2-0.3-1.2-1.1c0-1.6,0-3.1,0-4.7c0-0.7,0.3-1,1.1-1c1.4,0,2.8,0,4.1,0
		c0.8,0,1.1-0.3,1.1-1.1c-0.1-1.2,0-2.3,0-3.5c0-1.5,0-1.5,1.5-1.5c1.2,0,2.5,0,3.7,0c0.7,0,1-0.3,1-1c0-5.4,0-10.7,0-16.1
		c0-0.7-0.2-1-0.9-0.9c-1.3,0-2.6,0-3.9,0c-0.8,0-1,0.3-0.9,1c0,1.3,0,2.7,0,4c0,0.8-0.2,1.2-1.1,1.1c-1.5-0.1-3,0-4.6,0
		c-0.8,0-1.1-0.3-1.1-1.1c0-1.4,0-2.8,0.1-4.1c0-0.7-0.2-1-0.9-1c-1.4,0-2.8,0-4.2,0c-0.8,0-1.2-0.3-1.2-1.1
		c0.1-5.5-0.1-11,0.1-16.5c0-0.6-0.2-0.9-0.8-0.8c-1.4,0-2.8,0-4.1,0c-0.7,0-0.9,0.3-0.8,0.9c0,1.4,0,2.9,0,4.3
		c0,0.7-0.3,0.9-0.9,0.9c-1.4,0-2.8,0-4.2,0c-0.8,0-1,0.3-1,1.1c0.1,1.4,0,2.8,0,4.1c0,0.7-0.3,1-1,1c-1.6,0-3.1,0-4.7,0
		c-0.8,0-1.1-0.3-1.1-1.1c0-1.2,0-2.5,0-3.7c0-0.2-0.1-0.4,0.2-0.5c0.2,1.3,0.1,2.5,0.1,3.8c0,0.9,0.3,1.2,1.2,1.1
		c1.3-0.1,2.6,0,3.9,0c0.8,0,1-0.3,1-1.1c0-1.7,0-3.4,0-5.1l0,0c1.6,0,3.2-0.1,4.9,0c1,0,1.3-0.3,1.3-1.3c-0.1-1.6,0-3.2,0-4.9l0,0
		c2.1-0.1,4.2-0.1,6.2,0c0,0,0,0,0,0c0,0.2,0.1,0.5,0.1,0.7c0,5.4,0,10.9,0,16.3c0,1.4,0,1.4,1.4,1.4c1.5,0,3-0.1,4.5,0.1
		c0.1,0.1,0.1,0.1,0.2,0.2c0,1.6,0.1,3.2,0,4.9c0,0.8,0.3,1.1,1,1c1.3,0,2.6,0,3.9,0c0.8,0,1.1-0.2,1.1-1.1c-0.1-1.7,0-3.4,0-5.1
		l0,0c2,0,4.1-0.2,6.1,0.1c0.1,0.1,0.1,0.1,0.2,0.2c0,0.3,0.1,0.6,0.1,0.9c0,5.4,0,10.8,0,16.2c0,0.3-0.1,0.6-0.1,0.9
		c-0.1,0.1-0.1,0.1-0.2,0.2c-1.6,0.2-3.2,0.1-4.8,0.1c-0.9,0-1.1,0.3-1.1,1.2C402.6,138.4,402.7,140,402.6,141.6z"/>
	<path d="M137.2,55.5c1.8-0.3,3.7-0.1,5.5-0.1c0.7,0,0.8,0.4,0.8,1c0,3.6,0,7.2,0,10.8c0,0.2-0.1,0.4,0.2,0.4c0,0,0,0,0,0
		c-0.2-0.1-0.3,0-0.3,0.1c-1.5-0.2-3.1-0.1-4.6-0.1c-1.4,0-1.4,0-1.4-1.4c0-3.2,0.1-6.5-0.1-9.7c0-0.3,0-0.5,0-0.8
		c0,0,0.1,0,0.1-0.1C137.3,55.6,137.2,55.6,137.2,55.5z"/>
	<path d="M186.6,184.9c-2.6,0.2-5.3,0.1-7.9,0.1c-1.2,0-2.4,0-3.6,0c-0.4,0-0.8-0.1-0.8-0.6c0.1-1.9-0.2-3.7,0.1-5.6
		c3.5,0.2,7,0,10.6,0.1c0.4,0,0.8,0.2,1.1-0.1c0.3,0.1,0.5,0.3,0.6,0.6c-0.2,1.4-0.2,2.9,0,4.3c-0.1,0.3-0.1,0.6,0,0.9
		C186.4,184.6,186.6,184.8,186.6,184.9z"/>
	<path class="st1" d="M205,86.3c-1.7,0-3.4,0-5.1,0c-0.7,0-1-0.2-1-1c0-1.4,0-2.8,0-4.2c0-0.7,0.3-1,1-1c3.4,0,6.9,0,10.3,0
		c0.8,0,1.1,0.3,1.1,1.1c0,1.3,0,2.6,0,3.9c0,0.9-0.4,1.2-1.3,1.2C208.4,86.2,206.7,86.3,205,86.3C205,86.3,205,86.3,205,86.3z"/>
	<path d="M353.2,185c0-1.5,0.1-3,0.1-4.5c0-1.5,0-1.5,1.6-1.5c3.6,0,7.1,0,10.7-0.1c0,1.8,0,3.5,0.1,5.3c0,0.8-0.5,0.9-1.1,0.9
		C360.7,185,357,185,353.2,185z"/>
	<path d="M371.7,178.9c4.1,0.1,8.1,0.1,12.2,0c0,1.8,0.1,3.6,0.1,5.4c0,0.5-0.3,0.7-0.8,0.7c-3.6,0-7.2,0-10.8,0
		c-0.6,0-0.8-0.3-0.8-0.9C371.7,182.4,371.7,180.6,371.7,178.9z"/>
	<path d="M396.6,167c0.1-0.1,0.2-0.2,0.2-0.3c3.6,0,7.2,0,10.8,0c0.9,0,1.2,0.2,1.1,1.2c-0.1,1.2,0,2.5,0,3.7c0,0.7-0.1,1.1-0.9,1.1
		c-3.5,0-6.9,0-10.4,0c-0.6,0-0.9-0.2-0.9-0.8C396.6,170.2,396.6,168.6,396.6,167z"/>
	<path d="M384.1,178.7c0-1.9,0-3.8,0-5.6c0.1,0,0.2-0.1,0.1-0.2c0,0,0,0.1,0,0.1c2-0.2,3.9-0.1,5.9-0.1c1.7,0,3.5,0,5.2,0
		c0.8,0,1,0.3,1,1.1c-0.1,1.3,0,2.6,0,3.9c0,0.5,0,1-0.8,1C391.8,178.8,387.9,178.9,384.1,178.7z"/>
	<path d="M131,49.7c0-0.2,0-0.3,0-0.5c1.7,0,3.4,0.1,5,0c0.9,0,1.2,0.3,1.2,1.2c-0.1,1.7-0.1,3.4-0.1,5c-1.7-0.3-3.3-0.1-5-0.1
		c-0.8,0-1-0.3-1-1.1c0-1.3,0.2-2.6-0.1-3.9C131,50.2,131,49.9,131,49.7z"/>
	<path d="M377.9,104.7c0,1.7-0.1,3.4,0,5.1c0,0.8-0.2,1.1-1,1.1c-1.3,0-2.6-0.1-3.9,0c-0.9,0-1.2-0.3-1.2-1.1c0-1.3,0.1-2.5-0.1-3.8
		c0-0.2,0-0.5,0-0.7c0-0.2,0-0.3,0-0.5C373.7,104.7,375.8,104.7,377.9,104.7z"/>
	<path d="M149.6,67.7c0,1.7-0.1,3.4,0,5.1c0,0.7-0.2,1-1,1c-1.4,0-2.8,0-4.1,0c-0.8,0-1-0.3-1-1.1c0-1.2,0.1-2.5-0.1-3.7
		c0.1-0.3,0.1-0.7,0-1c0.1-0.1,0.1-0.2,0-0.3c0.2,0,0.4,0.2,0.3-0.2c0,0,0,0,0,0c0.9,0.3,1.8,0,2.8,0.1
		C147.4,67.8,148.5,67.7,149.6,67.7z"/>
	<path d="M211.2,177.6c0.2-1.3,0.1-2.5,0.1-3.8c0-0.8,0.3-1.1,1-1.1c1.3,0,2.7,0,4,0c0.8,0,1.1,0.3,1,1c0,1.7-0.1,3.4,0.1,5.1
		c-2.1,0-4.1,0-6.2,0c0-0.2,0.2-0.3,0-0.5C211.2,178.1,211.2,177.8,211.2,177.6z"/>
	<path d="M168.1,178.7c0.2-1.6,0.1-3.2,0.1-4.8c0-0.9,0.3-1.2,1.1-1.1c1.6,0.1,3.2,0,4.8,0.1c0.3,1.3,0.1,2.6,0.1,3.9
		c0,0.6-0.1,1.2,0.1,1.8c-0.2,0.1-0.1,0.2-0.1,0.3C172.2,178.9,170.2,178.9,168.1,178.7z"/>
	<path d="M408.7,159.8c0.3-1.9,0-3.8,0.2-5.6c1.7,0,3.4,0,5,0c0.4,0,0.7,0,0.9,0.4c0,1.8,0,3.6,0,5.5c-0.2,0.3-0.6,0.4-0.9,0.4
		c-1.4,0-2.8,0-4.2,0C409.2,160.4,409.1,159.9,408.7,159.8z"/>
	<path d="M365.6,178.7c0-1.6,0-3.2,0-4.9c0-0.8,0.2-1.2,1.1-1.1c1.3,0.1,2.6,0.1,3.9,0c0.9,0,1.1,0.3,1.1,1.1c-0.1,1.6,0,3.2,0,4.9
		C369.6,178.9,367.6,178.9,365.6,178.7z"/>
	<path class="st1" d="M198.9,89.3c0,0.6,0,1.2,0,1.8c0.1,0.9-0.2,1.2-1.1,1.2c-1.3-0.1-2.5,0-3.8,0c-0.8,0-1.2-0.2-1.1-1.1
		c0.1-1.3,0.1-2.6,0-3.9c-0.1-0.8,0.3-1.1,1.1-1c1.3,0.1,2.6,0.1,3.9,0c0.7-0.1,1.1,0.1,1,0.9C198.8,87.9,198.9,88.6,198.9,89.3z"/>
	<path class="st1" d="M325.4,74.1c0.7,0,1.5,0,2.2,0c0.5,0,0.8,0.3,0.8,0.8c-0.2,1.4-0.1,2.8-0.1,4.1c0,0.7-0.3,1-1,1
		c-1.3,0-2.7,0-4,0c-0.8,0-1-0.4-0.9-1.1c0.2-1.3,0.2-2.5,0-3.8c-0.1-0.8,0.2-1.1,1-1.1C324.1,74.1,324.8,74.1,325.4,74.1z"/>
	<path class="st1" d="M331.6,80.2c0.7,0,1.4,0,2.1,0c0.7,0,1,0.3,0.9,1c-0.2,1.3-0.2,2.6,0,3.9c0.1,0.7-0.1,1.1-0.9,1.1
		c-1.4,0-2.8,0-4.1,0c-0.6,0-1.1-0.3-1-1c0.2-1.3,0.1-2.7,0.1-4c0-0.7,0.3-1,1-1C330.3,80.3,330.9,80.2,331.6,80.2
		C331.6,80.2,331.6,80.2,331.6,80.2z"/>
	<path class="st1" d="M211.2,178.3c0.2,0.2,0,0.3,0,0.5c0,0,0,0,0,0c-1.7,0-3.4,0.1-5,0c-0.8,0-1.1,0.3-1,1c0,1.7,0.1,3.4-0.1,5
		c0,0,0,0,0,0c-4.6,0-9.3,0.1-13.9,0.1c-1.5,0-3,0-4.4-0.1c-0.1,0-0.1-0.1-0.1-0.1c0-0.1-0.2-0.2,0.1-0.2c0.4,0.2,0.8,0.2,1.2,0.2
		c5.3,0,10.5,0,15.8,0c1,0,1.3-0.2,1.2-1.3c-0.1-1.3,0-2.7,0-4c0-0.6,0.3-0.9,0.9-0.9c1.1,0,2.3,0,3.4,0
		C209.8,178.7,210.6,178.6,211.2,178.3z"/>
	<path class="st1" d="M143.3,67.8c0.1,0.1,0.1,0.2,0,0.3c-1.8-0.2-3.6-0.1-5.3-0.1c-0.6,0-1-0.1-1-0.9c0-3.4,0-6.9,0-10.3
		c0-0.1,0-0.1,0.1-0.2c0,0,0.1,0,0.2,0c0.2,3.2,0.1,6.5,0.1,9.7c0,1.4,0,1.4,1.4,1.4C140.3,67.7,141.8,67.5,143.3,67.8
		C143.3,67.7,143.3,67.8,143.3,67.8z"/>
	<path class="st1" d="M174.3,178.7c0-0.1-0.1-0.2,0.1-0.3c0.4,0.2,0.9,0.2,1.3,0.2c3.1,0,6.3,0,9.4,0c0.3,0,0.7-0.2,1,0.2
		c-0.3,0.3-0.7,0.1-1.1,0.1c-3.5,0-7,0.1-10.6-0.1C174.3,178.8,174.3,178.8,174.3,178.7z"/>
	<path class="st1" d="M131,50.4c0.2,1.3,0.1,2.6,0.1,3.9c0,0.8,0.3,1,1,1.1c1.7,0,3.4-0.2,5,0.1c0,0,0,0.1,0,0.1
		c0,0.1,0.1,0.1,0.1,0.2c0,0-0.1,0-0.1,0.1c-1.7-0.3-3.4-0.1-5.2-0.1c-0.9,0-1.3-0.3-1.2-1.2c0.1-1.3,0.1-2.7,0.1-4
		C130.9,50.4,130.9,50.4,131,50.4C131,50.4,131,50.4,131,50.4z"/>
	<path class="st1" d="M186.6,183.7c-0.2-1.4-0.2-2.9,0-4.3C186.9,180.8,186.9,182.3,186.6,183.7z"/>
	<path d="M229.8,49.2c-4.9,0-9.9,0-14.8,0c-3.3,0-6.6,0-10,0c0-1.7,0.1-3.4,0.1-5c0-0.8,0.3-1.1,1.1-1.1c7.5,0,15,0,22.6,0
		c0.8,0,1.1,0.3,1.1,1.1C229.8,45.8,229.8,47.5,229.8,49.2z"/>
	<path d="M131.1,49.2c-8.2,0-16.4,0-24.6,0c0-1.8-0.1-3.5-0.1-5.3c0-0.7,0.4-0.9,1-0.9c1.4,0,2.8,0,4.2,0c6,0,12,0,18,0
		c1.4,0,1.4,0,1.4,1.5C131.1,46.1,131.1,47.6,131.1,49.2z"/>
	<path d="M328.5,49c-0.3,0.3-0.7,0.1-1.1,0.1c-7.9,0-15.7,0-23.6,0c0-1.7,0-3.4,0-5.1c0-0.8,0.3-1.1,1-1.1c7.6,0,15.1,0,22.7,0
		c0.7,0,1.1,0.2,1.1,1C328.5,45.6,328.5,47.3,328.5,49z"/>
	<path d="M174.1,86.3c0.3,1.8,0,3.5,0.1,5.3c0,0.5-0.3,0.7-0.8,0.7c-3.5,0-7.1,0-10.6,0c-0.8,0-0.8-0.5-0.8-1c0-5.3,0-10.7,0-16
		c0-0.4-0.1-0.8-0.1-1.3c1.8-0.2,3.7-0.1,5.5-0.1c0.6,0,0.7,0.4,0.7,0.9c0,3.4,0,6.8-0.1,10.1c0,1,0.3,1.3,1.2,1.3
		C170.9,86.2,172.5,86.3,174.1,86.3z"/>
	<path d="M272.9,86.3c0,1.6-0.1,3.2,0,4.9c0,0.8-0.2,1.2-1.1,1.1c-3.4,0-6.8,0-10.2,0c-0.6,0-1-0.1-1-0.9c0-5.7,0-11.5,0.1-17.2
		c0-0.1,0-0.1,0-0.2c1.7-0.2,3.5,0,5.2-0.1c0.7,0,0.9,0.4,0.9,1c0,3.4,0,6.7-0.1,10.1c0,1,0.3,1.3,1.3,1.3
		C269.7,86.2,271.3,86.3,272.9,86.3z"/>
	<path d="M50.9,166.5c0.6,0,1.3,0.1,1.9,0.1c5.1,0,10.2,0,15.3,0c1,0,1.4,0.3,1.3,1.3c-0.1,1.6,0,3.2,0,4.8c-5.8,0-11.6,0-17.4,0
		c-0.8,0-1.1-0.2-1.1-1C50.9,169.9,50.9,168.2,50.9,166.5z"/>
	<path d="M365.5,92.4c-1.6-0.3-3.2-0.1-4.9-0.1c-1,0-1.3-0.2-1.3-1.3c0.1-5.4,0-10.8,0-16.2c0-0.3-0.1-0.6-0.1-0.9
		c1.7,0,3.4,0,5.1,0c0.9,0,1.2,0.3,1.2,1.2C365.5,80.8,365.5,86.6,365.5,92.4z"/>
	<path d="M396.2,117.1c-1.5-0.2-3-0.1-4.5-0.1c-1.4,0-1.4,0-1.4-1.4c0-5.4,0-10.9,0-16.3c0-0.2,0-0.5-0.1-0.7c1.7,0,3.4,0,5.1-0.1
		c0.8,0,1.1,0.3,1.1,1.1c0,5.7-0.1,11.5-0.1,17.2c0,0,0.1,0.1,0.2,0.1c0,0,0,0,0,0C396.4,116.9,396.3,117,396.2,117.1z"/>
	<path d="M69.3,92.4c0,1.6-0.1,3.2,0,4.8c0.1,1-0.3,1.4-1.3,1.4c-5.2,0-10.5,0-15.7,0c-0.5,0-1,0-1.5,0.1c0-1.7,0-3.3,0-5
		c0-0.9,0.3-1.2,1.2-1.2C57.8,92.4,63.6,92.4,69.3,92.4z"/>
	<path d="M87.9,61.7c0,0.3-0.1,0.6-0.1,0.9c0,5.4,0,10.8,0,16.2c0,0.9-0.3,1.1-1.2,1.1c-1.6,0-3.2,0-4.8,0c-0.1-0.3-0.2-0.6-0.2-1
		c0-5.5,0-10.9,0-16.4c0-0.8,0.3-1.1,1-1.1C84.5,61.6,86.2,61.4,87.9,61.7z"/>
	<path d="M408.7,135.4c0-0.3,0.1-0.6,0.1-0.9c0-5.4,0-10.8,0-16.2c0-0.3-0.1-0.6-0.1-0.9c1.9-0.4,3.9-0.2,5.8-0.1
		c0.1,0,0.2,0.2,0.3,0.3c0,5.9,0,11.9,0,17.8c-0.2,0.1-0.3,0.3-0.5,0.3C412.5,135.6,410.6,135.8,408.7,135.4z"/>
	<path d="M285.3,61.7c0,5.7,0,11.4,0,17c0,1-0.3,1.3-1.3,1.3c-1.6,0-3.2,0-4.8,0c0-1.5-0.1-3-0.1-4.4c0-4.3,0-8.7,0-13
		c0-0.5,0-1,0.7-1C281.7,61.6,283.5,61.4,285.3,61.7z"/>
	<path d="M186.6,61.7c0,2.4-0.1,4.8-0.1,7.2c0,3.3,0,6.6,0,10c0,0.9-0.3,1.1-1.1,1.1c-1.6,0-3.2,0-4.9,0c-0.2-0.5-0.1-1.1-0.1-1.7
		c0-5.2,0-10.5,0-15.7c0-0.8,0.2-1.1,1-1.1C183.1,61.6,184.9,61.4,186.6,61.7z"/>
	<path d="M44.6,154.1c1.7,0,3.3,0.1,5,0c1,0,1.2,0.3,1.2,1.3c0,3.7,0,7.3,0,11c-1.7,0-3.3,0-5,0c-0.9,0-1.2-0.2-1.2-1.2
		c0.1-3.7,0.1-7.3,0.1-11C44.7,154.2,44.7,154.2,44.6,154.1z"/>
	<path d="M26.2,123.5c-0.1,4-0.1,8,0,12c-1.8,0.4-3.7,0.1-5.5,0.2c-0.6,0-0.7-0.4-0.7-0.9c0-3.5,0-7.1,0-10.6c0-0.5,0.1-0.9,0.7-0.9
		C22.5,123.3,24.4,123.1,26.2,123.5z"/>
	<path d="M371.7,104.7c-1.7,0-3.3-0.1-5,0c-0.9,0-1.2-0.3-1.2-1.2c0-3.7,0-7.4,0-11.1c1.7,0,3.4,0,5.2,0c0.8,0,1,0.3,1,1.1
		C371.7,97.2,371.7,101,371.7,104.7z"/>
	<path d="M340.7,67.7c-1.6-0.2-3.2-0.1-4.8-0.1c-0.8,0-1.1-0.3-1.1-1.1c0-3.3,0-6.7,0-10c0-0.3-0.1-0.6-0.1-0.9
		c1.9-0.4,3.8-0.1,5.7-0.2c0.5,0,0.6,0.5,0.6,0.9c0,3.5,0,7,0,10.6C340.9,67.1,340.7,67.4,340.7,67.7z"/>
	<path d="M198.9,55.6c0,1.6-0.1,3.2,0,4.8c0,0.9-0.3,1.2-1.1,1.2c-3.3,0-6.6,0-9.9,0c-0.4,0-0.8,0.1-1.2,0.1c-0.3-1.8,0-3.6-0.1-5.5
		c0-0.5,0.2-0.7,0.7-0.7c3.7,0,7.5,0,11.2,0C198.6,55.4,198.8,55.5,198.9,55.6z"/>
	<path d="M75.8,178.9c3.6,0,7.2,0.1,10.8,0c1,0,1.3,0.3,1.3,1.3c-0.1,1.5-0.1,3.1,0.1,4.6c-2.4,0.3-4.7,0.1-7.1,0.1
		c-1.4,0-2.8,0-4.2,0c-0.8,0-1.1-0.3-1.1-1.1c0-1.6,0-3.3,0-4.9c0,0,0,0,0,0C75.6,179.1,75.7,179,75.8,178.9z"/>
	<path d="M242,67.7c-1.5-0.2-3.1-0.1-4.6-0.1c-1,0-1.3-0.2-1.3-1.3c0.1-3.6,0-7.2,0-10.8c1.8-0.4,3.7-0.1,5.6-0.2
		c0.4,0,0.6,0.3,0.6,0.7c0,3.7,0,7.3,0,11C242.1,67.3,242,67.5,242,67.7z"/>
	<path d="M100.2,55.6c0,1.6-0.1,3.2,0,4.7c0,0.9-0.2,1.2-1.1,1.2c-3.3,0-6.5,0-9.8,0c-0.4,0-0.8,0.1-1.1,0.1
		c-0.4-1.8-0.1-3.7-0.2-5.6c0-0.4,0.3-0.6,0.7-0.6c3.7,0,7.4,0,11.1,0C99.9,55.4,100.1,55.5,100.2,55.6z"/>
	<path d="M38.1,123.2c-3.4,0-6.8,0-10.3-0.1c-0.5,0-1.1-0.1-1.6-0.1c-0.2-1.8,0-3.5-0.1-5.3c0-0.5,0.2-0.7,0.7-0.7
		c3.8,0,7.6,0,11.3,0.1c0,0,0.1,0,0.1-0.1c0,0.1-0.1,0.2-0.1,0.3C38.4,119.3,38.5,121.3,38.1,123.2z"/>
	<path d="M297.6,55.6c0,1.5,0,3,0,4.5c0,1.4,0,1.4-1.3,1.4c-3.2,0-6.4,0-9.6,0c-0.4,0-0.8,0.1-1.3,0.1c0-1.8,0-3.6-0.1-5.4
		c0-0.5,0.2-0.8,0.7-0.8c3.7,0,7.4,0,11.1,0C297.3,55.4,297.4,55.5,297.6,55.6z"/>
	<path d="M408.5,117.1c-2-0.3-4.1-0.1-6.1-0.1c0-1.7,0.1-3.3,0.1-5c0-0.8,0.2-1.2,1.1-1.2c1.4,0,2.7,0,4.1,0c0.4,0,1,0,0.9,0.6
		C408.7,113.4,408.9,115.3,408.5,117.1z"/>
	<path d="M254.3,67.7c-1.9-0.1-3.9-0.1-5.8,0c-0.4-1.8-0.1-3.7-0.2-5.6c0-0.5,0.4-0.6,0.8-0.6c1.5,0,3,0,4.5,0
		c0.4,0,0.8,0.1,0.8,0.6C254.4,64,254.7,65.9,254.3,67.7z"/>
	<path d="M390.2,98.6c-2.1-0.2-4.2-0.1-6.2,0c0-1.7,0-3.4,0-5.1c0-0.8,0.2-1.2,1.1-1.1c1.4,0.1,2.8,0,4.1,0c0.8,0,1,0.3,1,1.1
		C390.2,95.2,390.2,96.9,390.2,98.6z"/>
	<path d="M75.6,86.3c-0.2,1.5-0.1,3.1-0.1,4.6c0,1.4,0,1.4-1.4,1.4c-1.6,0-3.2-0.1-4.7,0.1c0-1.7,0-3.3,0-5c0-0.9,0.2-1.3,1.2-1.2
		c1.4,0.1,2.8,0,4.1,0c0.3,0,0.6,0.2,0.8-0.2c0,0,0,0,0,0C75.4,86.2,75.4,86.3,75.6,86.3z"/>
	<path d="M155.6,67.7c-2-0.1-4-0.1-6.1,0c0-1.7,0-3.5,0-5.2c0-0.7,0.3-1,1-1c1.4,0,2.8,0,4.2,0c0.5,0,1,0.1,1,0.7
		C155.7,64.1,155.9,65.9,155.6,67.7z"/>
	<path d="M353.2,67.7c-2-0.1-4-0.1-6.1,0c-0.3-1.8,0-3.7-0.1-5.5c0-0.6,0.5-0.7,1-0.7c1.4,0,2.8,0,4.2,0c0.7,0,1,0.3,1,1
		C353.2,64.3,353.2,66,353.2,67.7z"/>
	<path d="M50.9,98.6c0,1.7-0.1,3.4,0,5.1c0,0.8-0.3,1.1-1,1.1c-1.7,0-3.4,0-5.2,0.1c0-1.7,0.1-3.4,0-5.1c0-0.8,0.2-1.1,1-1.1
		C47.4,98.6,49.2,98.6,50.9,98.6z"/>
	<path d="M106.5,49.1c-0.3,1.5-0.1,3-0.1,4.5c0,1.6,0,1.6-1.6,1.7c-1.5,0-2.9-0.1-4.4,0.1c-0.3-1.9,0-3.7-0.1-5.6
		c0-0.6,0.4-0.6,0.9-0.6c1.6,0,3.2,0,4.8,0C106.1,49.2,106.3,49.2,106.5,49.1z"/>
	<path d="M32.5,141.7c1.6,0.3,3.2,0.1,4.8,0.1c0.9,0,1.2,0.2,1.2,1.2c-0.1,1.7-0.2,3.4,0.1,5c-1.6-0.3-3.3-0.1-4.9-0.1
		c-1,0-1.4-0.3-1.3-1.3C32.5,145,32.2,143.4,32.5,141.7z"/>
	<path d="M69.3,172.6c1.7,0.3,3.4,0.1,5,0.1c0.9,0,1.2,0.3,1.1,1.2c0,1.6-0.2,3.2,0.1,4.8c-0.2,0-0.2,0.1-0.1,0.3c0,0,0,0,0,0
		c-0.3-0.4-0.7-0.2-1-0.2c-1.3,0-2.6-0.1-3.9,0c-1,0.1-1.3-0.4-1.2-1.3C69.4,175.9,69.3,174.3,69.3,172.6z"/>
	<path d="M303.8,49.1c0,1.6,0,3.2,0,4.8c0,1.3,0,1.3-1.4,1.3c-1.6,0-3.2-0.1-4.7,0.1c0-1.8,0-3.6-0.1-5.4c0-0.6,0.2-0.8,0.9-0.8
		C300.3,49.2,302,49.2,303.8,49.1z"/>
	<path d="M359.3,73.9c-1.6,0-3.2-0.1-4.7-0.1c-1.4,0-1.4,0-1.4-1.3c0-1.6,0-3.2-0.1-4.7c1.7,0,3.3,0,5,0c0.8,0,1.2,0.2,1.2,1.1
		C359.3,70.5,359.4,72.2,359.3,73.9z"/>
	<path d="M334.5,55.4c-1.6-0.2-3.2-0.1-4.8-0.1c-0.8,0-1.1-0.3-1.1-1.1c0.1-1.7,0-3.4,0-5.2c1.6,0.3,3.1,0.1,4.7,0.1
		c1.4,0,1.4,0,1.4,1.4C334.6,52.2,334.9,53.8,334.5,55.4z"/>
	<path d="M180.4,80.2c0,1.6-0.1,3.3,0,4.9c0,0.8-0.2,1.1-1,1c-1.6,0-3.3,0-4.9,0c-0.3-1.8-0.1-3.6-0.2-5.5c0-0.5,0.3-0.6,0.8-0.6
		C176.8,80.1,178.6,80,180.4,80.2z"/>
	<path d="M235.8,55.4c-1.6-0.2-3.2-0.1-4.8-0.1c-0.9,0-1.2-0.3-1.1-1.2c0.1-1.7,0-3.3,0-5c1.7,0,3.4,0,5.1,0c0.8,0,1.2,0.2,1.1,1.1
		C235.8,52,236.1,53.7,235.8,55.4z"/>
	<path d="M384,98.6c0,1.6-0.1,3.2,0,4.9c0,1-0.3,1.3-1.3,1.3c-1.6,0-3.2,0-4.9,0c0-1.7,0-3.4,0-5.1c0-0.8,0.3-1.1,1.1-1.1
		C380.6,98.6,382.3,98.6,384,98.6z"/>
	<path d="M161.8,73.9c-1.5,0-3.1-0.1-4.6-0.1c-1,0-1.4-0.2-1.3-1.3c0.1-1.5,0-3.1,0-4.6c1.8-0.3,3.7-0.1,5.5-0.1
		c0.4,0,0.7,0.3,0.7,0.7C161.8,70.2,162.1,72.1,161.8,73.9z"/>
	<path d="M260.5,73.9c-1.6,0-3.2-0.1-4.8-0.1c-0.8,0-1.1-0.3-1.1-1.1c0-1.6,0.2-3.2-0.1-4.8c1.8-0.3,3.7-0.1,5.5-0.2
		c0.3,0,0.7,0.1,0.7,0.5C260.6,70.1,260.9,72,260.5,73.9z"/>
	<path d="M81.8,80.2c-0.2,1.5-0.1,3-0.1,4.5c0,1.4,0,1.4-1.5,1.4c-1.5,0-3,0-4.4,0c0-0.2-0.1-0.2-0.3-0.1c0,0,0,0,0,0
		c0-1.6,0.1-3.3,0-4.9c0-0.8,0.2-1.2,1.1-1.1C78.3,80.2,80,80,81.8,80.2z"/>
	<path d="M26.3,135.6c1.6,0.2,3.2,0.1,4.8,0.1c0.9,0,1.2,0.3,1.1,1.2c-0.1,1.6,0,3.2,0,4.7c-1.8,0.4-3.7,0.1-5.6,0.2
		c-0.4,0-0.6-0.3-0.6-0.6C26.3,139.3,26,137.4,26.3,135.6z"/>
	<path d="M402.5,117c0,1.7,0,3.4,0,5.1c0,0.8-0.3,1.1-1.1,1.1c-1.3,0-2.6,0-3.9,0c-0.8,0-1.1-0.2-1-1c0-1.6,0-3.2,0-4.9
		c0.2,0,0.2-0.1,0.1-0.3c0,0,0,0,0,0C398.5,117.1,400.5,117.1,402.5,117z"/>
	<path d="M205,49.2c0,1.7,0,3.4,0,5.1c0,0.8-0.3,1.1-1,1.1c-1.7,0-3.3-0.2-5,0.1c0-1.8-0.1-3.6-0.1-5.4c0-0.7,0.4-0.8,0.9-0.8
		C201.6,49.2,203.3,49.2,205,49.2z"/>
	<path d="M248.3,67.9c-0.2,1.6-0.1,3.2-0.1,4.8c0,0.9-0.2,1.2-1.1,1.2c-1.3-0.1-2.5-0.1-3.8,0c-0.9,0-1.1-0.3-1.1-1.2
		c0-1.6,0.1-3.2-0.1-4.8C244.2,67.7,246.3,67.6,248.3,67.9z"/>
	<path d="M38.6,148.1c1.7,0,3.4,0,5.1,0c0.7,0,1,0.3,1,1c0,1.7,0,3.4,0,5.1c-1.6,0-3.3,0-4.9,0c-1,0-1.2-0.3-1.2-1.2
		C38.6,151.3,38.6,149.7,38.6,148.1z"/>
	<path d="M44.2,110.7c-1.7,0-3.3,0-5,0c-0.5,0-0.7-0.1-0.7-0.7c0-1.4,0-2.9,0-4.3c0-0.7,0.2-1,0.9-0.9c1.7,0,3.5,0,5.2,0
		c0,2-0.1,3.9-0.1,5.9C44.4,110.6,44.3,110.7,44.2,110.7z"/>
	<path d="M347,67.9c0,1.6-0.1,3.2,0,4.9c0,0.8-0.2,1.1-1,1.1c-1.4,0-2.8,0-4.1,0c-0.6,0-0.9-0.2-0.9-0.9c0-1.7,0.1-3.4,0.1-5.1
		C343,67.7,345,67.6,347,67.9z"/>
	<path d="M279.1,80.2c0,1.6-0.1,3.2,0,4.7c0.1,1-0.3,1.3-1.3,1.3c-1.6,0-3.2,0-4.7,0c0-1.8-0.1-3.6-0.1-5.4c0-0.5,0.2-0.8,0.8-0.8
		C275.5,80.1,277.3,80.1,279.1,80.2z"/>
	<path d="M229.8,185c0.2,0,0.4,0.1,0.6,0.1c7.8,0,15.6,0,23.5,0c0.1,0,0.3,0,0.4-0.1c0.4,1.9,0.1,3.7,0.2,5.6c0,0.3-0.2,0.4-0.4,0.5
		c-2.7,0-5.4-0.1-8-0.1c-5.2,0-10.5,0-15.7,0.1c-0.4-0.2-0.5-0.5-0.5-0.9C229.8,188.5,229.8,186.8,229.8,185z"/>
	<path d="M285.4,185.2c0.4,0,0.8-0.1,1.2-0.1c5.4,0,10.7,0,16.1,0c0.4,0,0.8,0.1,1.2,0.1c0,1.7,0,3.4,0.1,5.1c0,0.3-0.1,0.6-0.4,0.8
		c-5.9,0-11.7,0-17.6,0c-0.5-0.1-0.6-0.5-0.5-0.9C285.3,188.6,285.3,186.9,285.4,185.2z"/>
	<path d="M254.5,184.9c0.2-1.6,0.1-3.3,0.1-5c0-0.6,0.2-1,0.9-1c3.6,0,7.3,0,10.9,0c0.1,0,0.3,0.1,0.4,0.1c0.3,1.7,0,3.5,0.1,5.3
		c0,0.4-0.2,0.7-0.7,0.7C262.3,184.9,258.4,185.1,254.5,184.9z"/>
	<path d="M273.1,178.9c3.6,0,7.2,0,10.8,0.1c1.4,0,1.4,0,1.4,1.4c0,1.5,0,3,0,4.5c-3.8,0.2-7.7,0-11.5,0.1c-0.5,0-0.8-0.2-0.8-0.8
		C273,182.4,273,180.7,273.1,178.9z"/>
	<path d="M266.8,178.8c0-1.7,0.1-3.4,0-5.1c0-0.7,0.2-1,1-1c1.4,0,2.8,0,4.1,0c0.8,0,1,0.3,1,1c0,1.7,0,3.3,0,5
		C270.9,179,268.9,178.7,266.8,178.8z"/>
	<path d="M131.1,185c8.2,0.1,16.3,0.1,24.5,0c0.3,1.9,0,3.7,0.1,5.6c0,0.3-0.2,0.5-0.4,0.6c-5.7,0-11.4,0-17.1,0
		c-2.2,0-4.4,0-6.7,0.1c-0.4-0.1-0.5-0.4-0.5-0.8C131.1,188.6,131.1,186.8,131.1,185z"/>
	<path d="M186.7,185c1.5,0,3,0.1,4.4,0.1c4.6,0,9.3,0,13.9-0.1c0,1.7,0,3.5,0.1,5.2c0,0.4-0.1,0.8-0.5,0.9c-2.7,0-5.5-0.1-8.2-0.1
		c-3.1,0-6.3,0-9.4,0c-0.3-0.2-0.4-0.4-0.4-0.7C186.7,188.7,186.4,186.8,186.7,185z"/>
	<path d="M155.8,184.9c0-1.6,0.1-3.2,0-4.8c0-1,0.3-1.2,1.2-1.2c3.6,0,7.3,0,10.9,0c0.3,1.9,0.1,3.7,0.2,5.6c0,0.4-0.3,0.5-0.7,0.5
		C163.6,184.9,159.7,185.1,155.8,184.9z"/>
	<path d="M118.8,178.9c3.6,0,7.2,0,10.8,0.1c1.4,0,1.4,0,1.4,1.4c0,1.5,0,3,0,4.5c-3.8,0.2-7.7,0-11.5,0.1c-0.5,0-0.8-0.2-0.8-0.8
		C118.8,182.4,118.8,180.6,118.8,178.9z"/>
	<path d="M106.4,185c0-1.6,0.1-3.2,0-4.9c0-0.9,0.2-1.3,1.2-1.2c1.7,0,3.3,0,5,0c0,1.7,0,3.4,0,5.1c0,0.9-0.3,1.1-1.1,1.1
		C109.8,185,108.1,185,106.4,185z"/>
	<path d="M112.6,178.8c0-1.7,0.1-3.3,0-5c0-0.8,0.2-1.2,1.1-1.1c1.3,0,2.7,0,4,0c0.8,0,1,0.3,1,1c0,1.7,0,3.3,0,5
		C116.7,178.8,114.6,178.8,112.6,178.8z"/>
	<path d="M217.5,178.9c3.6,0,7.1,0,10.7,0.1c1.6,0,1.6,0,1.6,1.5c0,1.5,0,3,0.1,4.5c-3.7,0-7.4,0-11.1,0c-1,0-1.3-0.3-1.3-1.3
		C217.5,182.1,217.5,180.5,217.5,178.9z"/>
	<path d="M205.1,185c0.2-1.7,0.1-3.4,0.1-5c0-0.8,0.3-1.1,1-1c1.7,0,3.4,0,5,0c0,1.8,0,3.5,0.1,5.3c0,0.7-0.3,0.9-1,0.9
		C208.6,185,206.8,185,205.1,185z"/>
	<path d="M316.4,178.9c3.6,0,7.1,0,10.7,0.1c1.4,0,1.4,0,1.4,1.4c0,1.5-0.1,3,0.1,4.5c-2.4,0.3-4.7,0.1-7.1,0.1c-1.4,0-2.9,0-4.3,0
		c-0.5,0-1-0.1-1-0.7c0-1.6,0-3.2,0-4.9C316.2,179.3,316.3,179.1,316.4,178.9z"/>
	<path d="M303.9,184.9c0-1.5,0-3.1,0-4.6c0-1.3,0-1.3,1.4-1.3c1.5,0,3.1,0,4.6-0.1c0.2,1.8,0,3.6,0.1,5.5c0,0.5-0.3,0.7-0.8,0.7
		C307.5,184.9,305.7,185.1,303.9,184.9z"/>
	<path d="M310,178.7c0-1.7,0.1-3.3,0-5c0-0.7,0.2-1,1-1c1.4,0,2.7,0,4.1,0c0.7,0,1,0.2,0.9,0.9c0,1.7,0,3.4-0.1,5.1
		C314,178.9,312,178.9,310,178.7z"/>
	<path d="M402.6,141.6c0.2-1.6,0.1-3.2,0.1-4.7c0-0.9,0.2-1.2,1.1-1.2c1.6,0,3.2,0.1,4.8-0.1c0.3,1.8,0.1,3.6,0.2,5.5
		c0,0.4-0.1,0.7-0.6,0.7C406.3,141.7,404.4,142,402.6,141.6z"/>
	<path d="M408.6,154.1c-1.6,0-3.3-0.1-4.9,0c-0.8,0-1-0.3-1-1.1c0-1.6,0.1-3.3-0.1-4.9c1.8,0,3.6-0.1,5.4-0.1c0.4,0,0.8,0.1,0.8,0.5
		C408.7,150.4,408.9,152.2,408.6,154.1z"/>
	<path d="M402.4,147.9c-1.7,0-3.3-0.1-5,0c-0.8,0-1.1-0.3-1-1.1c0.1-1.3,0.1-2.5,0-3.8c0-0.9,0.2-1.2,1.1-1.2c1.6,0,3.2,0.2,4.8-0.1
		C402.7,143.8,402.6,145.9,402.4,147.9z"/>
	<path class="st0" d="M38.1,123.2c0.4-2,0.2-3.9,0.1-5.9c0-0.1,0-0.2,0.1-0.3c0.5,0,0.3,0.4,0.3,0.7c0,1.6,0,3.1,0,4.7
		C38.7,122.8,38.7,123.3,38.1,123.2z"/>
	<path class="st0" d="M75.5,179c-0.1-0.1-0.1-0.2,0.1-0.3c0.1,0.1,0.1,0.1,0.2,0.2C75.7,179,75.6,179.1,75.5,179z"/>
	<path class="st0" d="M44.2,110.7c0.1,0,0.2,0,0.4-0.1c0,0.1,0,0.3-0.2,0.3C44.3,110.9,44.2,110.7,44.2,110.7z"/>
	<path class="st0" d="M75.5,86.1c0.1-0.1,0.2,0,0.3,0.1c-0.1,0.1-0.1,0.1-0.2,0.2C75.4,86.3,75.4,86.2,75.5,86.1z"/>
	<path class="st0" d="M384.2,172.9c0,0.1,0,0.2-0.1,0.2c0-0.1,0-0.2,0-0.3C384.1,172.9,384.2,172.9,384.2,172.9z"/>
	<path class="st0" d="M396.5,117c0.1,0.1,0.1,0.2-0.1,0.3c-0.1-0.1-0.1-0.1-0.2-0.2C396.3,117,396.4,116.9,396.5,117z"/>
	<path class="st0" d="M143.3,67.8C143.3,67.8,143.3,67.7,143.3,67.8c0-0.2,0.1-0.3,0.3-0.2C143.7,67.9,143.5,67.8,143.3,67.8z"/>
</g>
<g>
	<path d="M869.7,173c0-2.1,0-4.3,0-6.4l-0.1,0.1c8.6,0,17.1,0,25.7,0l-0.1-0.1c0,2.1,0,4.3,0,6.4C886.8,173,878.2,173,869.7,173z"/>
	<path d="M844.1,166.6c0,2.1,0,4.3,0,6.4c-6.4,0-12.8,0-19.2,0c0-2.1,0-4.3,0-6.4l-0.1,0.1C831.3,166.6,837.7,166.6,844.1,166.6
		L844.1,166.6z"/>
	<path d="M959.3,115.4c-2.2,0-4.3,0-6.5,0c0-6.4,0.1-12.8,0.1-19.2c0,0-0.1,0.1-0.1,0.1c2.1,0,4.3,0,6.4,0
		C959.3,102.6,959.3,109,959.3,115.4z"/>
	<path d="M952.9,134.6c2.2,0,4.3,0,6.5,0c0,4.3,0,8.5,0,12.8c-2.1,0-4.3,0-6.4,0l0.1,0.1C953,143.2,952.9,138.9,952.9,134.6z"/>
	<path d="M844.1,25.8c-0.1-6.4-0.1-6.4,6.2-6.4c5.4,0,10.8,0.1,16.2,0c2.3-0.1,3.6,0.3,3.1,3c-0.2,1.1-0.1,2.3-0.1,3.5
		c0,0,0.1-0.1,0.1-0.1C861.2,25.7,852.6,25.7,844.1,25.8L844.1,25.8z"/>
	<path d="M805.7,153.8c-7.6,0-15.3,0-22.9,0.1c-2.1,0-3.2-0.3-2.8-2.7c0.2-1.2,0.1-2.5,0.1-3.8c0,0-0.1,0.1-0.1,0.1
		c6.5,0,12.9,0,19.4,0C805.8,147.4,805.8,147.4,805.7,153.8L805.7,153.8z"/>
	<path d="M818.5,57.8c0-5.4,0.1-10.8-0.1-16.2c-0.1-2.4,0.4-3.5,3-3.1c1.1,0.2,2.3,0.1,3.5,0.1l-0.1-0.1c0,4.3,0,8.7,0,13
		C824.9,57.9,824.9,57.9,818.5,57.8L818.5,57.8z"/>
	<path d="M901.7,51.4c6.4-0.1,6.5-0.1,6.4,6.2c0,4.3,0,8.7,0,13l0.1-0.1c-1.2,0-2.3-0.1-3.5,0.1c-2.6,0.4-3.1-0.8-3-3.1
		C901.8,62.1,901.8,56.7,901.7,51.4C901.8,51.3,901.7,51.4,901.7,51.4z"/>
	<path d="M786.5,77c-0.1-6.4-0.1-6.4,6.2-6.4c4.3,0,8.7,0,13,0l-0.1-0.1c0,1.2-0.1,2.3,0.1,3.5c0.4,2.6-0.8,3.1-3.1,3
		C797.2,76.9,791.8,77,786.5,77L786.5,77z"/>
	<path d="M933.7,77c6.4-0.1,6.5-0.1,6.4,6.2c0,4.3,0,8.7,0,13l0.1-0.1c-1.2,0-2.3-0.1-3.5,0.1c-2.6,0.4-3.1-0.8-3-3.1
		C933.9,87.7,933.8,82.3,933.7,77L933.7,77z"/>
	<path d="M754.5,115.3c-6.4,0.1-6.4,0.1-6.4-6.2c0-0.1,0-0.2,0-0.3c0-6.3,0-6.3,6.4-6.2l-0.1-0.1
		C754.4,106.8,754.4,111.1,754.5,115.3L754.5,115.3z"/>
	<path d="M908.1,70.6c6.4-0.1,6.5-0.1,6.4,6.2c0,2.2,0,4.4,0,6.6l0.1-0.1c-1.4,0-2.8-0.1-4.1,0.1c-2,0.3-2.5-0.6-2.4-2.5
		C908.2,77.5,908.2,74,908.1,70.6L908.1,70.6z"/>
	<path d="M824.9,166.6c-3.5,0-7-0.1-10.4,0.1c-1.9,0.1-2.7-0.3-2.5-2.4c0.2-1.3,0.1-2.7,0.1-4.1l-0.1,0.1c2.2,0,4.4,0,6.6,0
		C825,160.2,825,160.2,824.9,166.6L824.9,166.6z"/>
	<path d="M780.1,147.4c-6.4,0.1-6.5,0.1-6.4-6.2c0-2.2,0-4.4,0-6.6c0,0-0.1,0.1-0.1,0.1c1.4,0,2.8,0.1,4.1-0.1
		c2-0.3,2.5,0.6,2.4,2.5C780,140.5,780,144,780.1,147.4L780.1,147.4z"/>
	<path d="M824.9,38.6c-0.1-6.4-0.1-6.5,6.2-6.4c2.2,0,4.4,0,6.6,0c0,0-0.1-0.1-0.1-0.1c0,1.4-0.1,2.8,0.1,4.1c0.3,2-0.6,2.5-2.5,2.4
		C831.8,38.5,828.3,38.5,824.9,38.6L824.9,38.6z"/>
	<path d="M876.1,32.2c6.4-0.1,6.4-0.1,6.4,6.2c0,2.2,0,4.4,0,6.6l0.1-0.1c-1.4,0-2.8-0.1-4.1,0.1c-2,0.3-2.5-0.6-2.4-2.5
		C876.2,39.1,876.1,35.6,876.1,32.2L876.1,32.2z"/>
	<path d="M754.5,102.6c-0.1-6.4-0.1-6.5,6.2-6.4c2.2,0,4.4,0,6.6,0c0,0-0.1-0.1-0.1-0.1c0,1.4-0.1,2.8,0.1,4.1
		c0.3,2-0.6,2.5-2.5,2.4C761.4,102.5,757.9,102.6,754.5,102.6L754.5,102.6z"/>
	<path d="M940.1,96.2c2.2,0,4.3,0,6.5,0l-0.1-0.1c0,1.6-0.1,3.2,0.1,4.7c0.1,1.4-0.5,1.7-1.8,1.7c-4.6,0.2-4.6,0.2-4.6-4.3
		C940.1,97.6,940.2,96.9,940.1,96.2L940.1,96.2z"/>
	<path d="M946.6,96.2c0-1.5,0.1-3-0.1-4.4c-0.2-1.7,0.5-2.1,2.1-2.1c4.3,0,4.3-0.1,4.3,4.3c0,0.7,0,1.5,0,2.2c0,0,0.1-0.1,0.1-0.1
		C950.8,96.1,948.7,96.1,946.6,96.2L946.6,96.2z"/>
	<path d="M760.9,121.7c-6.5,0.2-6.5,0.2-6.4-6.4c0,0-0.1,0.1-0.1,0.1C761,115.3,761,115.3,760.9,121.7L760.9,121.7z"/>
	<path d="M895.3,45c6.5-0.2,6.5-0.2,6.4,6.4c0,0,0.1-0.1,0.1-0.1C895.2,51.5,895.2,51.5,895.3,45L895.3,45z"/>
	<path d="M767.3,128.1c-6.5,0.2-6.5,0.2-6.4-6.4c0,0-0.1,0.1-0.1,0.1C767.4,121.7,767.4,121.7,767.3,128.1L767.3,128.1z"/>
	<path d="M773.7,134.6c-6.5,0.1-6.5,0.1-6.4-6.4c0,0-0.1,0.1-0.1,0.1C773.8,128.1,773.8,128.1,773.7,134.6L773.7,134.6z"/>
	<path d="M767.3,96.2c-0.1-6.6-0.1-6.6,6.4-6.4l-0.1-0.1C773.8,96.3,773.8,96.3,767.3,96.2L767.3,96.2z"/>
	<path d="M914.5,83.4c2.2,0,4.3,0,6.5,0c0,0-0.1-0.1-0.1-0.1c0,1.6-0.1,3.2,0.1,4.7c0.1,1.4-0.5,1.7-1.8,1.7
		c-4.6,0.2-4.6,0.2-4.6-4.3C914.5,84.8,914.6,84.1,914.5,83.4L914.5,83.4z"/>
	<path d="M773.7,89.8c-0.1-6.6-0.1-6.6,6.4-6.4l-0.1-0.1C780.2,89.9,780.2,89.9,773.7,89.8L773.7,89.8z"/>
	<path d="M869.7,25.8c6.5-0.1,6.5-0.1,6.4,6.4c0,0,0.1-0.1,0.1-0.1C869.6,32.3,869.6,32.3,869.7,25.8L869.7,25.8z"/>
	<path d="M882.5,45c2.2,0,4.3,0,6.5,0c0,0-0.1-0.1-0.1-0.1c0,1.6-0.1,3.2,0.1,4.7c0.1,1.4-0.5,1.7-1.8,1.7c-4.6,0.2-4.6,0.2-4.6-4.3
		C882.5,46.4,882.5,45.7,882.5,45L882.5,45z"/>
	<path d="M921,83.4c-0.1-6.6-0.1-6.6,6.4-6.4l-0.1-0.1C927.4,83.5,927.4,83.5,921,83.4L921,83.4z"/>
	<path d="M837.7,32.2c-0.1-6.5-0.1-6.5,6.4-6.4c0,0-0.1-0.1-0.1-0.1C844.2,32.3,844.2,32.3,837.7,32.2L837.7,32.2z"/>
	<path d="M812.1,160.2c-6.5,0.1-6.5,0.1-6.4-6.4c0,0-0.1,0.1-0.1,0.1C812.2,153.7,812.2,153.7,812.1,160.2L812.1,160.2z"/>
	<path d="M780.1,83.4c-0.1-6.5-0.1-6.5,6.4-6.4c0,0-0.1-0.1-0.1-0.1C786.6,83.5,786.6,83.5,780.1,83.4L780.1,83.4z"/>
	<path d="M927.4,77c0-1.5,0.1-3-0.1-4.4c-0.2-1.7,0.5-2.1,2.1-2.1c4.3,0,4.3-0.1,4.3,4.3c0,0.7,0,1.5,0,2.2c0,0,0.1-0.1,0.1-0.1
		C931.6,76.9,929.5,76.9,927.4,77L927.4,77z"/>
	<path d="M889,45c0-1.5,0.1-3-0.1-4.4c-0.2-1.7,0.5-2.1,2.1-2.1c4.3,0,4.3-0.1,4.3,4.3c0,0.7,0,1.5,0,2.2c0,0,0.1-0.1,0.1-0.1
		C893.2,44.9,891,44.9,889,45L889,45z"/>
	<path d="M805.7,70.6c-0.1-6.6-0.1-6.6,6.4-6.4l-0.1-0.1C812.2,70.7,812.2,70.7,805.7,70.6L805.7,70.6z"/>
	<path d="M812.1,64.2c-0.1-6.5-0.1-6.5,6.4-6.4c0,0-0.1-0.1-0.1-0.1C818.6,64.3,818.6,64.3,812.1,64.2L812.1,64.2z"/>
	<path d="M927.3,160.2c0.1,6.4,0.1,6.4-6.2,6.4c-0.1,0-0.2,0-0.3,0c-6.3,0-6.3,0-6.2-6.4l-0.1,0.1
		C918.8,160.2,923.1,160.2,927.3,160.2L927.3,160.2z"/>
	<path d="M908.1,160.2c0.1,6.4,0.1,6.4-6.2,6.4c-2.2,0-4.4,0-6.6,0c0,0,0.1,0.1,0.1,0.1c0-1.4,0.1-2.8-0.1-4.1
		c-0.3-2,0.6-2.5,2.5-2.4C901.2,160.3,904.7,160.2,908.1,160.2C908.2,160.2,908.1,160.2,908.1,160.2z"/>
	<path d="M940.1,153.8c0.1,6.4,0.1,6.4-6.2,6.4c-2.2,0-4.4,0-6.6,0c0,0,0.1,0.1,0.1,0.1c0-1.4,0.1-2.8-0.1-4.1
		c-0.3-2,0.6-2.5,2.5-2.4C933.2,153.9,936.7,153.8,940.1,153.8L940.1,153.8z"/>
	<path d="M952.9,147.3c0.1,6.4,0.1,6.5-6.2,6.4c-2.2,0-4.4,0-6.6,0c0,0,0.1,0.1,0.1,0.1c0-1.4,0.1-2.8-0.1-4.1
		c-0.3-2,0.6-2.5,2.5-2.4C946,147.5,949.5,147.4,952.9,147.3L952.9,147.3z"/>
	<path d="M914.6,160.2c-2.2,0-4.3,0-6.5,0c0,0,0.1,0.1,0.1,0.1c0-1.6,0.1-3.2-0.1-4.7c-0.1-1.4,0.5-1.7,1.8-1.7
		c4.6-0.2,4.6-0.2,4.6,4.3C914.5,158.8,914.5,159.5,914.6,160.2L914.6,160.2z"/>
	<path d="M869.8,166.6c-3.5,0-7-0.1-10.4,0.1c-1.9,0.1-2.7-0.3-2.5-2.4c0.2-1.3,0.1-2.7,0.1-4.1l-0.1,0.1c2.2,0,4.4,0,6.6,0
		C869.8,160.2,869.8,160.2,869.8,166.6L869.8,166.6z"/>
	<path d="M857,160.2c-2.2,0-4.3,0-6.5,0l0.1,0.1c0-1.6,0.1-3.2-0.1-4.7c-0.1-1.4,0.5-1.7,1.8-1.7c4.6-0.2,4.6-0.2,4.6,4.3
		C856.9,158.8,856.9,159.5,857,160.2C856.9,160.2,857,160.2,857,160.2z"/>
	<path d="M850.5,160.2c0.1,6.5,0.1,6.5-6.4,6.4c0,0,0.1,0.1,0.1,0.1C844,160.1,844,160.1,850.5,160.2L850.5,160.2z"/>
	<path class="st2" d="M850.5,160.2c-6.5-0.1-6.5-0.1-6.4,6.4c-6.4,0-12.9,0-19.3,0c0.1-6.4,0.1-6.4-6.2-6.4c-2.2,0-4.4,0-6.6,0
		c0.1-6.5,0.1-6.5-6.4-6.4c0.1-6.4,0.1-6.5-6.2-6.4c-6.5,0-12.9,0-19.4,0c0-3.5-0.1-7,0.1-10.4c0.1-1.9-0.3-2.7-2.4-2.5
		c-1.3,0.2-2.7,0.1-4.1,0.1c0.1-6.5,0.1-6.5-6.4-6.4c0.1-6.5,0.1-6.5-6.4-6.4c0.1-6.5,0.1-6.5-6.4-6.4c0-4.3,0-8.6,0-12.9
		c3.5,0,7-0.1,10.4,0.1c1.9,0.1,2.7-0.3,2.5-2.4c-0.2-1.3-0.1-2.7-0.1-4.1c6.5,0.1,6.5,0.1,6.4-6.4c6.5,0.1,6.5,0.1,6.4-6.4
		c6.5,0.1,6.5,0.1,6.4-6.4c5.4,0,10.8-0.1,16.2,0.1c2.4,0.1,3.5-0.4,3.1-3c-0.2-1.1-0.1-2.3-0.1-3.5c6.5,0.1,6.5,0.1,6.4-6.4
		c6.5,0.1,6.5,0.1,6.4-6.4c6.4,0.1,6.5,0.1,6.4-6.2c0-4.3,0-8.7,0-13c3.5,0,7-0.1,10.4,0.1c1.9,0.1,2.7-0.3,2.5-2.4
		c-0.2-1.3-0.1-2.7-0.1-4.1c6.5,0.1,6.5,0.1,6.4-6.4c8.6,0,17.1,0,25.7,0c-0.1,6.5-0.1,6.5,6.4,6.4c0,3.5,0.1,7-0.1,10.4
		c-0.1,1.9,0.3,2.7,2.4,2.5c1.3-0.2,2.7-0.1,4.1-0.1c0,0.7,0,1.5,0,2.2c0,4.5,0,4.5,4.6,4.3c1.3-0.1,1.9-0.3,1.8-1.7
		c-0.1-1.6-0.1-3.2-0.1-4.7c2.2,0,4.3,0,6.5,0c-0.1,6.5-0.1,6.5,6.4,6.4c0,5.4,0.1,10.8-0.1,16.2c-0.1,2.4,0.4,3.5,3,3.1
		c1.1-0.2,2.3-0.1,3.5-0.1c0,3.5,0.1,7-0.1,10.4c-0.1,1.9,0.3,2.7,2.4,2.5c1.3-0.2,2.7-0.1,4.1-0.1c0,0.7,0,1.5,0,2.2
		c0,4.5,0,4.5,4.6,4.3c1.3-0.1,1.9-0.3,1.8-1.7c-0.1-1.6-0.1-3.2-0.1-4.7c6.5,0.1,6.5,0.1,6.4-6.4c2.2,0,4.3,0,6.5,0
		c0,5.4,0.1,10.8-0.1,16.2c-0.1,2.4,0.4,3.5,3,3.1c1.1-0.2,2.3-0.1,3.5-0.1c0,0.7,0,1.5,0,2.2c0,4.5,0,4.5,4.6,4.3
		c1.3-0.1,1.9-0.3,1.8-1.7c-0.1-1.6-0.1-3.2-0.1-4.7c2.2,0,4.3,0,6.5,0c0,6.4-0.1,12.8-0.1,19.2c0,0,0.1,0,0.1,0
		c-6.4,0.1-6.4,0.1-6.5,6.5l0.1-0.1c-1.6,0-3.2,0.1-4.7,0c-1.1,0-1.6,0.1-1.8,1.5c-0.4,4.9-0.4,4.9,4.3,4.9c0.7,0,1.5,0,2.2,0
		l-0.1-0.1c0.1,6.4,0.1,6.4,6.5,6.5c0,0-0.1,0-0.1,0c0,4.3,0.1,8.6,0.1,12.8c-3.5,0-7,0.1-10.4-0.1c-1.9-0.1-2.7,0.3-2.5,2.4
		c0.2,1.3,0.1,2.7,0.1,4.1c-3.5,0-7,0.1-10.4-0.1c-1.9-0.1-2.7,0.3-2.5,2.4c0.2,1.3,0.1,2.7,0.1,4.1c-4.3,0-8.6,0-12.9,0
		c0-0.7,0-1.5,0-2.2c0-4.5,0-4.5-4.6-4.3c-1.3,0.1-1.9,0.3-1.8,1.7c0.1,1.6,0.1,3.2,0.1,4.7c-3.5,0-7,0.1-10.4-0.1
		c-1.9-0.1-2.7,0.3-2.5,2.4c0.2,1.3,0.1,2.7,0.1,4.1c-8.6,0-17.1,0-25.7,0c0.1-6.4,0.1-6.4-6.2-6.4c-2.2,0-4.4,0-6.6,0
		c0-0.7,0-1.5,0-2.2c0-4.5,0-4.5-4.6-4.3c-1.3,0.1-1.9,0.3-1.8,1.7C850.6,157.1,850.5,158.7,850.5,160.2z M786.5,128.2
		c0-1.6,0-3.2,0-4.7c0-0.7,0.1-1.4-0.9-1.7c-3.7-1.1-5.4,0.2-5.5,3.8c-0.1,2.1,0.7,2.8,2.7,2.6C784,128.1,785.2,128.2,786.5,128.2
		c0,6.4,0,6.4,6.5,6.4c0,0.9,0.1,1.7,0,2.6c-0.6,3.3,0.8,4.1,3.9,3.9c6.5-0.3,13-0.1,19.5-0.1c1.3,0,2.1,0,2.2,1.8
		c0.2,4.6,0.3,4.6,5,4.6c1.4,0,2.8,0.2,4.2,0c2.9-0.4,4.1,0.7,3.6,3.6c-0.4,2.2,0.4,3.1,2.7,2.9c2.2-0.2,4.5-0.3,6.7,0
		c3,0.4,3.8-0.8,3.4-3.5c-0.4-2.4,0.5-3.1,2.9-3c4.1,0.2,8.3-0.1,12.5,0.1c3,0.2,4.4-0.5,3.8-3.7c-0.1-0.8-0.6-2.3,0.6-2.5
		c1.6-0.3,3.5-0.5,5.1,0c1.5,0.4,0.8,2.2,0.7,3.4c-0.1,2.2,0.4,3.3,2.8,2.8c3.2-0.6,4.2,0.8,3.7,3.8c-0.4,2.1,0.5,2.8,2.6,2.7
		c4.2-0.2,8.3-0.3,12.5,0c3.2,0.2,4.8-0.6,4.2-4c-0.3-1.6,0.2-2.5,2.1-2.5c4.2,0,4.2-0.1,4.2-4.5c0-0.6,0-1.3,0-1.9
		c1.6,0,3.2,0,4.7,0c0.7,0,1.4,0.1,1.7-0.9c1.1-3.7-0.2-5.4-3.9-5.5c-2.1-0.1-2.8,0.7-2.6,2.7c0.1,1.3,0,2.5,0,3.8
		c-7.3,0-14.6-0.2-21.9,0.1c-3.1,0.1-4.2-0.8-3.7-3.8c0.2-1.3,0.4-2.7-1.9-2.7c-4.5-0.1-4.5-0.3-4.5-4.8c0-0.5,0-1.1,0-1.6
		c1.6,0,3.2,0,4.7,0c0.7,0,1.4,0.1,1.7-0.9c1.1-3.7-0.2-5.4-3.9-5.5c-2.1-0.1-2.8,0.7-2.6,2.7c0.1,1.3,0,2.5,0,3.8
		c-0.5,0-1.1,0-1.6,0c-4.5,0-4.6,0-4.8,4.6c-0.1,1.7-0.8,1.9-2.2,1.9c-4.5-0.1-9,0.1-13.4-0.1c-2.7-0.1-4.3,0.4-3.7,3.5
		c0.5,2.4-0.6,3.1-2.9,3c-4.3-0.2-8.5-0.2-12.8,0c-2.7,0.1-4.1-0.5-3.5-3.4c0.5-2.6-0.7-3.5-3.1-3c-2.7,0.5-3.6-0.6-3.3-3.3
		c0.1-1,0.7-2.4-0.7-3.1c-3.1-1.4-5.7,0.3-5.6,3.7c0.1,2.1-0.5,2.7-2.7,2.7c-5.5-0.1-11.1,0-16.6,0
		C792.9,128.1,792.9,128.1,786.5,128.2z M876.1,57.8c0,1.6,0,3.2,0,4.7c0,0.7-0.1,1.4,0.9,1.7c3.7,1.1,5.4-0.2,5.5-3.8
		c0.1-2.1-0.7-2.8-2.7-2.6C878.6,57.9,877.4,57.8,876.1,57.8c0-1.5,0-3.1,0-4.7c0-0.7,0.1-1.4-0.9-1.7c-3.7-1.1-5.4,0.2-5.5,3.8
		c-0.1,2.1,0.7,2.8,2.7,2.6C873.6,57.7,874.9,57.8,876.1,57.8z M837.7,64.2c3.2,0,6.4-0.2,9.5,0.1c2.6,0.2,3.4-0.5,3.4-3.2
		c0-2.6-0.7-3.7-3.3-3.3c-1,0.2-2.1,0-3.2,0C837.6,57.8,837.6,57.8,837.7,64.2c-1.5,0-3.1,0-4.7,0c-0.7,0-1.4-0.1-1.7,0.9
		c-1.1,3.7,0.2,5.4,3.9,5.5c2.1,0.1,2.8-0.7,2.6-2.7C837.6,66.7,837.7,65.4,837.7,64.2z"/>
	<path d="M946.5,121.8c0.1-6.4,0.1-6.4,6.5-6.5C952.8,121.7,952.8,121.7,946.5,121.8z"/>
	<path d="M946.6,128.2c-0.7,0-1.5,0-2.2,0c-4.7,0-4.7-0.1-4.3-4.9c0.1-1.4,0.7-1.5,1.8-1.5c1.6,0,3.2,0,4.7,0
		C946.6,123.9,946.6,126.1,946.6,128.2z"/>
	<path d="M953,134.6c-6.4-0.1-6.4-0.1-6.5-6.5C952.8,128.3,952.8,128.3,953,134.6z"/>
	<path class="st3" d="M792.9,134.6c5.5,0,11.1-0.1,16.6,0c2.1,0.1,2.7-0.6,2.7-2.7c-0.1-3.4,2.5-5.1,5.6-3.7
		c1.5,0.6,0.9,2.1,0.7,3.1c-0.3,2.7,0.7,3.7,3.3,3.3c2.4-0.4,3.7,0.4,3.1,3c-0.6,2.9,0.8,3.6,3.5,3.4c4.3-0.2,8.5-0.2,12.8,0
		c2.4,0.1,3.4-0.6,2.9-3c-0.6-3.1,1-3.7,3.7-3.5c4.5,0.2,9,0,13.4,0.1c1.4,0,2.1-0.2,2.2-1.9c0.2-4.6,0.3-4.6,4.8-4.6
		c0.5,0,1.1,0,1.6,0l0,0c0,0.5,0,1.1,0,1.6c0,4.5,0,4.7,4.5,4.8c2.3,0.1,2.1,1.4,1.9,2.7c-0.5,3,0.6,3.9,3.7,3.8
		c7.3-0.3,14.6-0.1,21.9-0.1l0,0c0,0.6,0,1.3,0,1.9c0,4.3,0,4.4-4.2,4.5c-2,0-2.5,0.8-2.1,2.5c0.6,3.5-1,4.3-4.2,4
		c-4.1-0.3-8.3-0.2-12.5,0c-2.1,0.1-3-0.6-2.6-2.7c0.5-3-0.5-4.4-3.7-3.8c-2.3,0.4-2.9-0.7-2.8-2.8c0.1-1.1,0.8-2.9-0.7-3.4
		c-1.6-0.5-3.4-0.3-5.1,0c-1.1,0.2-0.7,1.7-0.6,2.5c0.5,3.2-0.9,3.9-3.8,3.7c-4.1-0.3-8.3,0.1-12.5-0.1c-2.4-0.1-3.4,0.6-2.9,3
		c0.5,2.7-0.4,3.9-3.4,3.5c-2.2-0.3-4.5-0.2-6.7,0c-2.3,0.2-3.1-0.7-2.7-2.9c0.5-2.9-0.6-4-3.6-3.6c-1.4,0.2-2.8,0-4.2,0
		c-4.7,0-4.8,0-5-4.6c-0.1-1.8-1-1.8-2.2-1.8c-6.5,0-13-0.2-19.5,0.1c-3.2,0.1-4.5-0.7-3.9-3.9C793,136.3,792.9,135.4,792.9,134.6
		L792.9,134.6z"/>
	<path class="st3" d="M837.7,64.2c-0.1-6.4-0.1-6.4,6.4-6.4c1.1,0,2.1,0.1,3.2,0c2.7-0.4,3.3,0.6,3.3,3.3c0,2.7-0.8,3.4-3.4,3.2
		C844,64,840.8,64.2,837.7,64.2L837.7,64.2z"/>
	<path class="st3" d="M876.1,57.8c-1.3,0-2.5-0.1-3.8,0c-2,0.2-2.8-0.4-2.7-2.6c0.1-3.7,1.8-4.9,5.5-3.8c1,0.3,0.9,1,0.9,1.7
		C876.1,54.6,876.1,56.2,876.1,57.8L876.1,57.8z"/>
	<path class="st3" d="M869.7,128.2c0-1.3,0.1-2.5,0-3.8c-0.2-2,0.4-2.8,2.6-2.7c3.7,0.1,4.9,1.8,3.9,5.5c-0.3,1-1,0.9-1.7,0.9
		C872.8,128.2,871.3,128.2,869.7,128.2C869.7,128.2,869.7,128.2,869.7,128.2z"/>
	<path class="st3" d="M792.9,134.6c-6.5,0.1-6.5,0.1-6.4-6.4l0,0C792.9,128.1,792.9,128.1,792.9,134.6
		C792.9,134.6,792.9,134.6,792.9,134.6z"/>
	<path class="st3" d="M901.7,141c0-1.3,0.1-2.5,0-3.8c-0.2-2,0.4-2.8,2.6-2.7c3.7,0.1,4.9,1.8,3.9,5.5c-0.3,1-1,0.9-1.7,0.9
		C904.9,141,903.3,141,901.7,141C901.7,141,901.7,141,901.7,141z"/>
	<path class="st3" d="M837.7,64.2c0,1.3-0.1,2.5,0,3.8c0.2,2-0.4,2.8-2.6,2.7c-3.7-0.1-4.9-1.8-3.9-5.5c0.3-1,1-0.9,1.7-0.9
		C834.6,64.2,836.1,64.2,837.7,64.2C837.7,64.2,837.7,64.2,837.7,64.2z"/>
	<path class="st3" d="M876.1,57.8c1.3,0,2.5,0.1,3.8,0c2-0.2,2.8,0.4,2.7,2.6c-0.1,3.7-1.8,4.9-5.5,3.8c-1-0.3-0.9-1-0.9-1.7
		C876.1,60.9,876.1,59.3,876.1,57.8C876.1,57.8,876.1,57.8,876.1,57.8z"/>
	<path class="st3" d="M786.5,128.2c-1.3,0-2.5-0.1-3.8,0c-2,0.2-2.8-0.4-2.7-2.6c0.1-3.7,1.8-4.9,5.5-3.8c1,0.3,0.9,1,0.9,1.7
		C786.5,125.1,786.5,126.6,786.5,128.2C786.5,128.2,786.5,128.2,786.5,128.2z"/>
</g>
<g>
	<path d="M624.7,388c0-2.1,0-4.3,0-6.4l-0.1,0.1c8.6,0,17.1,0,25.7,0l-0.1-0.1c0,2.1,0,4.3,0,6.4C641.8,388,633.2,388,624.7,388z"/>
	<path d="M599.1,381.6c0,2.1,0,4.3,0,6.4c-6.4,0-12.8,0-19.2,0c0-2.1,0-4.3,0-6.4l-0.1,0.1C586.3,381.6,592.7,381.6,599.1,381.6
		L599.1,381.6z"/>
	<path d="M714.3,330.4c-2.2,0-4.3,0-6.5,0c0-6.4,0.1-12.8,0.1-19.2c0,0-0.1,0.1-0.1,0.1c2.1,0,4.3,0,6.4,0
		C714.3,317.6,714.3,324,714.3,330.4z"/>
	<path d="M707.9,349.6c2.2,0,4.3,0,6.5,0c0,4.3,0,8.5,0,12.8c-2.1,0-4.3,0-6.4,0l0.1,0.1C708,358.2,707.9,353.9,707.9,349.6z"/>
	<path d="M599.1,240.8c-0.1-6.4-0.1-6.4,6.2-6.4c5.4,0,10.8,0.1,16.2,0c2.3-0.1,3.6,0.3,3.1,3c-0.2,1.1-0.1,2.3-0.1,3.5
		c0,0,0.1-0.1,0.1-0.1C616.2,240.7,607.6,240.7,599.1,240.8L599.1,240.8z"/>
	<path d="M560.7,368.8c-7.6,0-15.3,0-22.9,0.1c-2.1,0-3.2-0.3-2.8-2.7c0.2-1.2,0.1-2.5,0.1-3.8c0,0-0.1,0.1-0.1,0.1
		c6.5,0,12.9,0,19.4,0C560.8,362.4,560.8,362.4,560.7,368.8L560.7,368.8z"/>
	<path d="M573.5,272.8c0-5.4,0.1-10.8-0.1-16.2c-0.1-2.4,0.4-3.5,3-3.1c1.1,0.2,2.3,0.1,3.5,0.1l-0.1-0.1c0,4.3,0,8.7,0,13
		C579.9,272.9,579.9,272.9,573.5,272.8L573.5,272.8z"/>
	<path d="M656.7,266.4c6.4-0.1,6.5-0.1,6.4,6.2c0,4.3,0,8.7,0,13l0.1-0.1c-1.2,0-2.3-0.1-3.5,0.1c-2.6,0.4-3.1-0.8-3-3.1
		C656.8,277.1,656.8,271.7,656.7,266.4C656.8,266.3,656.7,266.4,656.7,266.4z"/>
	<path d="M541.5,292c-0.1-6.4-0.1-6.4,6.2-6.4c4.3,0,8.7,0,13,0l-0.1-0.1c0,1.2-0.1,2.3,0.1,3.5c0.4,2.6-0.8,3.1-3.1,3
		C552.2,291.9,546.8,292,541.5,292L541.5,292z"/>
	<path d="M688.7,292c6.4-0.1,6.5-0.1,6.4,6.2c0,4.3,0,8.7,0,13l0.1-0.1c-1.2,0-2.3-0.1-3.5,0.1c-2.6,0.4-3.1-0.8-3-3.1
		C688.9,302.7,688.8,297.3,688.7,292L688.7,292z"/>
	<path d="M509.5,330.3c-6.4,0.1-6.4,0.1-6.4-6.2c0-0.1,0-0.2,0-0.3c0-6.3,0-6.3,6.4-6.2l-0.1-0.1
		C509.4,321.8,509.4,326.1,509.5,330.3L509.5,330.3z"/>
	<path d="M663.1,285.6c6.4-0.1,6.5-0.1,6.4,6.2c0,2.2,0,4.4,0,6.6l0.1-0.1c-1.4,0-2.8-0.1-4.1,0.1c-2,0.3-2.5-0.6-2.4-2.5
		C663.2,292.5,663.2,289,663.1,285.6L663.1,285.6z"/>
	<path d="M579.9,381.6c-3.5,0-7-0.1-10.4,0.1c-1.9,0.1-2.7-0.3-2.5-2.4c0.2-1.3,0.1-2.7,0.1-4.1l-0.1,0.1c2.2,0,4.4,0,6.6,0
		C580,375.2,580,375.2,579.9,381.6L579.9,381.6z"/>
	<path d="M535.1,362.4c-6.4,0.1-6.5,0.1-6.4-6.2c0-2.2,0-4.4,0-6.6c0,0-0.1,0.1-0.1,0.1c1.4,0,2.8,0.1,4.1-0.1
		c2-0.3,2.5,0.6,2.4,2.5C535,355.5,535,359,535.1,362.4L535.1,362.4z"/>
	<path d="M579.9,253.6c-0.1-6.4-0.1-6.5,6.2-6.4c2.2,0,4.4,0,6.6,0c0,0-0.1-0.1-0.1-0.1c0,1.4-0.1,2.8,0.1,4.1
		c0.3,2-0.6,2.5-2.5,2.4C586.8,253.5,583.3,253.5,579.9,253.6L579.9,253.6z"/>
	<path d="M631.1,247.2c6.4-0.1,6.4-0.1,6.4,6.2c0,2.2,0,4.4,0,6.6l0.1-0.1c-1.4,0-2.8-0.1-4.1,0.1c-2,0.3-2.5-0.6-2.4-2.5
		C631.2,254.1,631.1,250.6,631.1,247.2L631.1,247.2z"/>
	<path d="M509.5,317.6c-0.1-6.4-0.1-6.5,6.2-6.4c2.2,0,4.4,0,6.6,0c0,0-0.1-0.1-0.1-0.1c0,1.4-0.1,2.8,0.1,4.1
		c0.3,2-0.6,2.5-2.5,2.4C516.4,317.5,512.9,317.6,509.5,317.6L509.5,317.6z"/>
	<path d="M695.1,311.2c2.2,0,4.3,0,6.5,0l-0.1-0.1c0,1.6-0.1,3.2,0.1,4.7c0.1,1.4-0.5,1.7-1.8,1.7c-4.6,0.2-4.6,0.2-4.6-4.3
		C695.1,312.6,695.2,311.9,695.1,311.2L695.1,311.2z"/>
	<path d="M701.6,311.2c0-1.5,0.1-3-0.1-4.4c-0.2-1.7,0.5-2.1,2.1-2.1c4.3,0,4.3-0.1,4.3,4.3c0,0.7,0,1.5,0,2.2c0,0,0.1-0.1,0.1-0.1
		C705.8,311.1,703.7,311.1,701.6,311.2L701.6,311.2z"/>
	<path d="M515.9,336.7c-6.5,0.2-6.5,0.2-6.4-6.4c0,0-0.1,0.1-0.1,0.1C516,330.3,516,330.3,515.9,336.7L515.9,336.7z"/>
	<path d="M650.3,260c6.5-0.2,6.5-0.2,6.4,6.4c0,0,0.1-0.1,0.1-0.1C650.2,266.5,650.2,266.5,650.3,260L650.3,260z"/>
	<path d="M522.3,343.1c-6.5,0.2-6.5,0.2-6.4-6.4c0,0-0.1,0.1-0.1,0.1C522.4,336.7,522.4,336.7,522.3,343.1L522.3,343.1z"/>
	<path d="M528.7,349.6c-6.5,0.1-6.5,0.1-6.4-6.4c0,0-0.1,0.1-0.1,0.1C528.8,343.1,528.8,343.1,528.7,349.6L528.7,349.6z"/>
	<path d="M522.3,311.2c-0.1-6.6-0.1-6.6,6.4-6.4l-0.1-0.1C528.8,311.3,528.8,311.3,522.3,311.2L522.3,311.2z"/>
	<path d="M669.5,298.4c2.2,0,4.3,0,6.5,0c0,0-0.1-0.1-0.1-0.1c0,1.6-0.1,3.2,0.1,4.7c0.1,1.4-0.5,1.7-1.8,1.7
		c-4.6,0.2-4.6,0.2-4.6-4.3C669.5,299.8,669.6,299.1,669.5,298.4L669.5,298.4z"/>
	<path d="M528.7,304.8c-0.1-6.6-0.1-6.6,6.4-6.4l-0.1-0.1C535.2,304.9,535.2,304.9,528.7,304.8L528.7,304.8z"/>
	<path d="M624.7,240.8c6.5-0.1,6.5-0.1,6.4,6.4c0,0,0.1-0.1,0.1-0.1C624.6,247.3,624.6,247.3,624.7,240.8L624.7,240.8z"/>
	<path d="M637.5,260c2.2,0,4.3,0,6.5,0c0,0-0.1-0.1-0.1-0.1c0,1.6-0.1,3.2,0.1,4.7c0.1,1.4-0.5,1.7-1.8,1.7
		c-4.6,0.2-4.6,0.2-4.6-4.3C637.5,261.4,637.5,260.7,637.5,260L637.5,260z"/>
	<path d="M676,298.4c-0.1-6.6-0.1-6.6,6.4-6.4l-0.1-0.1C682.4,298.5,682.4,298.5,676,298.4L676,298.4z"/>
	<path d="M592.7,247.2c-0.1-6.5-0.1-6.5,6.4-6.4c0,0-0.1-0.1-0.1-0.1C599.2,247.3,599.2,247.3,592.7,247.2L592.7,247.2z"/>
	<path d="M567.1,375.2c-6.5,0.1-6.5,0.1-6.4-6.4c0,0-0.1,0.1-0.1,0.1C567.2,368.7,567.2,368.7,567.1,375.2L567.1,375.2z"/>
	<path d="M535.1,298.4c-0.1-6.5-0.1-6.5,6.4-6.4c0,0-0.1-0.1-0.1-0.1C541.6,298.5,541.6,298.5,535.1,298.4L535.1,298.4z"/>
	<path d="M682.4,292c0-1.5,0.1-3-0.1-4.4c-0.2-1.7,0.5-2.1,2.1-2.1c4.3,0,4.3-0.1,4.3,4.3c0,0.7,0,1.5,0,2.2c0,0,0.1-0.1,0.1-0.1
		C686.6,291.9,684.5,291.9,682.4,292L682.4,292z"/>
	<path d="M644,260c0-1.5,0.1-3-0.1-4.4c-0.2-1.7,0.5-2.1,2.1-2.1c4.3,0,4.3-0.1,4.3,4.3c0,0.7,0,1.5,0,2.2c0,0,0.1-0.1,0.1-0.1
		C648.2,259.9,646,259.9,644,260L644,260z"/>
	<path d="M560.7,285.6c-0.1-6.6-0.1-6.6,6.4-6.4l-0.1-0.1C567.2,285.7,567.2,285.7,560.7,285.6L560.7,285.6z"/>
	<path d="M567.1,279.2c-0.1-6.5-0.1-6.5,6.4-6.4c0,0-0.1-0.1-0.1-0.1C573.6,279.3,573.6,279.3,567.1,279.2L567.1,279.2z"/>
	<path d="M682.3,375.2c0.1,6.4,0.1,6.4-6.2,6.4c-0.1,0-0.2,0-0.3,0c-6.3,0-6.3,0-6.2-6.4l-0.1,0.1
		C673.8,375.2,678.1,375.2,682.3,375.2L682.3,375.2z"/>
	<path d="M663.1,375.2c0.1,6.4,0.1,6.4-6.2,6.4c-2.2,0-4.4,0-6.6,0c0,0,0.1,0.1,0.1,0.1c0-1.4,0.1-2.8-0.1-4.1
		c-0.3-2,0.6-2.5,2.5-2.4C656.2,375.3,659.7,375.2,663.1,375.2C663.2,375.2,663.1,375.2,663.1,375.2z"/>
	<path d="M695.1,368.8c0.1,6.4,0.1,6.4-6.2,6.4c-2.2,0-4.4,0-6.6,0c0,0,0.1,0.1,0.1,0.1c0-1.4,0.1-2.8-0.1-4.1
		c-0.3-2,0.6-2.5,2.5-2.4C688.2,368.9,691.7,368.8,695.1,368.8L695.1,368.8z"/>
	<path d="M707.9,362.3c0.1,6.4,0.1,6.5-6.2,6.4c-2.2,0-4.4,0-6.6,0c0,0,0.1,0.1,0.1,0.1c0-1.4,0.1-2.8-0.1-4.1
		c-0.3-2,0.6-2.5,2.5-2.4C701,362.5,704.5,362.4,707.9,362.3L707.9,362.3z"/>
	<path d="M669.6,375.2c-2.2,0-4.3,0-6.5,0c0,0,0.1,0.1,0.1,0.1c0-1.6,0.1-3.2-0.1-4.7c-0.1-1.4,0.5-1.7,1.8-1.7
		c4.6-0.2,4.6-0.2,4.6,4.3C669.5,373.8,669.5,374.5,669.6,375.2L669.6,375.2z"/>
	<path d="M624.8,381.6c-3.5,0-7-0.1-10.4,0.1c-1.9,0.1-2.7-0.3-2.5-2.4c0.2-1.3,0.1-2.7,0.1-4.1l-0.1,0.1c2.2,0,4.4,0,6.6,0
		C624.8,375.2,624.8,375.2,624.8,381.6L624.8,381.6z"/>
	<path d="M612,375.2c-2.2,0-4.3,0-6.5,0l0.1,0.1c0-1.6,0.1-3.2-0.1-4.7c-0.1-1.4,0.5-1.7,1.8-1.7c4.6-0.2,4.6-0.2,4.6,4.3
		C611.9,373.8,611.9,374.5,612,375.2C611.9,375.2,612,375.2,612,375.2z"/>
	<path d="M605.5,375.2c0.1,6.5,0.1,6.5-6.4,6.4c0,0,0.1,0.1,0.1,0.1C599,375.1,599,375.1,605.5,375.2L605.5,375.2z"/>
	<path class="st2" d="M605.5,375.2c-6.5-0.1-6.5-0.1-6.4,6.4c-6.4,0-12.9,0-19.3,0c0.1-6.4,0.1-6.4-6.2-6.4c-2.2,0-4.4,0-6.6,0
		c0.1-6.5,0.1-6.5-6.4-6.4c0.1-6.4,0.1-6.5-6.2-6.4c-6.5,0-12.9,0-19.4,0c0-3.5-0.1-7,0.1-10.4c0.1-1.9-0.3-2.7-2.4-2.5
		c-1.3,0.2-2.7,0.1-4.1,0.1c0.1-6.5,0.1-6.5-6.4-6.4c0.1-6.5,0.1-6.5-6.4-6.4c0.1-6.5,0.1-6.5-6.4-6.4c0-4.3,0-8.6,0-12.9
		c3.5,0,7-0.1,10.4,0.1c1.9,0.1,2.7-0.3,2.5-2.4c-0.2-1.3-0.1-2.7-0.1-4.1c6.5,0.1,6.5,0.1,6.4-6.4c6.5,0.1,6.5,0.1,6.4-6.4
		c6.5,0.1,6.5,0.1,6.4-6.4c5.4,0,10.8-0.1,16.2,0.1c2.4,0.1,3.5-0.4,3.1-3c-0.2-1.1-0.1-2.3-0.1-3.5c6.5,0.1,6.5,0.1,6.4-6.4
		c6.5,0.1,6.5,0.1,6.4-6.4c6.4,0.1,6.5,0.1,6.4-6.2c0-4.3,0-8.7,0-13c3.5,0,7-0.1,10.4,0.1c1.9,0.1,2.7-0.3,2.5-2.4
		c-0.2-1.3-0.1-2.7-0.1-4.1c6.5,0.1,6.5,0.1,6.4-6.4c8.6,0,17.1,0,25.7,0c-0.1,6.5-0.1,6.5,6.4,6.4c0,3.5,0.1,7-0.1,10.4
		c-0.1,1.9,0.3,2.7,2.4,2.5c1.3-0.2,2.7-0.1,4.1-0.1c0,0.7,0,1.5,0,2.2c0,4.5,0,4.5,4.6,4.3c1.3-0.1,1.9-0.3,1.8-1.7
		c-0.1-1.6-0.1-3.2-0.1-4.7c2.2,0,4.3,0,6.5,0c-0.1,6.5-0.1,6.5,6.4,6.4c0,5.4,0.1,10.8-0.1,16.2c-0.1,2.4,0.4,3.5,3,3.1
		c1.1-0.2,2.3-0.1,3.5-0.1c0,3.5,0.1,7-0.1,10.4c-0.1,1.9,0.3,2.7,2.4,2.5c1.3-0.2,2.7-0.1,4.1-0.1c0,0.7,0,1.5,0,2.2
		c0,4.5,0,4.5,4.6,4.3c1.3-0.1,1.9-0.3,1.8-1.7c-0.1-1.6-0.1-3.2-0.1-4.7c6.5,0.1,6.5,0.1,6.4-6.4c2.2,0,4.3,0,6.5,0
		c0,5.4,0.1,10.8-0.1,16.2c-0.1,2.4,0.4,3.5,3,3.1c1.1-0.2,2.3-0.1,3.5-0.1c0,0.7,0,1.5,0,2.2c0,4.5,0,4.5,4.6,4.3
		c1.3-0.1,1.9-0.3,1.8-1.7c-0.1-1.6-0.1-3.2-0.1-4.7c2.2,0,4.3,0,6.5,0c0,6.4-0.1,12.8-0.1,19.2c0,0,0.1,0,0.1,0
		c-6.4,0.1-6.4,0.1-6.5,6.5l0.1-0.1c-1.6,0-3.2,0.1-4.7,0c-1.1,0-1.6,0.1-1.8,1.5c-0.4,4.9-0.4,4.9,4.3,4.9c0.7,0,1.5,0,2.2,0
		l-0.1-0.1c0.1,6.4,0.1,6.4,6.5,6.5c0,0-0.1,0-0.1,0c0,4.3,0.1,8.6,0.1,12.8c-3.5,0-7,0.1-10.4-0.1c-1.9-0.1-2.7,0.3-2.5,2.4
		c0.2,1.3,0.1,2.7,0.1,4.1c-3.5,0-7,0.1-10.4-0.1c-1.9-0.1-2.7,0.3-2.5,2.4c0.2,1.3,0.1,2.7,0.1,4.1c-4.3,0-8.6,0-12.9,0
		c0-0.7,0-1.5,0-2.2c0-4.5,0-4.5-4.6-4.3c-1.3,0.1-1.9,0.3-1.8,1.7c0.1,1.6,0.1,3.2,0.1,4.7c-3.5,0-7,0.1-10.4-0.1
		c-1.9-0.1-2.7,0.3-2.5,2.4c0.2,1.3,0.1,2.7,0.1,4.1c-8.6,0-17.1,0-25.7,0c0.1-6.4,0.1-6.4-6.2-6.4c-2.2,0-4.4,0-6.6,0
		c0-0.7,0-1.5,0-2.2c0-4.5,0-4.5-4.6-4.3c-1.3,0.1-1.9,0.3-1.8,1.7C605.6,372.1,605.5,373.7,605.5,375.2z M541.5,343.2
		c0-1.6,0-3.2,0-4.7c0-0.7,0.1-1.4-0.9-1.7c-3.7-1.1-5.4,0.2-5.5,3.8c-0.1,2.1,0.7,2.8,2.7,2.6C539,343.1,540.2,343.2,541.5,343.2
		c0,6.4,0,6.4,6.5,6.4c0,0.9,0.1,1.7,0,2.6c-0.6,3.3,0.8,4.1,3.9,3.9c6.5-0.3,13-0.1,19.5-0.1c1.3,0,2.1,0,2.2,1.8
		c0.2,4.6,0.3,4.6,5,4.6c1.4,0,2.8,0.2,4.2,0c2.9-0.4,4.1,0.7,3.6,3.6c-0.4,2.2,0.4,3.1,2.7,2.9c2.2-0.2,4.5-0.3,6.7,0
		c3,0.4,3.8-0.8,3.4-3.5c-0.4-2.4,0.5-3.1,2.9-3c4.1,0.2,8.3-0.1,12.5,0.1c3,0.2,4.4-0.5,3.8-3.7c-0.1-0.8-0.6-2.3,0.6-2.5
		c1.6-0.3,3.5-0.5,5.1,0c1.5,0.4,0.8,2.2,0.7,3.4c-0.1,2.2,0.4,3.3,2.8,2.8c3.2-0.6,4.2,0.8,3.7,3.8c-0.4,2.1,0.5,2.8,2.6,2.7
		c4.2-0.2,8.3-0.3,12.5,0c3.2,0.2,4.8-0.6,4.2-4c-0.3-1.6,0.2-2.5,2.1-2.5c4.2,0,4.2-0.1,4.2-4.5c0-0.6,0-1.3,0-1.9
		c1.6,0,3.2,0,4.7,0c0.7,0,1.4,0.1,1.7-0.9c1.1-3.7-0.2-5.4-3.9-5.5c-2.1-0.1-2.8,0.7-2.6,2.7c0.1,1.3,0,2.5,0,3.8
		c-7.3,0-14.6-0.2-21.9,0.1c-3.1,0.1-4.2-0.8-3.7-3.8c0.2-1.3,0.4-2.7-1.9-2.7c-4.5-0.1-4.5-0.3-4.5-4.8c0-0.5,0-1.1,0-1.6
		c1.6,0,3.2,0,4.7,0c0.7,0,1.4,0.1,1.7-0.9c1.1-3.7-0.2-5.4-3.9-5.5c-2.1-0.1-2.8,0.7-2.6,2.7c0.1,1.3,0,2.5,0,3.8
		c-0.5,0-1.1,0-1.6,0c-4.5,0-4.6,0-4.8,4.6c-0.1,1.7-0.8,1.9-2.2,1.9c-4.5-0.1-9,0.1-13.4-0.1c-2.7-0.1-4.3,0.4-3.7,3.5
		c0.5,2.4-0.6,3.1-2.9,3c-4.3-0.2-8.5-0.2-12.8,0c-2.7,0.1-4.1-0.5-3.5-3.4c0.5-2.6-0.7-3.5-3.1-3c-2.7,0.5-3.6-0.6-3.3-3.3
		c0.1-1,0.7-2.4-0.7-3.1c-3.1-1.4-5.7,0.3-5.6,3.7c0.1,2.1-0.5,2.7-2.7,2.7c-5.5-0.1-11.1,0-16.6,0
		C547.9,343.1,547.9,343.1,541.5,343.2z M631.1,272.8c0,1.6,0,3.2,0,4.7c0,0.7-0.1,1.4,0.9,1.7c3.7,1.1,5.4-0.2,5.5-3.8
		c0.1-2.1-0.7-2.8-2.7-2.6C633.6,272.9,632.4,272.8,631.1,272.8c0-1.5,0-3.1,0-4.7c0-0.7,0.1-1.4-0.9-1.7c-3.7-1.1-5.4,0.2-5.5,3.8
		c-0.1,2.1,0.7,2.8,2.7,2.6C628.6,272.7,629.9,272.8,631.1,272.8z M592.7,279.2c3.2,0,6.4-0.2,9.5,0.1c2.6,0.2,3.4-0.5,3.4-3.2
		c0-2.6-0.7-3.7-3.3-3.3c-1,0.2-2.1,0-3.2,0C592.6,272.8,592.6,272.8,592.7,279.2c-1.5,0-3.1,0-4.7,0c-0.7,0-1.4-0.1-1.7,0.9
		c-1.1,3.7,0.2,5.4,3.9,5.5c2.1,0.1,2.8-0.7,2.6-2.7C592.6,281.7,592.7,280.4,592.7,279.2z"/>
	<path d="M701.5,336.8c0.1-6.4,0.1-6.4,6.5-6.5C707.8,336.7,707.8,336.7,701.5,336.8z"/>
	<path d="M701.6,343.2c-0.7,0-1.5,0-2.2,0c-4.7,0-4.7-0.1-4.3-4.9c0.1-1.4,0.7-1.5,1.8-1.5c1.6,0,3.2,0,4.7,0
		C701.6,338.9,701.6,341.1,701.6,343.2z"/>
	<path d="M708,349.6c-6.4-0.1-6.4-0.1-6.5-6.5C707.8,343.3,707.8,343.3,708,349.6z"/>
	<path class="st3" d="M547.9,349.6c5.5,0,11.1-0.1,16.6,0c2.1,0.1,2.7-0.6,2.7-2.7c-0.1-3.4,2.5-5.1,5.6-3.7
		c1.5,0.6,0.9,2.1,0.7,3.1c-0.3,2.7,0.7,3.7,3.3,3.3c2.4-0.4,3.7,0.4,3.1,3c-0.6,2.9,0.8,3.6,3.5,3.4c4.3-0.2,8.5-0.2,12.8,0
		c2.4,0.1,3.4-0.6,2.9-3c-0.6-3.1,1-3.7,3.7-3.5c4.5,0.2,9,0,13.4,0.1c1.4,0,2.1-0.2,2.2-1.9c0.2-4.6,0.3-4.6,4.8-4.6
		c0.5,0,1.1,0,1.6,0l0,0c0,0.5,0,1.1,0,1.6c0,4.5,0,4.7,4.5,4.8c2.3,0.1,2.1,1.4,1.9,2.7c-0.5,3,0.6,3.9,3.7,3.8
		c7.3-0.3,14.6-0.1,21.9-0.1l0,0c0,0.6,0,1.3,0,1.9c0,4.3,0,4.4-4.2,4.5c-2,0-2.5,0.8-2.1,2.5c0.6,3.5-1,4.3-4.2,4
		c-4.1-0.3-8.3-0.2-12.5,0c-2.1,0.1-3-0.6-2.6-2.7c0.5-3-0.5-4.4-3.7-3.8c-2.3,0.4-2.9-0.7-2.8-2.8c0.1-1.1,0.8-2.9-0.7-3.4
		c-1.6-0.5-3.4-0.3-5.1,0c-1.1,0.2-0.7,1.7-0.6,2.5c0.5,3.2-0.9,3.9-3.8,3.7c-4.1-0.3-8.3,0.1-12.5-0.1c-2.4-0.1-3.4,0.6-2.9,3
		c0.5,2.7-0.4,3.9-3.4,3.5c-2.2-0.3-4.5-0.2-6.7,0c-2.3,0.2-3.1-0.7-2.7-2.9c0.5-2.9-0.6-4-3.6-3.6c-1.4,0.2-2.8,0-4.2,0
		c-4.7,0-4.8,0-5-4.6c-0.1-1.8-1-1.8-2.2-1.8c-6.5,0-13-0.2-19.5,0.1c-3.2,0.1-4.5-0.7-3.9-3.9C548,351.3,547.9,350.4,547.9,349.6
		L547.9,349.6z"/>
	<path class="st3" d="M592.7,279.2c-0.1-6.4-0.1-6.4,6.4-6.4c1.1,0,2.1,0.1,3.2,0c2.7-0.4,3.3,0.6,3.3,3.3c0,2.7-0.8,3.4-3.4,3.2
		C599,279,595.8,279.2,592.7,279.2L592.7,279.2z"/>
	<path class="st3" d="M631.1,272.8c-1.3,0-2.5-0.1-3.8,0c-2,0.2-2.8-0.4-2.7-2.6c0.1-3.7,1.8-4.9,5.5-3.8c1,0.3,0.9,1,0.9,1.7
		C631.1,269.6,631.1,271.2,631.1,272.8L631.1,272.8z"/>
	<path class="st3" d="M624.7,343.2c0-1.3,0.1-2.5,0-3.8c-0.2-2,0.4-2.8,2.6-2.7c3.7,0.1,4.9,1.8,3.9,5.5c-0.3,1-1,0.9-1.7,0.9
		C627.8,343.2,626.3,343.2,624.7,343.2C624.7,343.2,624.7,343.2,624.7,343.2z"/>
	<path class="st3" d="M547.9,349.6c-6.5,0.1-6.5,0.1-6.4-6.4l0,0C547.9,343.1,547.9,343.1,547.9,349.6
		C547.9,349.6,547.9,349.6,547.9,349.6z"/>
	<path class="st3" d="M656.7,356c0-1.3,0.1-2.5,0-3.8c-0.2-2,0.4-2.8,2.6-2.7c3.7,0.1,4.9,1.8,3.9,5.5c-0.3,1-1,0.9-1.7,0.9
		C659.9,356,658.3,356,656.7,356C656.7,356,656.7,356,656.7,356z"/>
	<path class="st3" d="M592.7,279.2c0,1.3-0.1,2.5,0,3.8c0.2,2-0.4,2.8-2.6,2.7c-3.7-0.1-4.9-1.8-3.9-5.5c0.3-1,1-0.9,1.7-0.9
		C589.6,279.2,591.1,279.2,592.7,279.2C592.7,279.2,592.7,279.2,592.7,279.2z"/>
	<path class="st3" d="M631.1,272.8c1.3,0,2.5,0.1,3.8,0c2-0.2,2.8,0.4,2.7,2.6c-0.1,3.7-1.8,4.9-5.5,3.8c-1-0.3-0.9-1-0.9-1.7
		C631.1,275.9,631.1,274.3,631.1,272.8C631.1,272.8,631.1,272.8,631.1,272.8z"/>
	<path class="st3" d="M541.5,343.2c-1.3,0-2.5-0.1-3.8,0c-2,0.2-2.8-0.4-2.7-2.6c0.1-3.7,1.8-4.9,5.5-3.8c1,0.3,0.9,1,0.9,1.7
		C541.5,340.1,541.5,341.6,541.5,343.2C541.5,343.2,541.5,343.2,541.5,343.2z"/>
</g>
</svg>
