<?xml version="1.0" encoding="utf-8"?>
<!-- Generator: Adobe Illustrator 26.1.0, SVG Export Plug-In . SVG Version: 6.00 Build 0)  -->
<svg version="1.1" id="Layer_1" xmlns="http://www.w3.org/2000/svg" xmlns:xlink="http://www.w3.org/1999/xlink" x="0px" y="0px"
	 viewBox="0 0 1000 400" style="enable-background:new 0 0 1000 400;" xml:space="preserve">
<style type="text/css">
	.st0{fill:#FDFEFE;}
	.st1{fill:#3CBBFB;}
	.st2{fill:#FF0000;stroke:#000000;stroke-width:4;}
	.st3{fill:#00FFFF;stroke:#000000;stroke-width:4;}
	.st4{fill:#FCEE21;stroke:#000000;stroke-width:4;}
	.st5{fill:#F1F1F1;}
	.st6{fill:#0AACFE;}
	.st7{fill:#39B54A;stroke:#000000;stroke-width:4;}
</style>
<g>
	<path class="st0" d="M394,230.7c-3.6,0-7.2,0-10.8,0c0.2-0.5,0.7-0.3,1.1-0.3c2.9,0,5.8,0,8.7,0 M381.8,236.9c-1.7,0-3.5,0-5.2,0
		c-2,0-4-0.1-5.9,0.1c-0.6-0.7-0.5,0.1-0.5,0.3c0,1.5,0,3,0.1,4.4c0,0.6-0.1,0.9-0.8,0.9c-3.4,0-6.7,0-10.1,0c-0.7,0-1.1-0.3-1-1.1
		c0.1-1.3,0-2.7,0-4c0-0.8-0.3-1.1-1-1.1c-1.6,0-3.1,0-4.7,0c-0.8,0-1.1,0.4-1,1.1c0,1.2,0,2.5,0,3.7c0,1.4,0,1.4-1.5,1.4
		c-3.2,0-6.4,0-9.7,0c-0.9,0-1.3,0.3-1.2,1.2c0.1,1.3,0,2.7,0,4c0,0.7-0.2,1-0.9,1c-7.5,0-14.9,0-22.4,0c-0.7,0-1-0.3-1-1
		c0-1.3,0-2.5,0-3.8c0.1-1-0.3-1.4-1.3-1.4c-2.6,0.1-5.2,0-7.7,0c-0.7,0-1.5,0-2.2,0c-0.7,0-1.2-0.3-1.1-1.1c0.1-1.3,0-2.6,0-3.9
		c0-0.9-0.4-1.2-1.2-1.2c-1.3,0-2.7,0-4,0c-1.3,0-1.6,0.2-1.5,1.6c0.1,1.2,0,2.4,0.1,3.6c0.1,0.8-0.2,1.2-1.1,1.1
		c-1.4,0-2.8,0-4.2,0c-0.7,0-1,0.3-1,0.9c0,1.3-0.1,2.7,0.1,4c0.1,1-0.2,1.2-1.1,1.2c-3.5,0-6.9,0-10.4,0c-1.9,0-3.7,0-5.6,0
		c-0.7,0-1-0.2-0.9-1c0.1-1.2,0.1-2.5,0.1-3.7c0-1.4,0-1.5-1.5-1.5c-3.3,0-6.6,0-9.9,0c-0.8,0-1.1-0.2-1-1.1
		c0.1-1.4,0.1-2.8,0.1-4.1c0-0.6-0.3-1.1-1-1c-1.6,0-3.1,0-4.7,0c-0.7,0-1,0.3-1,1.1c0,1.2,0,2.3,0,3.5c0,1.7,0,1.7-1.7,1.7
		c-3.2,0-6.4,0-9.5,0c-0.8,0-1.1,0.3-1.1,1.1c0.1,1.3,0,2.6,0,3.9c0,0.8-0.2,1.2-1.1,1.2c-7.4,0-14.8,0-22.3,0
		c-0.7,0-0.9-0.2-0.9-0.9c0-1.3,0-2.6,0-3.9c0.1-1-0.3-1.4-1.3-1.3c-3.3,0.1-6.6,0-10,0c-0.8,0-1.1-0.2-1.1-1.1c0.1-1.4,0-2.8,0-4.1
		c0-0.7-0.3-1-1-1c-1.6,0-3.1,0-4.7,0c-0.8,0-1.1,0.4-1.1,1.1c0,1.2,0,2.4,0,3.6c0,0.2-0.1,0.4,0.2,0.5c0,0.3,0,0.5,0,0.8
		c-0.7,0.3-1.4,0.3-2.1,0.3c-1.1,0-2.3,0-3.4,0c-0.6,0-0.9,0.3-0.9,0.9c0,1.3-0.1,2.7,0,4c0.1,1-0.2,1.3-1.2,1.3
		c-5.3,0-10.5,0-15.8,0c-0.4,0-0.8,0-1.2-0.2c-0.1-0.3-0.1-0.6,0-0.9c0.3-1.4,0.3-2.9,0-4.3c-0.1-0.3-0.3-0.5-0.6-0.6
		c-0.3-0.3-0.6-0.2-1-0.2c-3.1,0-6.3,0-9.4,0c-0.5,0-0.9,0-1.3-0.2c-0.2-0.6,0-1.2-0.1-1.8c-0.1-1.3,0.2-2.6-0.1-3.9
		c0.1,0,0.1-0.1,0.2-0.1c0,0,0-0.1,0-0.1c-0.2-0.3-0.6-0.2-0.9-0.2c-1.5,0-3,0-4.5,0c-0.8,0-1.1,0.3-1.1,1.1c0,1.3-0.1,2.6,0,3.8
		c0.1,1-0.3,1.2-1.3,1.2c-3.3,0-6.6,0-9.9,0c-1,0-1.3,0.4-1.3,1.3c0,1.3,0,2.6,0.1,3.9c0.1,0.7-0.1,1-0.8,1c-1.4,0-2.9,0-4.3,0
		c-5.9,0-11.8,0-17.7,0c-1,0-1.4-0.3-1.3-1.3c0.1-1.1,0-2.2,0-3.3c0-1.5-0.1-1.6-1.5-1.6c-3.2,0-6.4,0-9.5,0c-1,0-1.4-0.1-1.3-1.3
		c0.2-1.2,0-2.5,0-3.7c0-0.9-0.4-1.2-1.2-1.2c-1.4,0-2.9,0-4.3,0c-0.9,0-1.2,0.4-1.2,1.2c0,1.3,0,2.7,0,4c0,0.7-0.2,1-0.9,0.9
		c-1.3,0-2.7,0-4,0c-0.9,0-1.3,0.3-1.3,1.2c0.1,1.3,0,2.7,0,4c0,0.6-0.2,0.9-0.8,0.9c-5.4,0-10.9,0-16.3,0c-0.7,0-0.9-0.3-0.9-1
		c0-1.3,0-2.5,0-3.8c0-1.3,0-1.4-1.4-1.4c-3.3,0-6.6,0-9.9,0c-0.9,0-1.2-0.3-1.1-1.2c0.1-1.2,0-2.3,0-3.5c0-1.5-0.1-1.5-1.5-1.5
		c-1.2,0-2.4,0-3.6,0c-0.9,0-1.2-0.3-1.1-1.2c0.1-1.2,0-2.4,0-3.6c0-1.3-0.1-1.4-1.4-1.4c-5.2,0-10.5,0-15.7,0c-1.4,0-1.4,0-1.4-1.4
		c0-3.2,0-6.4,0-9.7c0-0.9-0.3-1.4-1.3-1.3c-1.4,0.1-2.8,0-4.1,0c-0.6,0-0.9-0.2-0.8-0.9c0.1-1.4,0-2.8,0.1-4.1
		c0-0.9-0.4-1.2-1.2-1.2c-1.4,0-2.8,0-4.1,0c-0.6,0-0.9-0.1-0.9-0.8c0.1-1.4,0-2.8,0.1-4.1c0-0.9-0.4-1.3-1.3-1.2
		c-1.4,0-2.8,0-4.1,0c-0.7,0-0.9-0.3-0.9-1c0.1-1.4,0.1-2.8,0.1-4.1c0-0.8-0.3-1.1-1.1-1.1c-1.4,0-2.8,0-4.2,0c-0.7,0-0.9-0.2-0.9-1
		c0.1-3.2,0.1-6.4,0-9.6c0-1.1,0.3-1.3,1.2-1.2c3.3,0,6.6,0,9.9,0c1,0,1.4-0.3,1.3-1.3c-0.1-3.3-0.1-6.6-0.2-9.8
		c0-0.9,0.2-1.2,1.1-1.2c1.4,0.1,2.8,0,4.1,0c0.7,0,1.1-0.2,1.1-1c0-1.4,0-2.8-0.1-4.1c-0.1-0.8,0.2-1,0.9-1c1.4,0,2.8,0,4.1,0
		c0.9,0,1.2-0.3,1.2-1.2c0-1.1,0-2.3,0-3.4c0-1.6,0-1.6,1.6-1.6c5.2,0,10.3,0,15.5,0c1.3,0,1.4-0.1,1.4-1.4c0-1.2,0-2.5,0-3.7
		c0-0.8,0.2-1.1,1-1.1c1.2,0,2.4,0,3.6,0c1.5,0,1.6,0,1.6-1.5c0-1.2,0-2.5,0-3.7c0-0.7,0.2-0.9,0.9-0.9c1.4,0,2.8,0,4.1,0
		c0.8,0,1.2-0.3,1.1-1.1c0-1.3,0-2.7,0-4c0-0.8,0.3-1.1,1-1c1.3,0,2.5,0,3.8,0c1,0.1,1.4-0.3,1.3-1.3c0-5.3,0-10.7,0-16
		c0-1,0.3-1.3,1.3-1.3c3.3,0,6.6,0,10,0c0.9,0,1.2-0.3,1.1-1.2c-0.1-1.3,0-2.7,0-4c0-0.7,0.3-1,1-1c1.4,0,2.8,0,4.2,0
		c0.7,0,1.1-0.3,1.1-1c0-1.3,0-2.5,0-3.8c-0.1-1.3-0.1-1.4,1.3-1.4c7.2,0,14.4,0,21.6,0c0.5,0,1,0,1.4,0.2c0,0.3,0,0.5,0,0.8
		c0,0-0.1,0-0.1,0c0,0-0.1,0-0.1,0c0,1.3,0,2.7-0.1,4c0,0.9,0.3,1.2,1.2,1.2c1.7,0,3.4-0.2,5.2,0.1c0,0.3,0,0.5,0,0.8
		c-0.1,0-0.1,0-0.2,0c0,0-0.1,0.1-0.1,0.2c0,3.4,0,6.9,0,10.3c0,0.7,0.4,0.9,1,0.9c1.8,0,3.6-0.1,5.3,0.1c0.1,0.3,0.1,0.7,0,1
		c-0.2-0.1-0.2,0.1-0.2,0.2c0,1.3,0,2.7,0,4c0,0.5,0.2,0.8,0.8,0.8c1.7,0.2,3.3,0.1,5,0c0.8,0,1-0.4,1-1.2c-0.1-1.4,0-2.8,0-4.1
		c0-0.6,0.1-0.9,0.8-0.9c1.3,0,2.7,0,4,0c0.7,0,0.9,0.2,0.9,1c-0.1,1.4-0.1,2.8-0.1,4.1c0,0.7,0.3,1.1,1.1,1.1c1.3,0,2.6,0.1,3.9,0
		c1,0,1.3,0.2,1.3,1.3c-0.1,5.3,0,10.7,0,16c0,0.8,0.2,1.2,1.1,1.2c3.5,0,7,0,10.5,0c0.9,0,1.2-0.3,1.2-1.2c-0.1-1.3,0-2.6,0-3.9
		c0-0.9,0.3-1.1,1.1-1.1c1.3,0,2.7,0,4,0c0.8,0,1.1-0.3,1.1-1.1c0-1.4,0-2.8,0-4.2c0-0.6,0.2-0.9,0.9-0.9c1.4,0,2.8,0,4.1,0
		c1,0,1.3-0.4,1.3-1.3c0-1.2,0-2.4,0-3.6c0-4.1,0.1-8.3-0.1-12.4c0-1,0.2-1.3,1.2-1.3c3.4,0,6.7,0,10.1,0c0.8,0,1.2-0.2,1.1-1.1
		c0-1.3,0.1-2.7-0.1-4c-0.1-0.8,0.2-1.1,0.9-1.1c1.4,0,2.8,0,4.2,0c0.8,0,1.1-0.3,1-1.1c0-1.3,0.1-2.6-0.1-3.9
		c-0.1-1,0.2-1.2,1.1-1.2c4.2,0,8.5,0,12.7,0c3,0,6,0,9,0c1.4,0,1.3,0,1.3,1.3c-0.1,1.2,0,2.5,0,3.7c0,0.8,0.3,1.2,1.2,1.1
		c1.4,0,2.8,0,4.2,0c0.7,0,0.9,0.3,0.9,1c-0.1,3.4-0.1,6.9-0.1,10.3c0,0.8,0.3,1.1,1.2,1.1c1.4-0.1,2.8,0,4.1,0c0.7,0,1,0.3,1,1
		c0,1.4,0,2.8,0,4.2c0,0.6,0.1,0.9,0.8,1c1.7,0.1,3.3,0.1,5,0c0.7,0,0.9-0.4,0.8-1c0-1.3,0-2.7,0-4c0-0.9,0.3-1.2,1.2-1.2
		c1.2,0,2.4,0,3.6,0c0.7,0,1,0.3,1,1c0,1.4,0,2.8,0,4.1c0,0.7,0.2,1,1,1.1c1.3,0.1,2.6,0.1,3.9,0.1c1,0,1.3,0.2,1.3,1.3
		c-0.1,5.3,0,10.7,0,16c0,0.7,0.1,1.2,1,1.2c3.6,0,7.2,0,10.8,0c0.7,0,1-0.3,1-1c0-1.4,0.1-2.8-0.1-4.1c-0.1-0.9,0.2-1,1-1
		c1.4,0,2.8,0,4.1,0c0.7,0,1.1-0.3,1.1-1.1c0-1.3,0.1-2.7-0.1-4c-0.1-0.9,0.3-1.1,1.1-1.1c1.3,0,2.7,0,4,0c0.7,0,1.1-0.2,1.1-1
		c0-5.4,0-10.9-0.1-16.3c0-1,0.2-1.3,1.2-1.3c3.4,0,6.7,0,10.1,0c0.8,0,1.2-0.2,1.1-1.1c-0.1-1.3,0.1-2.6,0-3.9
		c-0.1-1,0.3-1.2,1.2-1.2c1.3,0.1,2.5,0,3.8,0c0.9,0,1.2-0.2,1.2-1.1c-0.1-1.3,0-2.7,0-4c0-0.7,0.2-1,0.9-1c7.5,0,14.9,0,22.4,0
		c0.7,0,0.9,0.2,0.9,0.9c0,1.4,0,2.8,0,4.1c0,0.8,0.2,1.2,1.1,1.1c1.3-0.1,2.7,0,4,0c0.8,0,1.1,0.2,1.1,1.1c-0.1,3.4,0,6.7,0,10.1
		c0,0.9,0.2,1.2,1.1,1.2c1.4-0.1,2.8,0,4.1,0c0.7,0,0.9,0.2,0.9,0.9c0,1.4,0,2.8,0,4.2c0,0.6,0.2,1,0.9,1c1.6,0.1,3.2,0.1,4.8,0
		c0.8,0,1.1-0.5,1.1-1.2c0-1.4,0-2.8-0.1-4.1c0-0.7,0.2-0.9,0.8-0.9c1.3,0,2.7,0,4,0c0.6,0,0.9,0.2,0.9,0.9c0,1.4,0,2.9,0,4.3
		c0,0.6,0.2,0.9,0.8,1c1.4,0.2,2.8,0.1,4.1,0.1c1,0,1.2,0.3,1.2,1.3c-0.1,5.3,0,10.6,0,15.9c0,1,0.4,1.4,1.4,1.3
		c1.3-0.1,2.5,0,3.8,0c0.8,0,1,0.3,1,1c0,3.3,0,6.6,0,9.9c0,1.4,0.1,1.4,1.5,1.4c1.6,0.1,3.3-0.2,4.9,0.2c0,0.2,0,0.5,0,0.7
		c-0.4,0-0.2,0.3-0.2,0.5c0,1.2,0,2.5,0,3.7c0,0.8,0.3,1.1,1.1,1.1c1.6,0,3.1,0,4.7,0c0.7,0,1-0.3,1-1c0-1.4,0-2.8,0-4.1
		c0-0.8,0.2-1.1,1-1.1c1.4,0,2.8,0,4.2,0c0.7,0,1-0.2,0.9-0.9c0-1.4,0-2.9,0-4.3c0-0.6,0.2-0.9,0.8-0.9c1.4,0,2.8,0,4.1,0
		c0.6,0,0.8,0.3,0.8,0.8c-0.2,5.5,0,11-0.1,16.5c0,0.8,0.3,1.2,1.2,1.1c1.4,0,2.8,0,4.2,0c0.7,0,0.9,0.3,0.9,1
		c-0.1,1.4-0.1,2.8-0.1,4.1c0,0.7,0.3,1.1,1.1,1.1c1.5,0,3,0,4.6,0c0.9,0,1.1-0.3,1.1-1.1c0-1.3,0-2.7,0-4c0-0.7,0.2-1,0.9-1
		c1.3,0,2.6,0,3.9,0c0.7,0,0.9,0.2,0.9,0.9c0,5.4,0,10.7,0,16.1c0,0.7-0.3,1-1,1c-1.2,0-2.5,0-3.7,0c-1.5,0-1.5,0-1.5,1.5
		c0,1.2,0,2.3,0,3.5c0,0.8-0.2,1.2-1.1,1.1c-1.4,0-2.8,0-4.1,0c-0.7,0-1.1,0.3-1.1,1c0,1.6,0,3.1,0,4.7c0,0.8,0.4,1.1,1.2,1.1
		c1.3,0,2.7,0,4,0c0.8,0,1.1,0.2,1,1c-0.1,1.3,0,2.7,0,4c0,0.8,0.3,1.1,1.1,1.1c1.3,0,2.7,0,4,0c0.7,0,1.1,0.2,1.1,1
		c0,3.2,0,6.4,0,9.6c0,0.9-0.3,1.2-1.1,1.1c-3.4,0-6.8,0-10.2,0c-1,0-1.1,0.1-1.1,1.1c0.1-0.1,0.1-0.5,0.4-0.4c0,1.6,0,3.2,0,4.9
		 M339.6,249L339.6,249 M129.8,224.2c-3.7,0-7.4,0-11.1,0c-0.8,0-1.1-0.3-1.1-1.1c0.1-1.3,0-2.7,0-4c0-0.8-0.3-1.1-1.1-1
		c-1.3,0-2.7,0-4,0c-0.8,0-1.1-0.3-1.1-1.1c0-1.2,0.1-2.4,0-3.6c0-0.9,0.2-1.2,1.1-1.2c1.3,0,2.7,0,4,0c0.7,0,1-0.2,1-1
		c0-1.5,0-3,0-4.6c0-0.7-0.3-1-1-1c-1.4,0-2.8,0-4.2,0c-0.9,0-1.2,0.4-1.1,1.2c0,1.3,0,2.6,0,3.9c0,0.8-0.3,1.1-1,1
		c-1.3,0-2.6,0-3.9,0c-1-0.1-1.4,0.5-1.3,1.3c0.1,1.2,0.1,2.4,0.1,3.6c0,1.3,0,1.4-1.3,1.4c-3.3,0-6.6,0-10,0
		c-0.6,0-1.1,0.1-1.1,0.9c0,1.4-0.1,2.8,0.1,4.1c0.1,0.9-0.1,1.2-1,1.2c-5.4,0-10.8,0-16.2,0c-0.8,0-1-0.3-1-1.1c0-1.3,0-2.5,0-3.8
		c0.1-1.1-0.4-1.4-1.3-1.3c-1.2,0.1-2.3,0-3.5,0c-0.9,0-1.4-0.2-1.4-1.3c0.1-1.3,0-2.5,0-3.8c0-0.7-0.3-1.1-1.1-1.1
		c-1.5,0-3,0-4.5,0c-0.7,0-1.1,0.4-1,1.1c0,1.3,0,2.7,0,4c0,0.8-0.3,1.1-1.1,1.1c-3.3,0-6.6,0-9.9,0c-1,0-1.3-0.4-1.1-1.3
		c0.2-1.2,0.1-2.5,0.1-3.7c0-0.9-0.3-1.4-1.3-1.3c-1.3,0.1-2.5,0-3.8,0c-0.9,0-1.2-0.3-1.2-1.2c0-1.3,0-2.6,0-3.9
		c0-0.8-0.3-1.1-1.1-1.1c-1.4,0-2.9,0-4.3,0c-0.7,0-1,0.3-1,1c0,1.5,0,3,0,4.6c0,0.8,0.3,1,1,0.9c1.3,0,2.7,0,4,0
		c0.8,0,1.2,0.3,1.1,1.1c0,1.3,0,2.7,0,4c0,0.8,0.3,1.1,1.1,1c1.4,0,2.8,0,4.1,0c0.7,0,1,0.3,1,1c0,1.3,0,2.5,0,3.8
		c0,1.3,0,1.3,1.4,1.3c5.3,0,10.5,0,15.8,0c1,0,1.4,0.2,1.3,1.3c-0.1,1.2,0,2.5,0,3.7c-0.1,1,0.3,1.2,1.2,1.2c3.4,0,6.7,0,10.1,0
		c0.8,0,1.1,0.2,1,1c-0.1,1.4,0,2.8,0,4.1c0,0.8,0.3,1.1,1,1.1c3.5,0,7.1,0,10.6,0c0.7,0,1.1-0.3,1.1-1.1c0-1.3,0-2.6,0-3.9
		c-0.1-1,0.3-1.3,1.3-1.3c3.3,0,6.6,0,9.9,0c0.9,0,1.3-0.3,1.2-1.2c-0.1-1.3,0-2.5,0-3.8c0-0.8,0.2-1.2,1.1-1.2c1.3,0,2.5,0,3.8,0
		c0.8,0,1.1,0.3,1.1,1.1c0,1.4,0,2.8,0,4.1c0,0.7,0.3,1,1,1c1.4,0,2.8,0,4.1,0c0.8,0,1.1,0.3,1,1.1c0,1.2,0,2.5,0,3.7
		c0,1.4,0.1,1.5,1.5,1.5c4.5,0,8.9,0,13.4,0c1,0,1.9,0,2.9,0c0.8,0,1.2-0.4,1.1-1.2c-0.1-1.3,0-2.7-0.1-4c-0.1-0.9,0.2-1.1,1-1.1
		c1.3,0,2.7,0,4,0c0.9,0,1.3-0.3,1.2-1.2c-0.1-1.3,0-2.7,0-4c0-0.7,0.2-1,0.9-0.9c1.4,0,2.8,0,4.2,0c0.7,0,1-0.3,1-1
		c0-1.5,0-3,0-4.5c0-0.7-0.3-1-1-0.9c-1.5,0-3,0-4.6,0c-0.8,0-1,0.3-1,1.1c0,1.3,0,2.5,0,3.8c0.1,1-0.3,1.3-1.3,1.3
		C137.1,224.2,133.5,224.2,129.8,224.2z M327.3,224.1c-3.7,0-7.4,0-11.1,0c-0.8,0-1.1-0.2-1-1c0.1-1.2,0-2.5,0-3.7
		c0-1.3-0.1-1.4-1.5-1.4c-1.2,0-2.5,0-3.7,0c-0.7,0-1-0.2-1-1c0-1.3,0.1-2.5,0-3.8c0-0.8,0.3-1,1.1-1c1.4,0,2.8,0,4.1,0
		c0.7,0,1-0.2,1-1c0-1.5,0-3,0-4.5c0-0.8-0.3-1.1-1.1-1.1c-1.4,0-2.8,0-4.2,0c-0.9,0-1.2,0.4-1.2,1.2c0,1.3,0,2.7,0,4
		c0,0.7-0.2,1-0.9,0.9c-1.4,0-2.8,0-4.2,0c-0.7,0-1,0.3-1,1c0,1.3-0.1,2.6,0,3.8c0.1,1.1-0.3,1.4-1.4,1.4c-3.2-0.1-6.4,0-9.5,0
		c-1.4,0-1.4,0.1-1.4,1.5c0,1.1,0,2.1,0,3.2c0,1.5,0,1.5-1.5,1.5c-5.1,0-10.3,0-15.4,0c-1.4,0-1.4,0-1.4-1.3c0-1.2,0-2.5,0-3.7
		c0-0.8-0.3-1.2-1.1-1.1c-1.3,0-2.5,0-3.8,0c-0.9,0-1.4-0.2-1.3-1.2c0.1-1.3,0-2.6,0-3.9c0-0.6-0.2-1-0.9-1c-1.6,0-3.1,0-4.7,0
		c-0.6,0-1,0.3-1,1c0,1.4-0.1,2.8,0.1,4.1c0.1,0.9-0.3,1.1-1,1c-1.3,0-2.6,0-3.9,0c-0.9,0-1.4,0.3-1.3,1.3c0.1,1.3,0,2.5,0,3.8
		c0,1.4,0,1.4,1.5,1.4c3.3,0,6.6,0,9.9,0c0.6,0,1.2,0,1.1,0.9c-0.2,1.3-0.1,2.7-0.1,4c0,1.2,0.2,1.4,1.4,1.4c3.2,0,6.4,0,9.7,0
		c1,0,1.5,0.2,1.4,1.3c-0.1,1.3,0,2.5,0,3.8c0,0.7,0.3,1,1,1c3.5,0,7.1,0,10.6,0c0.7,0,1.1-0.3,1.1-1.1c0-1.2,0-2.5,0-3.7
		c0-1.4-0.1-1.4,1.3-1.4c3.2,0,6.4,0,9.5,0c1.4,0,1.5-0.1,1.5-1.5c0-1.3,0-2.5,0-3.8c0-0.7,0.2-1,1-1c1.3,0,2.5,0,3.8,0
		c0.8,0,1.1,0.3,1.1,1.1c0,1.3,0,2.7,0,4c0,0.9,0.4,1.2,1.2,1.2c1.4,0,2.8,0,4.1,0c0.6,0,0.9,0.2,0.9,0.9c0,1.4,0,2.8,0,4.1
		c0,0.8,0.3,1.2,1.1,1.2c5.6,0,11.1,0,16.7,0c0.8,0,1.1-0.3,1.1-1.2c0-1.3,0-2.7,0-4c0-0.7,0.2-1,1-1c1.3,0,2.7,0,4,0
		c0.8,0,1.2-0.3,1.2-1.2c-0.1-1.3,0-2.7,0-4c0-0.8,0.3-1.1,1.1-1.1c1.4,0,2.8,0,4.1,0c0.7,0,1-0.2,1-1c0-1.5,0-3,0-4.5
		c0-0.7-0.3-1.1-1-1.1c-1.4,0-2.9,0-4.3,0c-0.8,0-1.2,0.3-1.2,1.2c0,1.3,0,2.5,0,3.8c0.1,0.9-0.3,1.2-1.2,1.2
		C334.5,224.1,330.9,224.1,327.3,224.1z M228.6,224.2c-3.7,0-7.4,0-11.1,0c-0.9,0-1.3-0.3-1.2-1.2c0.1-1.2,0-2.5,0-3.7
		c0.1-1-0.3-1.3-1.3-1.2c-1.3,0.1-2.5,0-3.8,0c-0.7,0-1.1-0.2-1.1-1c0-1.3,0-2.7,0-4c0-0.6,0.2-0.9,0.9-0.9c1.4,0,2.8,0,4.2,0
		c0.8,0,1.1-0.3,1.1-1.1c0-1.4,0-2.9,0-4.3c0-0.7-0.3-1-1-1c-1.4,0-2.9,0-4.3,0c-0.9,0-1.1,0.3-1.1,1.1c0.1,1.3,0,2.7,0,4
		c0,0.8-0.3,1.1-1,1c-1.3,0-2.7,0-4,0c-0.8,0-1.2,0.2-1.1,1.1c0.1,1.3,0,2.5,0,3.8c0.1,1-0.3,1.3-1.3,1.3c-3.3,0-6.6,0-10,0
		c-0.8,0-1.2,0.2-1.1,1.1c0.1,1.3,0,2.7,0,4c0,0.8-0.3,1.1-1.1,1.1c-5.4,0-10.8,0-16.2,0c-0.8,0-1-0.3-1-1.1c0-1.3,0-2.6,0-3.9
		c0-0.9-0.3-1.2-1.2-1.2c-1.3,0-2.6,0-3.9,0c-0.8,0-1.2-0.2-1.1-1.2c0.1-1.3,0-2.7,0.1-4c0-0.7-0.4-1-1.1-1c-1.4,0-2.9,0-4.3,0
		c-0.8,0-1,0.3-1,1.1c0,1.4,0,2.8,0,4.1c0,0.7-0.3,1-0.9,1c-1.3,0-2.7,0-4,0c-1.1,0-1.4,0.3-1.3,1.4c0.1,1.2,0.1,2.5,0,3.7
		c-0.1,1.1,0.2,1.3,1.3,1.3c3.3,0,6.6,0,9.9,0c1,0,1.3,0.3,1.3,1.3c-0.1,1.1,0,2.3,0,3.4c0,1.5,0,1.5,1.4,1.5c3.2,0,6.4,0,9.7,0
		c1,0,1.3,0.3,1.3,1.3c-0.1,1.3,0,2.6,0,3.9c0,0.7,0.2,1,0.9,1c3.6,0,7.1,0,10.7,0c0.8,0,1-0.3,1-1c0-1.2,0-2.5,0-3.7
		c0-1.4,0-1.4,1.4-1.4c3.3,0,6.6,0,9.9,0c0.8,0,1.1-0.3,1.1-1.1c-0.1-1.3,0-2.7,0-4c0-0.8,0.3-1.1,1.1-1.1c1.3,0,2.6,0,3.9,0
		c0.7,0,1,0.3,1,1c0,1.3,0,2.5,0,3.8c0,1,0.3,1.4,1.3,1.4c1.2-0.1,2.5,0,3.7,0c0.9,0,1.2,0.2,1.2,1.1c-0.1,1.3,0,2.6,0,3.9
		c0,0.8,0.3,1.1,1.1,1.1c5.5,0,11,0,16.5,0c0.9,0,1.3-0.4,1.1-1.2c-0.2-1.3,0-2.6-0.1-3.9c-0.1-0.8,0.3-1.1,1.1-1c1.3,0,2.7,0,4,0
		c0.9,0,1.2-0.4,1.2-1.2c0-1.3,0-2.7-0.1-4c0-0.7,0.2-1,0.9-1c1.4,0,2.9,0,4.3,0c0.7,0,1-0.3,1-1c0-1.4,0-2.9,0-4.3
		c0-0.8-0.3-1.1-1.1-1.1c-1.4,0-2.9,0-4.3,0c-0.8,0-1,0.3-1,1c0,1.2,0,2.5,0,3.7c0,1.4,0,1.4-1.5,1.4
		C235.8,224.2,232.2,224.2,228.6,224.2z M290.2,143.9c-1.7,0-3.3,0-5,0c-1,0-1.4,0.4-1.3,1.4c0.1,1.3,0,2.5,0,3.8c0,0.7-0.2,1-1,1
		c-1.3,0-2.7,0-4,0c-0.8,0-1.2,0.3-1.2,1.2c0.1,1.4,0,2.9,0,4.3c0,0.7,0.2,1,1,1c1.5,0,3,0,4.4,0c0.7,0,1-0.3,1-1c0-1.3,0-2.6,0-3.9
		c-0.1-1,0.3-1.3,1.3-1.3c3.3,0,6.6,0,10,0c0.9,0,1.3-0.3,1.3-1.2c0-1.3,0-2.7,0-4c0-0.9-0.3-1.3-1.2-1.3
		C293.7,143.9,291.9,143.9,290.2,143.9z M92.9,144c-1.6,0-3.3,0-4.9,0c-1.4,0-1.4,0-1.4,1.4c0,1.2,0,2.5,0,3.7c0,0.8-0.2,1.1-1,1.1
		c-1.3,0-2.7,0-4,0c-0.9,0-1.2,0.3-1.2,1.2c0.1,1.4,0.1,2.7,0,4.1c-0.1,0.7,0.2,1.1,1,1.1c1.4,0,2.9,0,4.3,0c0.8,0,1.2-0.3,1.1-1.1
		c0-1.3,0.1-2.5,0-3.8c-0.1-1,0.3-1.3,1.3-1.2c3.3,0,6.5,0,9.8,0c1,0,1.4-0.4,1.3-1.4c-0.1-1.3,0-2.7,0-4c0-0.8-0.3-1.1-1.1-1
		C96.3,144,94.6,144,92.9,144z M123.8,147.2c0-0.7,0-1.5,0-2.2c0.1-0.8-0.3-1.2-1.1-1.1c-1.3,0-2.6,0-3.9,0c-0.9,0-1.2-0.2-1.2-1.1
		c0.1-1.3,0-2.7,0-4c0-0.7-0.3-1-1-1c-1.5,0-3,0-4.5,0c-0.6,0-1,0.2-1,0.9c0,1.6,0,3.1,0,4.7c0,0.7,0.2,1,0.9,0.9c1.4,0,2.8,0,4.2,0
		c0.7,0,1,0.3,1,1c0,1.4,0,2.8,0,4.1c0,0.8,0.3,1.1,1.1,1c0.7,0,1.5,0,2.2,0C123.8,150.4,123.8,150.4,123.8,147.2z M222.5,147.3
		c0-0.6-0.1-1.3,0-1.9c0.1-1-0.2-1.4-1.3-1.3c-1.1,0.1-2.2,0-3.3,0c-1.6,0-1.6,0-1.6-1.6c0-1.2,0-2.3,0-3.5c0-0.8-0.2-1.2-1.1-1.1
		c-1.4,0-2.8,0-4.2,0c-0.9,0-1.1,0.4-1.1,1.1c0,1.4,0,2.8,0,4.1c0,0.9,0.4,1.2,1.2,1.1c1.3,0,2.6,0,3.9,0c0.8,0,1.1,0.2,1,1
		c-0.1,1.3,0,2.7,0,4c0,0.8,0.3,1.2,1.1,1.1c0.7,0,1.4,0,2.1,0C222.4,150.4,222.4,150.4,222.5,147.3z M191.5,150.3
		C191.5,150.3,191.5,150.3,191.5,150.3c1.7,0,3.3,0,5,0c0.9,0,1.3-0.3,1.3-1.2c0-1.3,0-2.6,0-3.9c0-0.8-0.3-1.1-1.1-1.1
		c-3.4,0-6.9,0-10.3,0c-0.7,0-1,0.2-1,1c0,1.4,0,2.8,0,4.2c0,0.8,0.3,1,1,1C188.1,150.3,189.8,150.3,191.5,150.3z M185.3,153.4
		c0-0.7,0-1.4,0-2.1c0-0.8-0.3-1-1-0.9c-1.3,0.1-2.6,0.1-3.9,0c-0.8-0.1-1.1,0.2-1.1,1c0.2,1.3,0.1,2.6,0,3.9
		c-0.1,0.9,0.3,1.1,1.1,1.1c1.3,0,2.5-0.1,3.8,0c0.9,0,1.2-0.3,1.1-1.2C185.2,154.6,185.3,154,185.3,153.4z M311.8,138.1
		c-0.7,0-1.3,0-2,0c-0.8,0-1.1,0.3-1,1.1c0.2,1.3,0.2,2.5,0,3.8c-0.1,0.7,0.1,1.1,0.9,1.1c1.3,0,2.7,0,4,0c0.7,0,1-0.3,1-1
		c0-1.4-0.1-2.8,0.1-4.1c0.1-0.5-0.2-0.8-0.8-0.8C313.3,138.1,312.6,138.1,311.8,138.1z M318,144.3C318,144.3,318,144.3,318,144.3
		c-0.6,0-1.3,0-1.9,0c-0.7-0.1-1,0.2-1,1c0,1.3,0.1,2.7-0.1,4c-0.1,0.7,0.3,1,1,1c1.4,0,2.8,0,4.1,0c0.8,0,1-0.4,0.9-1.1
		c-0.2-1.3-0.2-2.6,0-3.9c0.1-0.7-0.2-1-0.9-1C319.4,144.3,318.7,144.3,318,144.3z"/>
	<path d="M92.7,250.3c0.3,1.8,0,3.6,0.1,5.3c0,0.3-0.2,0.5-0.5,0.6c-0.2,0-0.3-0.1-0.5-0.1c-4.8,0-9.6,0-14.4,0
		c-0.9,0-1.9-0.2-2.8,0.2c-0.1,0-0.1,0-0.2,0c-0.1-2.1-0.3-4.2,0.1-6.3c0.4,0,0.8,0.1,1.1,0.1c5.3,0,10.6,0,15.9,0
		C91.9,250.1,92.3,250,92.7,250.3z"/>
	<path class="st1" d="M315.2,256.3c0-0.1,0.1-0.1,0.1-0.1c0.2,0,0.5,0,0.7,0c7,0,14,0,20.9,0c0.7,0,1.4,0,2.1,0.1
		c0.1,0,0.1,0,0.1,0.1C331.2,256.3,323.2,256.3,315.2,256.3z"/>
	<path class="st1" d="M117.9,256.3L117.9,256.3c0-0.1,0.1-0.1,0.1-0.1c2.2,0,4.4-0.1,6.7-0.1c5.7,0,11.4,0,17.1,0
		c0.1,0,0.1,0.1,0.1,0.1C133.9,256.3,125.9,256.3,117.9,256.3z"/>
	<path class="st1" d="M216.6,256.3c0-0.1,0-0.1,0.1-0.1c5.2,0,10.5-0.1,15.7-0.1c2.7,0,5.3,0,8,0.1c0.1,0,0.1,0,0.1,0.1
		C232.6,256.3,224.6,256.3,216.6,256.3z"/>
	<path class="st1" d="M401.4,200.3L401.4,200.3C401.3,200.4,401.3,200.3,401.4,200.3c-0.1-6-0.1-11.9-0.1-17.9
		c0-0.1,0.1-0.1,0.1-0.2C401.4,188.3,401.4,194.3,401.4,200.3z"/>
	<path class="st1" d="M74.6,256.3c0.9-0.4,1.8-0.2,2.8-0.2c4.8,0,9.6,0,14.4,0c0.2,0,0.3,0,0.5,0.1c0,0,0.1,0,0.1,0l0,0.1
		C86.5,256.3,80.6,256.3,74.6,256.3z"/>
	<path class="st1" d="M191,256.2C191,256.2,191.1,256.3,191,256.2l0.1,0.1c-5.9,0-11.9,0-17.8,0c0-0.1,0.1-0.1,0.1-0.1
		c3.1,0,6.3,0,9.4,0C185.6,256.2,188.3,256.2,191,256.2z"/>
	<path class="st1" d="M289.8,256.2c0.1,0,0.1,0.1,0.2,0.1c-5.9,0-11.9,0-17.8,0c0-0.1,0-0.1,0.1-0.1
		C278.1,256.2,284,256.2,289.8,256.2z"/>
	<path class="st1" d="M401.3,219.6c0-0.1,0-0.1,0.1-0.1c0,1.9,0,3.8,0,5.7c-0.1,0-0.1-0.1-0.1-0.1
		C401.3,223.2,401.3,221.4,401.3,219.6z"/>
	<path class="st1" d="M129.8,225.2c3.6,0,7.3,0,10.9,0c1,0,1.3-0.3,1.3-1.3c-0.1-1.3,0-2.5,0-3.8c0-0.8,0.2-1.1,1-1.1
		c1.5,0,3,0,4.6,0c0.7,0,1,0.3,1,0.9c0,1.5,0,3,0,4.5c0,0.7-0.3,1-1,1c-1.4,0-2.8,0-4.2,0c-0.7,0-0.9,0.3-0.9,0.9c0,1.3,0,2.7,0,4
		c0,0.9-0.3,1.2-1.2,1.2c-1.3-0.1-2.7,0-4,0c-0.8,0-1.1,0.2-1,1.1c0.1,1.3,0,2.7,0.1,4c0,0.8-0.4,1.2-1.1,1.2c-1,0-1.9,0-2.9,0
		c-4.5,0-8.9,0-13.4,0c-1.4,0-1.5-0.1-1.5-1.5c0-1.2,0-2.5,0-3.7c0-0.8-0.3-1.1-1-1.1c-1.4,0-2.8,0-4.1,0c-0.7,0-1-0.2-1-1
		c0-1.4,0-2.8,0-4.1c0-0.8-0.3-1.1-1.1-1.1c-1.3,0-2.5,0-3.8,0c-0.8,0-1.1,0.3-1.1,1.2c0,1.3,0,2.5,0,3.8c0,0.9-0.3,1.2-1.2,1.2
		c-3.3,0-6.6,0-9.9,0c-0.9,0-1.4,0.3-1.3,1.3c0.1,1.3,0,2.6,0,3.9c0,0.8-0.3,1.1-1.1,1.1c-3.5,0-7.1,0-10.6,0c-0.7,0-1.1-0.4-1-1.1
		c0-1.4,0-2.8,0-4.1c0-0.8-0.3-1-1-1c-3.4,0-6.7,0-10.1,0c-0.9,0-1.3-0.2-1.2-1.2c0.1-1.2-0.1-2.5,0-3.7c0.1-1.1-0.3-1.3-1.3-1.3
		c-5.3,0-10.5,0-15.8,0c-1.4,0-1.4,0-1.4-1.3c0-1.3,0-2.5,0-3.8c0-0.7-0.3-1-1-1c-1.4,0-2.8,0-4.1,0c-0.8,0-1.1-0.2-1.1-1
		c0-1.3,0-2.7,0-4c0-0.8-0.3-1.1-1.1-1.1c-1.3,0-2.7,0-4,0c-0.7,0-1.1-0.2-1-0.9c0-1.5,0-3,0-4.6c0-0.7,0.3-1,1-1c1.4,0,2.9,0,4.3,0
		c0.8,0,1.1,0.3,1.1,1.1c0,1.3,0,2.6,0,3.9c0,0.9,0.3,1.2,1.2,1.2c1.3-0.1,2.5,0,3.8,0c1,0,1.4,0.4,1.3,1.3c0,1.2,0.1,2.5-0.1,3.7
		c-0.1,0.9,0.1,1.3,1.1,1.3c3.3,0,6.6,0,9.9,0c0.8,0,1.1-0.3,1.1-1.1c-0.1-1.3,0-2.7,0-4c0-0.8,0.3-1.1,1-1.1c1.5,0,3,0,4.5,0
		c0.8,0,1.1,0.4,1.1,1.1c0,1.3,0.1,2.6,0,3.8c-0.1,1.1,0.4,1.4,1.4,1.3c1.2,0,2.3,0,3.5,0c1-0.1,1.4,0.2,1.3,1.3
		c-0.1,1.3,0,2.5,0,3.8c0,0.8,0.2,1.1,1,1.1c5.4,0,10.8,0,16.2,0c0.9,0,1-0.3,1-1.2c-0.1-1.4,0-2.8-0.1-4.1c0-0.8,0.5-0.9,1.1-0.9
		c3.3,0,6.6,0,10,0c1.3,0,1.4,0,1.3-1.4c0-1.2,0.1-2.4-0.1-3.6c-0.1-0.9,0.3-1.4,1.3-1.3c1.3,0.1,2.6,0,3.9,0c0.8,0,1.1-0.2,1-1
		c-0.1-1.3,0-2.6,0-3.9c0-0.8,0.2-1.3,1.1-1.2c1.4,0,2.8,0,4.2,0c0.7,0,1,0.3,1,1c0,1.5,0,3,0,4.6c0,0.8-0.3,1-1,1c-1.3,0-2.7,0-4,0
		c-0.9,0-1.2,0.4-1.1,1.2c0.1,1.2,0,2.4,0,3.6c0,0.8,0.3,1.2,1.1,1.1c1.3,0,2.7,0,4,0c0.8,0,1.1,0.2,1.1,1c0,1.3,0,2.7,0,4
		c0,0.8,0.3,1.1,1.1,1.1C122.4,225.2,126.1,225.2,129.8,225.2z"/>
	<path class="st1" d="M327.3,225.1c3.6,0,7.3,0,10.9,0c0.9,0,1.3-0.3,1.2-1.2c-0.1-1.3,0-2.5,0-3.8c0-0.8,0.3-1.2,1.2-1.2
		c1.4,0,2.9,0,4.3,0c0.8,0,1.1,0.4,1,1.1c0,1.5,0,3,0,4.5c0,0.7-0.3,1-1,1c-1.4,0-2.8,0-4.1,0c-0.8,0-1.1,0.3-1.1,1.1
		c0,1.3,0,2.7,0,4c0,0.9-0.4,1.2-1.2,1.2c-1.3,0-2.7,0-4,0c-0.7,0-1,0.3-1,1c0,1.3,0,2.7,0,4c0,0.8-0.3,1.2-1.1,1.2
		c-5.6,0-11.1,0-16.7,0c-0.8,0-1.1-0.4-1.1-1.2c0-1.4,0-2.8,0-4.1c0-0.6-0.2-0.9-0.9-0.9c-1.4,0-2.8,0-4.1,0c-0.8,0-1.2-0.3-1.2-1.2
		c0.1-1.3,0-2.7,0-4c0-0.8-0.3-1.1-1.1-1.1c-1.3,0-2.5,0-3.8,0c-0.7,0-1,0.3-1,1c0,1.3,0,2.5,0,3.8c0,1.4-0.1,1.5-1.5,1.5
		c-3.2,0-6.4,0-9.5,0c-1.3,0-1.3,0-1.3,1.4c0,1.2,0,2.5,0,3.7c0,0.8-0.4,1.1-1.1,1.1c-3.5,0-7.1,0-10.6,0c-0.7,0-1-0.3-1-1
		c0-1.3-0.1-2.6,0-3.8c0.1-1.1-0.3-1.4-1.4-1.3c-3.2,0.1-6.4,0-9.7,0c-1.2,0-1.4-0.2-1.4-1.4c0-1.3-0.1-2.7,0.1-4
		c0.1-0.9-0.5-0.9-1.1-0.9c-3.3,0-6.6,0-9.9,0c-1.5,0-1.5,0-1.5-1.4c0-1.3,0.1-2.5,0-3.8c-0.1-1,0.4-1.3,1.3-1.3c1.3,0,2.6,0,3.9,0
		c0.7,0,1.1-0.2,1-1c-0.1-1.4,0-2.8-0.1-4.1c0-0.7,0.3-1,1-1c1.6,0,3.1,0,4.7,0c0.7,0,0.9,0.4,0.9,1c0,1.3,0.1,2.6,0,3.9
		c-0.1,1,0.3,1.3,1.3,1.2c1.3-0.1,2.5,0,3.8,0c0.8,0,1.1,0.3,1.1,1.1c0,1.2,0,2.5,0,3.7c0,1.4,0,1.3,1.4,1.3c5.1,0,10.3,0,15.4,0
		c1.5,0,1.5,0,1.5-1.5c0-1.1,0-2.1,0-3.2c0-1.4,0.1-1.5,1.4-1.5c3.2,0,6.4,0,9.5,0c1,0,1.5-0.2,1.4-1.4c-0.1-1.3,0-2.5,0-3.8
		c0-0.7,0.3-1,1-1c1.4,0,2.8,0,4.2,0c0.7,0,0.9-0.3,0.9-0.9c0-1.3,0-2.7,0-4c0-0.8,0.3-1.2,1.2-1.2c1.4,0,2.8,0,4.2,0
		c0.8,0,1.2,0.3,1.1,1.1c0,1.5,0,3,0,4.5c0,0.7-0.3,1-1,1c-1.4,0-2.8,0-4.1,0c-0.8,0-1.1,0.2-1.1,1c0.1,1.3,0,2.5,0,3.8
		c0,0.8,0.3,1,1,1c1.2,0,2.5,0,3.7,0c1.4,0,1.5,0.1,1.5,1.4c0,1.2,0,2.5,0,3.7c0,0.8,0.3,1,1,1C319.8,225.1,323.6,225.1,327.3,225.1
		z"/>
	<path class="st1" d="M228.6,225.2c3.6,0,7.1,0,10.7,0c1.5,0,1.5,0,1.5-1.4c0-1.2,0-2.5,0-3.7c0-0.7,0.2-1,1-1c1.4,0,2.9,0,4.3,0
		c0.8,0,1.1,0.3,1.1,1.1c0,1.4,0,2.9,0,4.3c0,0.7-0.3,1-1,1c-1.4,0-2.9,0-4.3,0c-0.7,0-0.9,0.2-0.9,1c0.1,1.3,0.1,2.7,0.1,4
		c0,0.8-0.3,1.2-1.2,1.2c-1.3-0.1-2.7,0-4,0c-0.8,0-1.1,0.3-1.1,1c0.1,1.3-0.1,2.6,0.1,3.9c0.1,0.8-0.2,1.2-1.1,1.2
		c-5.5,0-11,0-16.5,0c-0.8,0-1.2-0.3-1.1-1.1c0-1.3,0-2.6,0-3.9c0-0.9-0.3-1.2-1.2-1.1c-1.2,0.1-2.5,0-3.7,0c-1,0.1-1.4-0.4-1.3-1.4
		c0.1-1.3,0-2.5,0-3.8c0-0.7-0.2-1-1-1c-1.3,0-2.6,0-3.9,0c-0.8,0-1.1,0.3-1.1,1.1c0,1.3,0,2.7,0,4c0,0.8-0.3,1.1-1.1,1.1
		c-3.3,0-6.6,0-9.9,0c-1.4,0-1.4,0-1.4,1.4c0,1.2,0,2.5,0,3.7c0,0.7-0.2,1-1,1c-3.6,0-7.1,0-10.7,0c-0.7,0-0.9-0.3-0.9-1
		c0-1.3,0-2.6,0-3.9c0.1-1-0.3-1.3-1.3-1.3c-3.2,0-6.4,0-9.7,0c-1.4,0-1.4,0-1.4-1.5c0-1.1,0-2.3,0-3.4c0.1-1-0.3-1.3-1.3-1.3
		c-3.3,0.1-6.6,0-9.9,0c-1.1,0-1.4-0.3-1.3-1.3c0.1-1.2,0.1-2.5,0-3.7c-0.1-1.1,0.2-1.4,1.3-1.4c1.3,0,2.7,0,4,0c0.7,0,1-0.3,0.9-1
		c0-1.4,0-2.8,0-4.1c0-0.7,0.2-1.1,1-1.1c1.4,0,2.9,0,4.3,0c0.7,0,1.1,0.3,1.1,1c0,1.3,0.1,2.7-0.1,4c-0.1,1,0.3,1.2,1.1,1.2
		c1.3,0,2.6,0,3.9,0c0.9,0,1.2,0.3,1.2,1.2c0,1.3,0,2.6,0,3.9c0,0.8,0.2,1.1,1,1.1c5.4,0,10.8,0,16.2,0c0.8,0,1.1-0.3,1.1-1.1
		c0-1.3,0-2.7,0-4c0-0.9,0.3-1.1,1.1-1.1c3.3,0,6.6,0,10,0c1,0,1.3-0.3,1.3-1.3c-0.1-1.3,0-2.5,0-3.8c0-0.9,0.3-1.1,1.1-1.1
		c1.3,0,2.7,0,4,0c0.8,0,1.1-0.2,1-1c-0.1-1.3,0-2.7,0-4c0-0.8,0.2-1.2,1.1-1.1c1.4,0,2.9,0,4.3,0c0.7,0,1,0.3,1,1
		c0,1.4,0,2.9,0,4.3c0,0.8-0.3,1.1-1.1,1.1c-1.4,0-2.8,0-4.2,0c-0.6,0-0.9,0.2-0.9,0.9c0,1.3,0,2.7,0,4c0,0.8,0.3,1,1.1,1
		c1.3,0,2.5,0,3.8,0c1-0.1,1.4,0.2,1.3,1.2c-0.1,1.2,0,2.5,0,3.7c0,0.9,0.3,1.3,1.2,1.2C221.2,225.2,224.9,225.2,228.6,225.2z"/>
	<path class="st1" d="M234.7,132.9c0.1-0.1,0.1-0.1,0.2-0.2c1.9-0.1,3.9-0.1,5.8,0c0.1,0.1,0.1,0.1,0.2,0.2c0.2,1.6,0.1,3.2,0.1,4.8
		c0,0.8,0.3,1.1,1.1,1.1c1.6,0,3.2,0,4.8,0.1c0.1,0,0.2,0.1,0.3,0.1c0,0.1,0,0.1,0,0.2c0,5.7,0,11.5-0.1,17.2c0,0.7,0.4,0.9,1,0.9
		c3.4,0,6.8,0,10.2,0c0.9,0,1.1-0.3,1.1-1.1c0-1.6,0-3.2,0-4.9c0-0.1,0.1-0.1,0.1-0.1c1.6,0,3.2-0.1,4.7,0c0.9,0,1.3-0.2,1.3-1.3
		c-0.1-1.6,0-3.2,0-4.7c0-0.1,0.1-0.1,0.1-0.1c1.6,0,3.2-0.1,4.8,0c0.9,0,1.3-0.2,1.3-1.3c0-5.7,0-11.4,0-17c0-0.1,0.1-0.1,0.1-0.1
		c0.4,0,0.8-0.1,1.3-0.1c3.2,0,6.4,0,9.6,0c1.3,0,1.3,0,1.3-1.4c0-1.5,0-3,0-4.5c0-0.1,0.1-0.1,0.1-0.1c1.6-0.2,3.1-0.1,4.7-0.1
		c1.4,0,1.4,0,1.4-1.3c0-1.6,0-3.2,0-4.8l0,0c7.9,0,15.7,0,23.6,0c0.4,0,0.8,0.1,1.1-0.1l0.1,0c0,0,0,0.1,0,0.1c0,1.7,0,3.4,0,5.2
		c0,0.8,0.3,1.1,1.1,1.1c1.6,0,3.2-0.2,4.8,0.1c0.1,0.1,0.1,0.1,0.2,0.2c0,0.3,0.1,0.6,0.1,0.9c0,3.3,0,6.7,0,10
		c0,0.8,0.2,1.1,1.1,1.1c1.6,0,3.2-0.1,4.8,0.1c0.1,0,0.2,0.1,0.4,0.1c0,1.7-0.1,3.4-0.1,5.1c0,0.6,0.3,0.9,0.9,0.9
		c1.4,0,2.8,0,4.1,0c0.8,0,1-0.3,1-1.1c0-1.6,0-3.2,0-4.9c0-0.1,0.1-0.1,0.1-0.1c2-0.1,4-0.1,6.1,0c0,0,0,0,0,0
		c0,1.6,0.1,3.2,0.1,4.7c0,1.3,0,1.3,1.4,1.3c1.6,0,3.2,0,4.7,0.1c0,0,0,0,0,0c0,0.3,0.1,0.6,0.1,0.9c0,5.4,0,10.8,0,16.2
		c0,1,0.3,1.3,1.3,1.3c1.6,0,3.3-0.2,4.9,0.1c0,0,0,0,0,0c0,3.7,0.1,7.4,0,11.1c0,0.9,0.3,1.2,1.2,1.2c1.7,0,3.3,0,5,0l0,0
		c0,0.2,0,0.3,0,0.5c-1.6-0.4-3.3-0.1-4.9-0.2c-1.4,0-1.5-0.1-1.5-1.4c0-3.3,0-6.6,0-9.9c0-0.8-0.2-1.1-1-1c-1.3,0-2.5,0-3.8,0
		c-1,0.1-1.4-0.3-1.4-1.3c0-5.3,0-10.6,0-15.9c0-1-0.2-1.3-1.2-1.3c-1.4,0-2.8,0.1-4.1-0.1c-0.6-0.1-0.8-0.4-0.8-1
		c0-1.4,0-2.9,0-4.3c0-0.6-0.2-0.9-0.9-0.9c-1.3,0-2.7,0-4,0c-0.6,0-0.9,0.2-0.8,0.9c0.1,1.4,0.1,2.8,0.1,4.1c0,0.7-0.3,1.2-1.1,1.2
		c-1.6,0.1-3.2,0.1-4.8,0c-0.7-0.1-0.9-0.4-0.9-1c0-1.4,0-2.8,0-4.2c0-0.7-0.2-0.9-0.9-0.9c-1.4,0-2.8,0-4.1,0
		c-0.9,0-1.2-0.3-1.1-1.2c0-3.4,0-6.7,0-10.1c0-0.9-0.2-1.1-1.1-1.1c-1.3,0.1-2.7,0-4,0c-0.9,0-1.1-0.3-1.1-1.1c0-1.4,0-2.8,0-4.1
		c0-0.7-0.2-0.9-0.9-0.9c-7.5,0-14.9,0-22.4,0c-0.8,0-1,0.3-0.9,1c0.1,1.3,0,2.7,0,4c0,0.9-0.3,1.2-1.2,1.1c-1.3-0.1-2.5,0-3.8,0
		c-0.9,0-1.3,0.2-1.2,1.2c0.1,1.3,0,2.6,0,3.9c0,0.9-0.3,1.1-1.1,1.1c-3.4,0-6.7,0-10.1,0c-1,0-1.2,0.2-1.2,1.3
		c0.1,5.4,0,10.9,0.1,16.3c0,0.8-0.5,1-1.1,1c-1.3,0-2.7,0-4,0c-0.8,0-1.1,0.2-1.1,1.1c0.1,1.3,0,2.7,0.1,4c0,0.8-0.4,1.1-1.1,1.1
		c-1.4,0-2.8,0-4.1,0c-0.8,0-1,0.1-1,1c0.1,1.4,0.1,2.8,0.1,4.1c0,0.7-0.3,1-1,1c-3.6,0-7.2,0-10.8,0c-0.9,0-1-0.5-1-1.2
		c0-5.3,0-10.7,0-16c0-1.1-0.3-1.3-1.3-1.3c-1.3,0-2.6,0.1-3.9-0.1c-0.7-0.1-1-0.4-1-1.1c0-1.4,0-2.8,0-4.1c0-0.7-0.3-1-1-1
		c-1.2,0-2.4,0-3.6,0c-0.9,0-1.2,0.2-1.2,1.2c0.1,1.3,0,2.7,0,4c0,0.6-0.1,1-0.8,1c-1.7,0.1-3.3,0.1-5,0c-0.7,0-0.8-0.4-0.8-1
		c0-1.4,0-2.8,0-4.2c0-0.7-0.3-1-1-1c-1.4,0-2.8,0-4.1,0c-0.8,0-1.2-0.3-1.2-1.1c0-3.4,0-6.9,0.1-10.3c0-0.7-0.2-1-0.9-1
		c-1.4,0-2.8,0-4.2,0c-0.8,0-1.2-0.3-1.2-1.1c0-1.2,0-2.5,0-3.7c0.1-1.3,0.1-1.3-1.3-1.3c-3,0-6,0-9,0c-4.2,0-8.5,0-12.7,0
		c-0.9,0-1.2,0.2-1.1,1.2c0.1,1.3,0,2.6,0.1,3.9c0,0.8-0.2,1.1-1,1.1c-1.4,0-2.8,0-4.2,0c-0.8,0-1,0.2-0.9,1.1c0.1,1.3,0,2.7,0.1,4
		c0,0.8-0.3,1.1-1.1,1.1c-3.4,0-6.7,0-10.1,0c-1,0-1.2,0.2-1.2,1.3c0.1,4.1,0.1,8.3,0.1,12.4c0,1.2,0,2.4,0,3.6
		c0,0.9-0.3,1.4-1.3,1.3c-1.4,0-2.8,0-4.1,0c-0.6,0-0.9,0.2-0.9,0.9c0,1.4,0,2.8,0,4.2c0,0.8-0.3,1.1-1.1,1.1c-1.3,0-2.7,0-4,0
		c-0.8,0-1.1,0.2-1.1,1.1c0.1,1.3,0,2.6,0,3.9c0,0.9-0.3,1.2-1.2,1.2c-3.5,0-7,0-10.5,0c-0.9,0-1.1-0.4-1.1-1.2c0-5.3,0-10.7,0-16
		c0-1.1-0.3-1.3-1.3-1.3c-1.3,0.1-2.6,0-3.9,0c-0.8,0-1.1-0.4-1.1-1.1c0-1.4,0-2.8,0.1-4.1c0.1-0.7-0.2-1-0.9-1c-1.3,0-2.7,0-4,0
		c-0.7,0-0.8,0.3-0.8,0.9c0,1.4,0,2.8,0,4.1c0,0.7-0.2,1.1-1,1.2c-1.7,0.1-3.3,0.1-5,0c-0.5-0.1-0.8-0.3-0.8-0.8c0-1.3,0-2.7,0-4
		c0-0.1,0-0.3,0.2-0.2c0.2,1.2,0.1,2.4,0.1,3.7c0,0.7,0.2,1.1,1,1.1c1.4,0,2.8,0,4.1,0c0.7,0,1-0.3,1-1c0-1.7,0-3.4,0-5.1
		c0,0,0,0,0,0c2-0.1,4-0.1,6.1,0c0.1,0,0.1,0.1,0.1,0.1c0,1.5,0.1,3.1,0,4.6c-0.1,1.1,0.3,1.3,1.3,1.3c1.5,0,3.1,0,4.6,0.1
		c0.1,0,0.1,0.1,0.1,0.1c0,0.4,0.1,0.8,0.1,1.3c0,5.3,0,10.7,0,16c0,0.6,0,1.1,0.8,1c3.5,0,7.1,0,10.6,0c0.5,0,0.8-0.2,0.8-0.7
		c-0.1-1.8,0.1-3.5-0.1-5.3c0.1,0,0.2-0.1,0.3-0.1c1.6,0,3.3-0.1,4.9,0c0.8,0,1-0.3,1-1c0-1.6,0-3.3,0-4.9c0-0.1,0.1-0.1,0.1-0.1
		c1.6,0,3.3-0.1,4.9,0c0.8,0,1.1-0.2,1.1-1.1c0-3.3,0-6.6,0-10c0-2.4,0-4.8,0.1-7.2c0,0,0.1-0.1,0.1-0.1c0.4,0,0.8-0.1,1.2-0.1
		c3.3,0,6.6,0,9.9,0c0.9,0,1.2-0.3,1.1-1.2c-0.1-1.6,0-3.2,0-4.8c0-0.1,0.1-0.1,0.1-0.1c1.7-0.2,3.3-0.1,5-0.1c0.8,0,1.1-0.3,1-1.1
		c0-1.7,0-3.4,0-5.1c0,0,0,0,0,0c3.3,0,6.6,0,10,0c4.9,0,9.9,0,14.8,0c0,0,0,0,0,0c0,1.7,0.1,3.3,0,5c0,0.9,0.2,1.2,1.1,1.2
		c1.6,0,3.2-0.2,4.8,0.1c0.1,0.1,0.1,0.1,0.2,0.2c0,3.6,0.1,7.2,0,10.8c0,1.1,0.3,1.3,1.3,1.3c1.5,0,3.1-0.1,4.6,0.1
		c0,0,0.1,0.1,0.1,0.1c0.2,1.6,0.1,3.2,0.1,4.8c0,0.9,0.2,1.2,1.1,1.2c1.3-0.1,2.5-0.1,3.8,0c0.9,0,1.1-0.3,1.1-1.2
		C234.6,136.1,234.5,134.5,234.7,132.9z"/>
	<path class="st1" d="M92.7,250.3c-0.4-0.2-0.8-0.1-1.1-0.1c-5.3,0-10.6,0-15.9,0c-0.4,0-0.8-0.1-1.1-0.1c-0.1,0-0.1-0.1-0.2-0.1
		c-0.2-1.5-0.1-3.1-0.1-4.6c0-1-0.3-1.3-1.3-1.3c-3.6,0-7.2,0-10.8,0c-0.1-0.1-0.1-0.1-0.2-0.2c-0.2-1.6-0.1-3.2-0.1-4.8
		c0-0.9-0.3-1.2-1.1-1.2c-1.7,0-3.4,0.2-5-0.1l0,0c0-1.6-0.1-3.2,0-4.8c0.1-1-0.3-1.3-1.3-1.3c-5.1,0-10.2,0-15.3,0
		c-0.6,0-1.3-0.1-1.9-0.1l0,0c0-3.7-0.1-7.3,0-11c0-1-0.2-1.3-1.2-1.3c-1.7,0-3.3,0-5,0c0,0,0,0,0,0c0-1.7,0-3.4,0-5.1
		c0-0.7-0.2-1-1-1c-1.7,0-3.4,0-5.1,0c0,0,0,0,0,0c-0.3-1.7-0.2-3.4-0.1-5c0-1-0.3-1.2-1.2-1.2c-1.6,0-3.2,0.2-4.8-0.1
		c-0.1-0.1-0.1-0.1-0.2-0.2c0-1.6-0.1-3.2,0-4.7c0-0.9-0.3-1.2-1.1-1.2c-1.6,0-3.2,0.2-4.8-0.1c-0.1-0.1-0.1-0.1-0.2-0.2
		c-0.1-4-0.1-8,0-12c0-0.1,0.1-0.2,0.1-0.3c0.5,0,1.1,0.1,1.6,0.1c3.4,0,6.8,0,10.3,0.1c0.6,0,0.5-0.4,0.5-0.8c0-1.6,0-3.1,0-4.7
		c0-0.2,0.2-0.7-0.3-0.7c0,0,0,0.1-0.1,0.1c0.4-0.4,0.2-1,0.2-1.5c0.1-0.8,0-1.5,0-2.3c0-1-0.3-2,0.8-2.7c1.7,0,3.3,0,5,0
		c0.1,0.1,0.1,0.2,0.2,0.2c0.2,0,0.2-0.1,0.2-0.3c0-2,0.1-3.9,0.1-5.9c0,0,0,0,0,0c1.7,0,3.4-0.1,5.2-0.1c0.8,0,1-0.3,1-1.1
		c0-1.7,0-3.4,0-5.1c0,0,0,0,0,0c0.5,0,1-0.1,1.5-0.1c5.2,0,10.5,0,15.7,0c1,0,1.4-0.3,1.3-1.4c-0.1-1.6,0-3.2,0-4.8l0,0
		c1.6-0.2,3.2-0.1,4.7-0.1c1.4,0,1.4,0,1.4-1.4c0-1.5-0.1-3.1,0.1-4.6c0.1-0.1,0.1-0.1,0.2-0.2c1.5,0,3,0,4.4,0c1.5,0,1.5,0,1.5-1.4
		c0-1.5-0.1-3,0.1-4.5c0,0,0.1-0.1,0.1-0.1c1.6,0,3.2-0.1,4.8,0c0.8,0,1.2-0.2,1.2-1.1c0-5.4,0-10.8,0-16.2c0-0.3,0.1-0.6,0.1-0.9
		c0.1-0.1,0.1-0.1,0.2-0.2c0.4,0,0.8-0.1,1.1-0.1c3.3,0,6.6,0,9.8,0c0.9,0,1.2-0.3,1.1-1.2c0-1.6,0-3.2,0-4.7
		c0.1-0.1,0.1-0.1,0.2-0.2c1.5-0.2,2.9-0.1,4.4-0.1c1.6,0,1.6,0,1.6-1.7c0-1.5-0.2-3,0.1-4.5c0,0,0,0,0,0c8.2,0,16.4,0,24.6,0
		c0,0,0,0,0,0c0,0.2,0,0.3,0,0.5c-0.5-0.2-0.9-0.2-1.4-0.2c-7.2,0-14.4,0-21.6,0c-1.4,0-1.3,0-1.3,1.4c0.1,1.3,0,2.5,0,3.8
		c0,0.7-0.3,1-1.1,1c-1.4,0-2.8,0-4.2,0c-0.7,0-1,0.3-1,1c0,1.3,0,2.7,0,4c0,0.9-0.3,1.2-1.1,1.2c-3.3,0-6.6,0-10,0
		c-1,0-1.3,0.3-1.3,1.3c0,5.3,0,10.7,0,16c0,1-0.3,1.4-1.3,1.3c-1.3-0.1-2.5,0-3.8,0c-0.8,0-1.1,0.2-1,1c0.1,1.3,0,2.7,0,4
		c0,0.8-0.3,1.1-1.1,1.1c-1.4,0-2.8,0-4.1,0c-0.7,0-0.9,0.2-0.9,0.9c0,1.2,0,2.5,0,3.7c0,1.5,0,1.5-1.6,1.5c-1.2,0-2.4,0-3.6,0
		c-0.8,0-1,0.3-1,1.1c0.1,1.2,0,2.5,0,3.7c0,1.3-0.1,1.4-1.4,1.4c-5.2,0-10.3,0-15.5,0c-1.6,0-1.6,0-1.6,1.6c0,1.1,0,2.3,0,3.4
		c0,0.9-0.3,1.2-1.2,1.2c-1.4,0-2.8,0-4.1,0c-0.7,0-1,0.2-0.9,1c0.1,1.4,0,2.8,0.1,4.1c0,0.8-0.4,1.1-1.1,1c-1.4,0-2.8,0-4.1,0
		c-0.9,0-1.1,0.3-1.1,1.2c0.1,3.3,0.1,6.6,0.2,9.8c0,1-0.3,1.4-1.3,1.3c-3.3-0.1-6.6,0-9.9,0c-0.9,0-1.2,0.1-1.2,1.2
		c0.1,3.2,0.1,6.4,0,9.6c0,0.8,0.2,1,0.9,1c1.4,0,2.8,0,4.2,0c0.8,0,1.1,0.3,1.1,1.1c0,1.4,0,2.8-0.1,4.1c0,0.7,0.2,1,0.9,1
		c1.4,0,2.8,0,4.1,0c0.9,0,1.3,0.3,1.3,1.2c-0.1,1.4,0,2.8-0.1,4.1c0,0.7,0.3,0.8,0.9,0.8c1.4,0,2.8,0,4.1,0c0.8,0,1.2,0.3,1.2,1.2
		c-0.1,1.4,0,2.8-0.1,4.1c0,0.7,0.2,0.9,0.8,0.9c1.4,0,2.8,0,4.1,0c1,0,1.3,0.4,1.3,1.3c0,3.2,0,6.4,0,9.7c0,1.4,0,1.4,1.4,1.4
		c5.2,0,10.5,0,15.7,0c1.3,0,1.4,0.1,1.4,1.4c0,1.2,0,2.4,0,3.6c-0.1,0.9,0.2,1.2,1.1,1.2c1.2-0.1,2.4,0,3.6,0
		c1.4,0,1.5,0.1,1.5,1.5c0,1.2,0.1,2.3,0,3.5c-0.1,0.9,0.2,1.2,1.1,1.2c3.3,0,6.6,0,9.9,0c1.3,0,1.4,0,1.4,1.4c0,1.3,0,2.5,0,3.8
		c0,0.7,0.2,1,0.9,1c5.4,0,10.9,0,16.3,0c0.6,0,0.9-0.3,0.8-0.9c0-1.3,0-2.7,0-4c0-0.9,0.4-1.3,1.3-1.2c1.3,0,2.7,0,4,0
		c0.7,0,0.9-0.2,0.9-0.9c0-1.3,0-2.7,0-4c0-0.8,0.3-1.2,1.2-1.2c1.4,0,2.9,0,4.3,0c0.8,0,1.2,0.3,1.2,1.2c0,1.2,0.1,2.5,0,3.7
		c-0.2,1.1,0.3,1.3,1.3,1.3c3.2,0,6.4,0,9.5,0c1.5,0,1.5,0.1,1.5,1.6c0,1.1,0.1,2.2,0,3.3c-0.1,1,0.2,1.3,1.3,1.3
		c5.9,0,11.8,0,17.7,0c1.4,0,2.9,0,4.3,0c0.7,0,0.9-0.2,0.8-1c-0.1-1.3,0-2.6-0.1-3.9c0-0.9,0.3-1.3,1.3-1.3c3.3,0,6.6,0,9.9,0
		c0.9,0,1.4-0.2,1.3-1.2c-0.1-1.3,0-2.5,0-3.8c0-0.8,0.3-1.2,1.1-1.1c1.5,0,3,0,4.5,0c0.3,0,0.6,0,0.9,0.2c0,0,0,0.1,0,0.1
		c0,0-0.1,0.1-0.2,0.1c-1.6,0-3.2,0-4.8-0.1c-0.9,0-1.2,0.2-1.1,1.1c0,1.6,0.1,3.2-0.1,4.8c0,0.1-0.1,0.1-0.1,0.1
		c-3.6,0-7.3,0.1-10.9,0c-0.9,0-1.3,0.2-1.2,1.2c0.1,1.6,0,3.2,0,4.8c0,0.1-0.1,0.1-0.1,0.1c-8.2,0.1-16.3,0.1-24.5,0
		c-0.1,0-0.1-0.1-0.1-0.1c0-1.5,0-3,0-4.5c0-1.4,0-1.4-1.4-1.4c-3.6,0-7.2,0-10.8-0.1c-0.1,0-0.1-0.1-0.1-0.1c0-1.7,0-3.3,0-5
		c0-0.7-0.2-1-1-1c-1.3,0-2.7,0-4,0c-0.9,0-1.1,0.3-1.1,1.1c0,1.7,0,3.3,0,5c0,0,0,0,0,0c-1.7,0-3.3,0.1-5,0c-0.9,0-1.2,0.3-1.2,1.2
		c0.1,1.6,0,3.2,0,4.9C92.8,250.1,92.7,250.2,92.7,250.3z"/>
	<path d="M339.1,256.2c-0.7,0-1.4-0.1-2.1-0.1c-7,0-14,0-20.9,0c-0.2,0-0.5,0-0.7,0c-0.2-0.1-0.5-0.3-0.4-0.5
		c0.1-1.9-0.2-3.8,0.2-5.6c0.3,0,0.6,0.1,0.8,0.1c7.6,0,15.2,0,22.7,0c0.3,0,0.6-0.1,0.9-0.1c0,1.7,0,3.4,0,5.1
		C339.6,255.6,339.6,256,339.1,256.2z"/>
	<path class="st1" d="M290.2,144.9c1.7,0,3.5,0,5.2,0c0.9,0,1.2,0.4,1.2,1.3c0,1.3,0,2.7,0,4c0,0.9-0.3,1.2-1.3,1.2
		c-3.3,0-6.6,0-10,0c-1,0-1.3,0.3-1.3,1.3c0.1,1.3,0,2.6,0,3.9c0,0.7-0.3,1-1,1c-1.5,0-3,0-4.4,0c-0.7,0-1-0.3-1-1
		c0-1.4,0-2.9,0-4.3c0-0.9,0.4-1.2,1.2-1.2c1.3,0,2.7,0,4,0c0.7,0,1-0.3,1-1c0-1.3,0-2.5,0-3.8c0-1,0.3-1.4,1.3-1.4
		C286.9,144.9,288.6,144.9,290.2,144.9z"/>
	<path class="st1" d="M339.6,250c-0.3,0-0.6,0.1-0.9,0.1c-7.6,0-15.2,0-22.7,0c-0.3,0-0.6-0.1-0.8-0.1c-0.1,0-0.1-0.1-0.2-0.1
		c-0.2-1.5-0.1-3-0.1-4.5c0-1.4,0-1.4-1.4-1.4c-3.6,0-7.1,0-10.7-0.1c-0.1,0-0.2-0.1-0.3-0.1c0-1.7,0-3.4,0.1-5.1
		c0-0.7-0.3-0.9-0.9-0.9c-1.4,0-2.7,0-4.1,0c-0.8,0-1,0.3-1,1c0,1.7,0,3.3,0,5c0,0.1-0.1,0.1-0.1,0.1c-1.5,0-3.1,0-4.6,0.1
		c-1.4,0-1.4,0-1.4,1.3c0,1.5,0,3.1,0,4.6c0,0.1-0.1,0.2-0.1,0.3c-0.4,0-0.8-0.1-1.2-0.1c-5.4,0-10.7,0-16.1,0
		c-0.4,0-0.8,0.1-1.2,0.1c0-0.1-0.1-0.2-0.1-0.3c0-1.5,0-3,0-4.5c0-1.4,0-1.4-1.4-1.4c-3.6,0-7.2,0-10.8-0.1c-0.1,0-0.1-0.1-0.1-0.1
		c0-1.7-0.1-3.3,0-5c0-0.7-0.2-1-1-1c-1.4,0-2.8,0-4.1,0c-0.8,0-1,0.3-1,1c0,1.7,0,3.4,0,5.1c0,0.1-0.1,0.1-0.1,0.2
		c-0.1,0-0.3-0.1-0.4-0.1c-3.6,0-7.3,0-10.9,0c-0.7,0-0.9,0.3-0.9,1c0,1.7,0.1,3.3-0.1,5c-0.1,0.1-0.1,0.1-0.2,0.2
		c-0.1,0-0.3,0.1-0.4,0.1c-7.8,0-15.6,0-23.5,0c-0.2,0-0.4,0-0.6-0.1c0,0,0,0,0,0c0-1.5-0.1-3-0.1-4.5c0-1.5,0-1.5-1.6-1.5
		c-3.6,0-7.1,0-10.7-0.1c0,0,0,0,0,0c-0.2-1.7-0.1-3.4-0.1-5.1c0-0.8-0.3-1.1-1-1c-1.3,0-2.7,0-4,0c-0.8,0-1.1,0.3-1,1.1
		c0,1.3,0.1,2.5-0.1,3.8c-0.4,0-0.2-0.3-0.2-0.5c0-1.2,0-2.4,0-3.6c0-0.7,0.3-1.1,1.1-1.1c1.6,0,3.1,0,4.7,0c0.7,0,1,0.3,1,1
		c0,1.4,0,2.8,0,4.1c0,0.9,0.2,1.1,1.1,1.1c3.3,0,6.6,0,10,0c1,0,1.4,0.3,1.3,1.3c-0.1,1.3,0,2.6,0,3.9c0,0.7,0.2,0.9,0.9,0.9
		c7.4,0,14.8,0,22.3,0c0.9,0,1.1-0.3,1.1-1.2c-0.1-1.3,0-2.6,0-3.9c0-0.8,0.3-1.1,1.1-1.1c3.2,0,6.4,0,9.5,0c1.7,0,1.7,0,1.7-1.7
		c0-1.2,0-2.3,0-3.5c0-0.7,0.3-1.1,1-1.1c1.6,0,3.1,0,4.7,0c0.7,0,1,0.4,1,1c0,1.4,0.1,2.8-0.1,4.1c-0.1,0.9,0.2,1.1,1,1.1
		c3.3,0,6.6,0,9.9,0c1.5,0,1.5,0,1.5,1.5c0,1.2,0,2.5-0.1,3.7c-0.1,0.8,0.2,1,0.9,1c1.9,0,3.7,0,5.6,0c3.5,0,6.9,0,10.4,0
		c0.9,0,1.2-0.2,1.1-1.2c-0.2-1.3,0-2.7-0.1-4c0-0.7,0.3-0.9,1-0.9c1.4,0,2.8,0,4.2,0c0.8,0,1.1-0.3,1.1-1.1c-0.1-1.2,0-2.4-0.1-3.6
		c-0.1-1.3,0.2-1.5,1.5-1.6c1.3,0,2.7,0,4,0c0.8,0,1.2,0.3,1.2,1.2c-0.1,1.3,0,2.6,0,3.9c-0.1,0.9,0.3,1.1,1.1,1.1
		c0.7,0,1.5,0,2.2,0c2.6,0,5.2,0,7.7,0c1,0,1.4,0.4,1.3,1.4c-0.1,1.3,0,2.5,0,3.8c0,0.7,0.2,1,1,1c7.5,0,14.9,0,22.4,0
		c0.7,0,0.9-0.3,0.9-1c0-1.3,0-2.7,0-4c0-1,0.3-1.2,1.2-1.2c3.2,0,6.4,0,9.7,0c1.5,0,1.5,0,1.5-1.4c0-1.2,0-2.5,0-3.7
		c0-0.8,0.3-1.1,1-1.1c1.6,0,3.1,0,4.7,0c0.8,0,1.1,0.4,1,1.1c0,1.3,0,2.7,0,4c0,0.8,0.3,1.1,1,1.1c3.4,0,6.7,0,10.1,0
		c0.7,0,0.8-0.3,0.8-0.9c-0.1-1.5-0.1-3-0.1-4.4c0-0.2-0.1-1,0.5-0.3c0,0,0-0.1,0-0.1c-0.1,0-0.1,0-0.2-0.1c0,0.1,0,0.2,0,0.3
		c0,1.9,0,3.8,0,5.6c0,0.1-0.1,0.1-0.1,0.1c-4.1,0.1-8.1,0.1-12.2,0c-0.1,0-0.1-0.1-0.1-0.1c0-1.6,0-3.2,0-4.9
		c0-0.8-0.2-1.2-1.1-1.1c-1.3,0.1-2.6,0.1-3.9,0c-0.9,0-1.1,0.3-1.1,1.1c0.1,1.6,0,3.2,0,4.9c0,0.1-0.1,0.1-0.1,0.1
		c-3.6,0-7.1,0-10.7,0.1c-1.6,0-1.6,0-1.6,1.5C339.7,247,339.6,248.5,339.6,250C339.6,250,339.6,250,339.6,250z"/>
	<path class="st1" d="M92.9,145c1.7,0,3.5,0,5.2,0c0.8,0,1.1,0.2,1.1,1c0,1.3-0.1,2.7,0,4c0,1-0.3,1.4-1.3,1.4c-3.3,0-6.5,0-9.8,0
		c-1,0-1.3,0.2-1.3,1.2c0.1,1.3,0,2.5,0,3.8c0,0.8-0.3,1.1-1.1,1.1c-1.4,0-2.9,0-4.3,0c-0.8,0-1.1-0.4-1-1.1c0.2-1.4,0.1-2.7,0-4.1
		c-0.1-0.8,0.3-1.2,1.2-1.2c1.3,0.1,2.7,0,4,0c0.8,0,1.1-0.3,1-1.1c0-1.2,0-2.5,0-3.7c0-1.4,0-1.4,1.4-1.4
		C89.6,145,91.3,145,92.9,145z"/>
	<path class="st1" d="M123.8,148.2c0,3.2,0,3.2-3.1,3.2c-0.7,0-1.5,0-2.2,0c-0.8,0-1.1-0.2-1.1-1c0-1.4,0-2.8,0-4.1c0-0.7-0.3-1-1-1
		c-1.4,0-2.8,0-4.2,0c-0.7,0-0.9-0.3-0.9-0.9c0-1.6,0-3.1,0-4.7c0-0.7,0.3-0.9,1-0.9c1.5,0,3,0,4.5,0c0.7,0,1,0.3,1,1
		c0,1.3,0,2.7,0,4c0,0.9,0.3,1.2,1.2,1.1c1.3-0.1,2.6,0,3.9,0c0.8,0,1.2,0.3,1.1,1.1C123.7,146.8,123.8,147.5,123.8,148.2z"/>
	<path class="st1" d="M222.5,148.3c0,3.2,0,3.2-3.2,3.2c-0.7,0-1.4,0-2.1,0c-0.8,0-1.2-0.3-1.1-1.1c0-1.3,0-2.7,0-4
		c0-0.8-0.3-1.1-1-1c-1.3,0-2.6,0-3.9,0c-0.8,0-1.2-0.2-1.2-1.1c0-1.4,0-2.8,0-4.1c0-0.8,0.2-1.2,1.1-1.1c1.4,0.1,2.8,0.1,4.2,0
		c0.9,0,1.1,0.3,1.1,1.1c0,1.2,0,2.3,0,3.5c0,1.5,0,1.6,1.6,1.6c1.1,0,2.2,0.1,3.3,0c1.1-0.1,1.4,0.4,1.3,1.3
		C222.4,147,222.5,147.6,222.5,148.3z"/>
	<path class="st1" d="M389,206.6c-0.1,0.1-0.1,0.1-0.2,0.2c-1.6,0.3-3.2,0.1-4.8,0.1c-0.9,0-1.2,0.3-1.1,1.2c0.1,1.3,0.1,2.5,0,3.8
		c0,0.8,0.2,1.1,1,1.1c1.7,0,3.3,0,5,0c0.1,0,0.1,0.1,0.1,0.1c0.2,1.6,0.1,3.3,0.1,4.9c0,0.8,0.2,1.1,1,1.1c1.6,0,3.3,0,4.9,0
		c0.1,0,0.2,0.1,0.3,0.1c-0.2,1.9,0.1,3.8-0.2,5.6c0,1.5,0,2.9,0,4.4c0,2.5,0.4,2.2-2.2,2.2c-2.9,0-5.8,0-8.7,0
		c-0.4,0-0.9-0.2-1.1,0.3c-0.1,0.1-0.1,0.2-0.2,0.3c-0.3-0.1-0.3,0.2-0.4,0.4c0-1,0.1-1.1,1.1-1.1c3.4,0,6.8,0,10.2,0
		c0.9,0,1.2-0.2,1.1-1.1c-0.1-3.2-0.1-6.4,0-9.6c0-0.8-0.3-1-1.1-1c-1.3,0-2.7,0-4,0c-0.8,0-1.1-0.3-1.1-1.1c0-1.3,0-2.7,0-4
		c0-0.8-0.3-1.1-1-1c-1.3,0-2.7,0-4,0c-0.8,0-1.2-0.3-1.2-1.1c0-1.6,0-3.1,0-4.7c0-0.7,0.3-1,1.1-1c1.4,0,2.8,0,4.1,0
		c0.8,0,1.1-0.3,1.1-1.1c-0.1-1.2,0-2.3,0-3.5c0-1.5,0-1.5,1.5-1.5c1.2,0,2.5,0,3.7,0c0.7,0,1-0.3,1-1c0-5.4,0-10.7,0-16.1
		c0-0.7-0.2-1-0.9-0.9c-1.3,0-2.6,0-3.9,0c-0.8,0-1,0.3-0.9,1c0,1.3,0,2.7,0,4c0,0.8-0.2,1.2-1.1,1.1c-1.5-0.1-3,0-4.6,0
		c-0.8,0-1.1-0.3-1.1-1.1c0-1.4,0-2.8,0.1-4.1c0-0.7-0.2-1-0.9-1c-1.4,0-2.8,0-4.2,0c-0.8,0-1.2-0.3-1.2-1.1
		c0.1-5.5-0.1-11,0.1-16.5c0-0.6-0.2-0.9-0.8-0.8c-1.4,0-2.8,0-4.1,0c-0.7,0-0.9,0.3-0.8,0.9c0,1.4,0,2.9,0,4.3
		c0,0.7-0.3,0.9-0.9,0.9c-1.4,0-2.8,0-4.2,0c-0.8,0-1,0.3-1,1.1c0.1,1.4,0,2.8,0,4.1c0,0.7-0.3,1-1,1c-1.6,0-3.1,0-4.7,0
		c-0.8,0-1.1-0.3-1.1-1.1c0-1.2,0-2.5,0-3.7c0-0.2-0.1-0.4,0.2-0.5c0.2,1.3,0.1,2.5,0.1,3.8c0,0.9,0.3,1.2,1.2,1.1
		c1.3-0.1,2.6,0,3.9,0c0.8,0,1-0.3,1-1.1c0-1.7,0-3.4,0-5.1l0,0c1.6,0,3.2-0.1,4.9,0c1,0,1.3-0.3,1.3-1.3c-0.1-1.6,0-3.2,0-4.9l0,0
		c2.1-0.1,4.2-0.1,6.2,0c0,0,0,0,0,0c0,0.2,0.1,0.5,0.1,0.7c0,5.4,0,10.9,0,16.3c0,1.4,0,1.4,1.4,1.4c1.5,0,3-0.1,4.5,0.1
		c0.1,0.1,0.1,0.1,0.2,0.2c0,1.6,0.1,3.2,0,4.9c0,0.8,0.3,1.1,1,1c1.3,0,2.6,0,3.9,0c0.8,0,1.1-0.2,1.1-1.1c-0.1-1.7,0-3.4,0-5.1
		l0,0c2,0,4.1-0.2,6.1,0.1c0.1,0.1,0.1,0.1,0.2,0.2c0,0.3,0.1,0.6,0.1,0.9c0,5.4,0,10.8,0,16.2c0,0.3-0.1,0.6-0.1,0.9
		c-0.1,0.1-0.1,0.1-0.2,0.2c-1.6,0.2-3.2,0.1-4.8,0.1c-0.9,0-1.1,0.3-1.1,1.2C389,203.5,389.1,205.1,389,206.6z"/>
	<path d="M123.6,120.6c1.8-0.3,3.7-0.1,5.5-0.1c0.7,0,0.8,0.4,0.8,1c0,3.6,0,7.2,0,10.8c0,0.2-0.1,0.4,0.2,0.4c0,0,0,0,0,0
		c-0.2-0.1-0.3,0-0.3,0.1c-1.5-0.2-3.1-0.1-4.6-0.1c-1.4,0-1.4,0-1.4-1.4c0-3.2,0.1-6.5-0.1-9.7c0-0.3,0-0.5,0-0.8
		c0,0,0.1,0,0.1-0.1C123.7,120.7,123.6,120.6,123.6,120.6z"/>
	<path d="M173,249.9c-2.6,0.2-5.3,0.1-7.9,0.1c-1.2,0-2.4,0-3.6,0c-0.4,0-0.8-0.1-0.8-0.6c0.1-1.9-0.2-3.7,0.1-5.6
		c3.5,0.2,7,0,10.6,0.1c0.4,0,0.8,0.2,1.1-0.1c0.3,0.1,0.5,0.3,0.6,0.6c-0.2,1.4-0.2,2.9,0,4.3c-0.1,0.3-0.1,0.6,0,0.9
		C172.8,249.7,173,249.8,173,249.9z"/>
	<path class="st1" d="M191.5,151.3c-1.7,0-3.4,0-5.1,0c-0.7,0-1-0.2-1-1c0-1.4,0-2.8,0-4.2c0-0.7,0.3-1,1-1c3.4,0,6.9,0,10.3,0
		c0.8,0,1.1,0.3,1.1,1.1c0,1.3,0,2.6,0,3.9c0,0.9-0.4,1.2-1.3,1.2C194.8,151.3,193.1,151.3,191.5,151.3
		C191.5,151.3,191.5,151.3,191.5,151.3z"/>
	<path d="M339.6,250c0-1.5,0.1-3,0.1-4.5c0-1.5,0-1.5,1.6-1.5c3.6,0,7.1,0,10.7-0.1c0,1.8,0,3.5,0.1,5.3c0,0.8-0.5,0.9-1.1,0.9
		C347.1,250,343.4,250,339.6,250z"/>
	<path d="M358.1,243.9c4.1,0.1,8.1,0.1,12.2,0c0,1.8,0.1,3.6,0.1,5.4c0,0.5-0.3,0.7-0.8,0.7c-3.6,0-7.2,0-10.8,0
		c-0.6,0-0.8-0.3-0.8-0.9C358.1,247.4,358.1,245.7,358.1,243.9z"/>
	<path d="M383,232c0.1-0.1,0.2-0.2,0.2-0.3c3.6,0,7.2,0,10.8,0c0.9,0,1.2,0.2,1.1,1.2c-0.1,1.2,0,2.5,0,3.7c0,0.7-0.1,1.1-0.9,1.1
		c-3.5,0-6.9,0-10.4,0c-0.6,0-0.9-0.2-0.9-0.8C383,235.2,383,233.6,383,232z"/>
	<path d="M370.5,243.8c0-1.9,0-3.8,0-5.6c0.1,0,0.2-0.1,0.1-0.2c0,0,0,0.1,0,0.1c2-0.2,3.9-0.1,5.9-0.1c1.7,0,3.5,0,5.2,0
		c0.8,0,1,0.3,1,1.1c-0.1,1.3,0,2.6,0,3.9c0,0.5,0,1-0.8,1C378.2,243.8,374.3,244,370.5,243.8z"/>
	<path d="M117.4,114.7c0-0.2,0-0.3,0-0.5c1.7,0,3.4,0.1,5,0c0.9,0,1.2,0.3,1.2,1.2c-0.1,1.7-0.1,3.4-0.1,5c-1.7-0.3-3.3-0.1-5-0.1
		c-0.8,0-1-0.3-1-1.1c0-1.3,0.2-2.6-0.1-3.9C117.4,115.2,117.4,114.9,117.4,114.7z"/>
	<path d="M364.3,169.8c0,1.7-0.1,3.4,0,5.1c0,0.8-0.2,1.1-1,1.1c-1.3,0-2.6-0.1-3.9,0c-0.9,0-1.2-0.3-1.2-1.1c0-1.3,0.1-2.5-0.1-3.8
		c0-0.2,0-0.5,0-0.7c0-0.2,0-0.3,0-0.5C360.1,169.8,362.2,169.8,364.3,169.8z"/>
	<path d="M136,132.8c0,1.7-0.1,3.4,0,5.1c0,0.7-0.2,1-1,1c-1.4,0-2.8,0-4.1,0c-0.8,0-1-0.3-1-1.1c0-1.2,0.1-2.5-0.1-3.7
		c0.1-0.3,0.1-0.7,0-1c0.1-0.1,0.1-0.2,0-0.3c0.2,0,0.4,0.2,0.3-0.2c0,0,0,0,0,0c0.9,0.3,1.8,0,2.8,0.1
		C133.8,132.8,134.9,132.8,136,132.8z"/>
	<path d="M197.6,242.6c0.2-1.3,0.1-2.5,0.1-3.8c0-0.8,0.3-1.1,1-1.1c1.3,0,2.7,0,4,0c0.8,0,1.1,0.3,1,1c0,1.7-0.1,3.4,0.1,5.1
		c-2.1,0-4.1,0-6.2,0c0-0.2,0.2-0.3,0-0.5C197.6,243.1,197.6,242.9,197.6,242.6z"/>
	<path d="M154.5,243.8c0.2-1.6,0.1-3.2,0.1-4.8c0-0.9,0.3-1.2,1.1-1.1c1.6,0.1,3.2,0,4.8,0.1c0.3,1.3,0.1,2.6,0.1,3.9
		c0,0.6-0.1,1.2,0.1,1.8c-0.2,0.1-0.1,0.2-0.1,0.3C158.6,243.9,156.6,243.9,154.5,243.8z"/>
	<path d="M395.1,224.9c0.3-1.9,0-3.8,0.2-5.6c1.7,0,3.4,0,5,0c0.4,0,0.7,0,0.9,0.4c0,1.8,0,3.6,0,5.5c-0.2,0.3-0.6,0.4-0.9,0.4
		c-1.4,0-2.8,0-4.2,0C395.6,225.4,395.5,225,395.1,224.9z"/>
	<path d="M352,243.8c0-1.6,0-3.2,0-4.9c0-0.8,0.2-1.2,1.1-1.1c1.3,0.1,2.6,0.1,3.9,0c0.9,0,1.1,0.3,1.1,1.1c-0.1,1.6,0,3.2,0,4.9
		C356,243.9,354,243.9,352,243.8z"/>
	<path class="st1" d="M185.3,154.4c0,0.6,0,1.2,0,1.8c0.1,0.9-0.2,1.2-1.1,1.2c-1.3-0.1-2.5,0-3.8,0c-0.8,0-1.2-0.2-1.1-1.1
		c0.1-1.3,0.1-2.6,0-3.9c-0.1-0.8,0.3-1.1,1.1-1c1.3,0.1,2.6,0.1,3.9,0c0.7-0.1,1.1,0.1,1,0.9C185.2,153,185.3,153.7,185.3,154.4z"
		/>
	<path class="st1" d="M311.8,139.1c0.7,0,1.5,0,2.2,0c0.5,0,0.8,0.3,0.8,0.8c-0.2,1.4-0.1,2.8-0.1,4.1c0,0.7-0.3,1-1,1
		c-1.3,0-2.7,0-4,0c-0.8,0-1-0.4-0.9-1.1c0.2-1.3,0.2-2.5,0-3.8c-0.1-0.8,0.2-1.1,1-1.1C310.5,139.1,311.2,139.1,311.8,139.1z"/>
	<path class="st1" d="M318,145.3c0.7,0,1.4,0,2.1,0c0.7,0,1,0.3,0.9,1c-0.2,1.3-0.2,2.6,0,3.9c0.1,0.7-0.1,1.1-0.9,1.1
		c-1.4,0-2.8,0-4.1,0c-0.6,0-1.1-0.3-1-1c0.2-1.3,0.1-2.7,0.1-4c0-0.7,0.3-1,1-1C316.7,145.3,317.3,145.3,318,145.3
		C318,145.3,318,145.3,318,145.3z"/>
	<path class="st1" d="M197.6,243.4c0.2,0.2,0,0.3,0,0.5c0,0,0,0,0,0c-1.7,0-3.4,0.1-5,0c-0.8,0-1.1,0.3-1,1c0,1.7,0.1,3.4-0.1,5
		c0,0,0,0,0,0c-4.6,0-9.3,0.1-13.9,0.1c-1.5,0-3,0-4.4-0.1c-0.1,0-0.1-0.1-0.1-0.1c0-0.1-0.2-0.2,0.1-0.2c0.4,0.2,0.8,0.2,1.2,0.2
		c5.3,0,10.5,0,15.8,0c1,0,1.3-0.2,1.2-1.3c-0.1-1.3,0-2.7,0-4c0-0.6,0.3-0.9,0.9-0.9c1.1,0,2.3,0,3.4,0
		C196.3,243.7,197,243.6,197.6,243.4z"/>
	<path class="st1" d="M129.7,132.8c0.1,0.1,0.1,0.2,0,0.3c-1.8-0.2-3.6-0.1-5.3-0.1c-0.6,0-1-0.1-1-0.9c0-3.4,0-6.9,0-10.3
		c0-0.1,0-0.1,0.1-0.2c0,0,0.1,0,0.2,0c0.2,3.2,0.1,6.5,0.1,9.7c0,1.4,0,1.4,1.4,1.4C126.7,132.7,128.2,132.6,129.7,132.8
		C129.7,132.8,129.7,132.8,129.7,132.8z"/>
	<path class="st1" d="M160.7,243.8c0-0.1-0.1-0.2,0.1-0.3c0.4,0.2,0.9,0.2,1.3,0.2c3.1,0,6.3,0,9.4,0c0.3,0,0.7-0.2,1,0.2
		c-0.3,0.3-0.7,0.1-1.1,0.1c-3.5,0-7,0.1-10.6-0.1C160.7,243.9,160.7,243.8,160.7,243.8z"/>
	<path class="st1" d="M117.4,115.4c0.2,1.3,0.1,2.6,0.1,3.9c0,0.8,0.3,1,1,1.1c1.7,0,3.4-0.2,5,0.1c0,0,0,0.1,0,0.1
		c0,0.1,0.1,0.1,0.1,0.2c0,0-0.1,0-0.1,0.1c-1.7-0.3-3.4-0.1-5.2-0.1c-0.9,0-1.3-0.3-1.2-1.2c0.1-1.3,0.1-2.7,0.1-4
		C117.3,115.4,117.3,115.4,117.4,115.4C117.4,115.4,117.4,115.4,117.4,115.4z"/>
	<path class="st1" d="M173,248.7c-0.2-1.4-0.2-2.9,0-4.3C173.3,245.9,173.3,247.3,173,248.7z"/>
	<path d="M216.2,114.2c-4.9,0-9.9,0-14.8,0c-3.3,0-6.6,0-10,0c0-1.7,0.1-3.4,0.1-5c0-0.8,0.3-1.1,1.1-1.1c7.5,0,15,0,22.6,0
		c0.8,0,1.1,0.3,1.1,1.1C216.2,110.9,216.2,112.5,216.2,114.2z"/>
	<path d="M117.5,114.2c-8.2,0-16.4,0-24.6,0c0-1.8-0.1-3.5-0.1-5.3c0-0.7,0.4-0.9,1-0.9c1.4,0,2.8,0,4.2,0c6,0,12,0,18,0
		c1.4,0,1.4,0,1.4,1.5C117.5,111.1,117.5,112.7,117.5,114.2z"/>
	<path d="M314.9,114c-0.3,0.3-0.7,0.1-1.1,0.1c-7.9,0-15.7,0-23.6,0c0-1.7,0-3.4,0-5.1c0-0.8,0.3-1.1,1-1.1c7.6,0,15.1,0,22.7,0
		c0.7,0,1.1,0.2,1.1,1C314.9,110.7,314.9,112.4,314.9,114z"/>
	<path d="M160.5,151.3c0.3,1.8,0,3.5,0.1,5.3c0,0.5-0.3,0.7-0.8,0.7c-3.5,0-7.1,0-10.6,0c-0.8,0-0.8-0.5-0.8-1c0-5.3,0-10.7,0-16
		c0-0.4-0.1-0.8-0.1-1.3c1.8-0.2,3.7-0.1,5.5-0.1c0.6,0,0.7,0.4,0.7,0.9c0,3.4,0,6.8-0.1,10.1c0,1,0.3,1.3,1.2,1.3
		C157.3,151.3,158.9,151.3,160.5,151.3z"/>
	<path d="M259.3,151.4c0,1.6-0.1,3.2,0,4.9c0,0.8-0.2,1.2-1.1,1.1c-3.4,0-6.8,0-10.2,0c-0.6,0-1-0.1-1-0.9c0-5.7,0-11.5,0.1-17.2
		c0-0.1,0-0.1,0-0.2c1.7-0.2,3.5,0,5.2-0.1c0.7,0,0.9,0.4,0.9,1c0,3.4,0,6.7-0.1,10.1c0,1,0.3,1.3,1.3,1.3
		C256.1,151.3,257.7,151.3,259.3,151.4z"/>
	<path d="M37.3,231.5c0.6,0,1.3,0.1,1.9,0.1c5.1,0,10.2,0,15.3,0c1,0,1.4,0.3,1.3,1.3c-0.1,1.6,0,3.2,0,4.8c-5.8,0-11.6,0-17.4,0
		c-0.8,0-1.1-0.2-1.1-1C37.3,234.9,37.3,233.2,37.3,231.5z"/>
	<path d="M351.9,157.5c-1.6-0.3-3.2-0.1-4.9-0.1c-1,0-1.3-0.2-1.3-1.3c0.1-5.4,0-10.8,0-16.2c0-0.3-0.1-0.6-0.1-0.9
		c1.7,0,3.4,0,5.1,0c0.9,0,1.2,0.3,1.2,1.2C351.9,145.9,351.9,151.7,351.9,157.5z"/>
	<path d="M382.6,182.2c-1.5-0.2-3-0.1-4.5-0.1c-1.4,0-1.4,0-1.4-1.4c0-5.4,0-10.9,0-16.3c0-0.2,0-0.5-0.1-0.7c1.7,0,3.4,0,5.1-0.1
		c0.8,0,1.1,0.3,1.1,1.1c0,5.7-0.1,11.5-0.1,17.2c0,0,0.1,0.1,0.2,0.1c0,0,0,0,0,0C382.8,182,382.7,182,382.6,182.2z"/>
	<path d="M55.7,157.5c0,1.6-0.1,3.2,0,4.8c0.1,1-0.3,1.4-1.3,1.4c-5.2,0-10.5,0-15.7,0c-0.5,0-1,0-1.5,0.1c0-1.7,0-3.3,0-5
		c0-0.9,0.3-1.2,1.2-1.2C44.2,157.5,50,157.5,55.7,157.5z"/>
	<path d="M74.3,126.8c0,0.3-0.1,0.6-0.1,0.9c0,5.4,0,10.8,0,16.2c0,0.9-0.3,1.1-1.2,1.1c-1.6,0-3.2,0-4.8,0c-0.1-0.3-0.2-0.6-0.2-1
		c0-5.5,0-10.9,0-16.4c0-0.8,0.3-1.1,1-1.1C70.9,126.7,72.6,126.4,74.3,126.8z"/>
	<path d="M395.1,200.5c0-0.3,0.1-0.6,0.1-0.9c0-5.4,0-10.8,0-16.2c0-0.3-0.1-0.6-0.1-0.9c1.9-0.4,3.9-0.2,5.8-0.1
		c0.1,0,0.2,0.2,0.3,0.3c0,5.9,0,11.9,0,17.8c-0.2,0.1-0.3,0.3-0.5,0.3C398.9,200.6,397,200.9,395.1,200.5z"/>
	<path d="M271.7,126.8c0,5.7,0,11.4,0,17c0,1-0.3,1.3-1.3,1.3c-1.6,0-3.2,0-4.8,0c0-1.5-0.1-3-0.1-4.4c0-4.3,0-8.7,0-13
		c0-0.5,0-1,0.7-1C268.1,126.7,269.9,126.4,271.7,126.8z"/>
	<path d="M173,126.8c0,2.4-0.1,4.8-0.1,7.2c0,3.3,0,6.6,0,10c0,0.9-0.3,1.1-1.1,1.1c-1.6,0-3.2,0-4.9,0c-0.2-0.5-0.1-1.1-0.1-1.7
		c0-5.2,0-10.5,0-15.7c0-0.8,0.2-1.1,1-1.1C169.5,126.7,171.3,126.4,173,126.8z"/>
	<path d="M31,219.2c1.7,0,3.3,0.1,5,0c1,0,1.2,0.3,1.2,1.3c0,3.7,0,7.3,0,11c-1.7,0-3.3,0-5,0c-0.9,0-1.2-0.2-1.2-1.2
		c0.1-3.7,0.1-7.3,0.1-11C31.2,219.3,31.1,219.2,31,219.2z"/>
	<path d="M358.1,169.8c-1.7,0-3.3-0.1-5,0c-0.9,0-1.2-0.3-1.2-1.2c0-3.7,0-7.4,0-11.1c1.7,0,3.4,0,5.2,0c0.8,0,1,0.3,1,1.1
		C358.1,162.3,358.1,166,358.1,169.8z"/>
	<path d="M327.1,132.8c-1.6-0.2-3.2-0.1-4.8-0.1c-0.8,0-1.1-0.3-1.1-1.1c0-3.3,0-6.7,0-10c0-0.3-0.1-0.6-0.1-0.9
		c1.9-0.4,3.8-0.1,5.7-0.2c0.5,0,0.6,0.5,0.6,0.9c0,3.5,0,7,0,10.6C327.3,132.2,327.1,132.5,327.1,132.8z"/>
	<path d="M185.3,120.6c0,1.6-0.1,3.2,0,4.8c0,0.9-0.3,1.2-1.1,1.2c-3.3,0-6.6,0-9.9,0c-0.4,0-0.8,0.1-1.2,0.1
		c-0.3-1.8,0-3.6-0.1-5.5c0-0.5,0.2-0.7,0.7-0.7c3.7,0,7.5,0,11.2,0C185,120.5,185.2,120.6,185.3,120.6z"/>
	<path d="M62.2,243.9c3.6,0,7.2,0.1,10.8,0c1,0,1.3,0.3,1.3,1.3c-0.1,1.5-0.1,3.1,0.1,4.6c-2.4,0.3-4.7,0.1-7.1,0.1
		c-1.4,0-2.8,0-4.2,0c-0.8,0-1.1-0.3-1.1-1.1c0-1.6,0-3.3,0-4.9c0,0,0,0,0,0C62,244.1,62.1,244.1,62.2,243.9z"/>
	<path d="M228.4,132.8c-1.5-0.2-3.1-0.1-4.6-0.1c-1,0-1.3-0.2-1.3-1.3c0.1-3.6,0-7.2,0-10.8c1.8-0.4,3.7-0.1,5.6-0.2
		c0.4,0,0.6,0.3,0.6,0.7c0,3.7,0,7.3,0,11C228.5,132.4,228.4,132.6,228.4,132.8z"/>
	<path d="M86.6,120.6c0,1.6-0.1,3.2,0,4.7c0,0.9-0.2,1.2-1.1,1.2c-3.3,0-6.5,0-9.8,0c-0.4,0-0.8,0.1-1.1,0.1
		c-0.4-1.8-0.1-3.7-0.2-5.6c0-0.4,0.3-0.6,0.7-0.6c3.7,0,7.4,0,11.1,0C86.3,120.5,86.5,120.6,86.6,120.6z"/>
	<path d="M24.5,188.3c-3.4,0-6.8,0-10.3-0.1c-0.5,0-1.1-0.1-1.6-0.1c-0.2-1.8,0-3.5-0.1-5.3c0-0.5,0.2-0.7,0.7-0.7
		c3.8,0,7.6,0,11.3,0.1c0,0,0.1,0,0.1-0.1c0,0.1-0.1,0.2-0.1,0.3C24.8,184.4,24.9,186.3,24.5,188.3z"/>
	<path d="M284,120.6c0,1.5,0,3,0,4.5c0,1.4,0,1.4-1.3,1.4c-3.2,0-6.4,0-9.6,0c-0.4,0-0.8,0.1-1.3,0.1c0-1.8,0-3.6-0.1-5.4
		c0-0.5,0.2-0.8,0.7-0.8c3.7,0,7.4,0,11.1,0C283.7,120.5,283.8,120.6,284,120.6z"/>
	<path d="M394.9,182.2c-2-0.3-4.1-0.1-6.1-0.1c0-1.7,0.1-3.3,0.1-5c0-0.8,0.2-1.2,1.1-1.2c1.4,0,2.7,0,4.1,0c0.4,0,1,0,0.9,0.6
		C395.1,178.4,395.3,180.3,394.9,182.2z"/>
	<path d="M240.7,132.8c-1.9-0.1-3.9-0.1-5.8,0c-0.4-1.8-0.1-3.7-0.2-5.6c0-0.5,0.4-0.6,0.8-0.6c1.5,0,3,0,4.5,0
		c0.4,0,0.8,0.1,0.8,0.6C240.8,129.1,241.1,130.9,240.7,132.8z"/>
	<path d="M376.6,163.7c-2.1-0.2-4.2-0.1-6.2,0c0-1.7,0-3.4,0-5.1c0-0.8,0.2-1.2,1.1-1.1c1.4,0.1,2.8,0,4.1,0c0.8,0,1,0.3,1,1.1
		C376.6,160.2,376.6,161.9,376.6,163.7z"/>
	<path d="M62,151.4c-0.2,1.5-0.1,3.1-0.1,4.6c0,1.4,0,1.4-1.4,1.4c-1.6,0-3.2-0.1-4.7,0.1c0-1.7,0-3.3,0-5c0-0.9,0.2-1.3,1.2-1.2
		c1.4,0.1,2.8,0,4.1,0c0.3,0,0.6,0.2,0.8-0.2c0,0,0,0,0,0C61.8,151.2,61.8,151.3,62,151.4z"/>
	<path d="M142,132.8c-2-0.1-4-0.1-6.1,0c0-1.7,0-3.5,0-5.2c0-0.7,0.3-1,1-1c1.4,0,2.8,0,4.2,0c0.5,0,1,0.1,1,0.7
		C142.1,129.1,142.3,130.9,142,132.8z"/>
	<path d="M339.6,132.8c-2-0.1-4-0.1-6.1,0c-0.3-1.8,0-3.7-0.1-5.5c0-0.6,0.5-0.7,1-0.7c1.4,0,2.8,0,4.2,0c0.7,0,1,0.3,1,1
		C339.6,129.3,339.6,131,339.6,132.8z"/>
	<path d="M37.3,163.6c0,1.7-0.1,3.4,0,5.1c0,0.8-0.3,1.1-1,1.1c-1.7,0-3.4,0-5.2,0.1c0-1.7,0.1-3.4,0-5.1c0-0.8,0.2-1.1,1-1.1
		C33.8,163.6,35.6,163.6,37.3,163.6z"/>
	<path d="M92.9,114.2c-0.3,1.5-0.1,3-0.1,4.5c0,1.6,0,1.6-1.6,1.7c-1.5,0-2.9-0.1-4.4,0.1c-0.3-1.9,0-3.7-0.1-5.6
		c0-0.6,0.4-0.6,0.9-0.6c1.6,0,3.2,0,4.8,0C92.5,114.3,92.7,114.3,92.9,114.2z"/>
	<path d="M18.9,206.8c1.6,0.3,3.2,0.1,4.8,0.1c0.9,0,1.2,0.2,1.2,1.2c-0.1,1.7-0.2,3.4,0.1,5c-1.6-0.3-3.3-0.1-4.9-0.1
		c-1,0-1.4-0.3-1.3-1.3C18.9,210.1,18.6,208.4,18.9,206.8z"/>
	<path d="M55.7,237.7c1.7,0.3,3.4,0.1,5,0.1c0.9,0,1.2,0.3,1.1,1.2c0,1.6-0.2,3.2,0.1,4.8c-0.2,0-0.2,0.1-0.1,0.3c0,0,0,0,0,0
		c-0.3-0.4-0.7-0.2-1-0.2c-1.3,0-2.6-0.1-3.9,0c-1,0.1-1.3-0.4-1.2-1.3C55.8,240.9,55.7,239.3,55.7,237.7z"/>
	<path d="M290.2,114.2c0,1.6,0,3.2,0,4.8c0,1.3,0,1.3-1.4,1.3c-1.6,0-3.2-0.1-4.7,0.1c0-1.8,0-3.6-0.1-5.4c0-0.6,0.2-0.8,0.9-0.8
		C286.7,114.3,288.4,114.2,290.2,114.2z"/>
	<path d="M345.7,138.9c-1.6,0-3.2-0.1-4.7-0.1c-1.4,0-1.4,0-1.4-1.3c0-1.6,0-3.2-0.1-4.7c1.7,0,3.3,0,5,0c0.8,0,1.2,0.2,1.2,1.1
		C345.7,135.6,345.8,137.2,345.7,138.9z"/>
	<path d="M320.9,120.5c-1.6-0.2-3.2-0.1-4.8-0.1c-0.8,0-1.1-0.3-1.1-1.1c0.1-1.7,0-3.4,0-5.2c1.6,0.3,3.1,0.1,4.7,0.1
		c1.4,0,1.4,0,1.4,1.4C321,117.2,321.3,118.9,320.9,120.5z"/>
	<path d="M166.8,145.2c0,1.6-0.1,3.3,0,4.9c0,0.8-0.2,1.1-1,1c-1.6,0-3.3,0-4.9,0c-0.3-1.8-0.1-3.6-0.2-5.5c0-0.5,0.3-0.6,0.8-0.6
		C163.2,145.2,165,145,166.8,145.2z"/>
	<path d="M222.2,120.5c-1.6-0.2-3.2-0.1-4.8-0.1c-0.9,0-1.2-0.3-1.1-1.2c0.1-1.7,0-3.3,0-5c1.7,0,3.4,0,5.1,0c0.8,0,1.2,0.2,1.1,1.1
		C222.2,117,222.5,118.8,222.2,120.5z"/>
	<path d="M370.4,163.6c0,1.6-0.1,3.2,0,4.9c0,1-0.3,1.3-1.3,1.3c-1.6,0-3.2,0-4.9,0c0-1.7,0-3.4,0-5.1c0-0.8,0.3-1.1,1.1-1.1
		C367,163.7,368.7,163.6,370.4,163.6z"/>
	<path d="M148.2,138.9c-1.5,0-3.1-0.1-4.6-0.1c-1,0-1.4-0.2-1.3-1.3c0.1-1.5,0-3.1,0-4.6c1.8-0.3,3.7-0.1,5.5-0.1
		c0.4,0,0.7,0.3,0.7,0.7C148.2,135.3,148.5,137.1,148.2,138.9z"/>
	<path d="M246.9,138.9c-1.6,0-3.2-0.1-4.8-0.1c-0.8,0-1.1-0.3-1.1-1.1c0-1.6,0.2-3.2-0.1-4.8c1.8-0.3,3.7-0.1,5.5-0.2
		c0.3,0,0.7,0.1,0.7,0.5C247,135.2,247.3,137.1,246.9,138.9z"/>
	<path d="M68.2,145.2c-0.2,1.5-0.1,3-0.1,4.5c0,1.4,0,1.4-1.5,1.4c-1.5,0-3,0-4.4,0c0-0.2-0.1-0.2-0.3-0.1c0,0,0,0,0,0
		c0-1.6,0.1-3.3,0-4.9c0-0.8,0.2-1.2,1.1-1.1C64.7,145.2,66.4,145,68.2,145.2z"/>
	<path d="M12.7,200.6c1.6,0.2,3.2,0.1,4.8,0.1c0.9,0,1.2,0.3,1.1,1.2c-0.1,1.6,0,3.2,0,4.7c-1.8,0.4-3.7,0.1-5.6,0.2
		c-0.4,0-0.6-0.3-0.6-0.6C12.7,204.4,12.4,202.5,12.7,200.6z"/>
	<path d="M388.9,182.1c0,1.7,0,3.4,0,5.1c0,0.8-0.3,1.1-1.1,1.1c-1.3,0-2.6,0-3.9,0c-0.8,0-1.1-0.2-1-1c0-1.6,0-3.2,0-4.9
		c0.2,0,0.2-0.1,0.1-0.3c0,0,0,0,0,0C384.9,182.2,386.9,182.2,388.9,182.1z"/>
	<path d="M191.4,114.2c0,1.7,0,3.4,0,5.1c0,0.8-0.3,1.1-1,1.1c-1.7,0-3.3-0.2-5,0.1c0-1.8-0.1-3.6-0.1-5.4c0-0.7,0.4-0.8,0.9-0.8
		C188,114.3,189.7,114.2,191.4,114.2z"/>
	<path d="M234.7,132.9c-0.2,1.6-0.1,3.2-0.1,4.8c0,0.9-0.2,1.2-1.1,1.2c-1.3-0.1-2.5-0.1-3.8,0c-0.9,0-1.1-0.3-1.1-1.2
		c0-1.6,0.1-3.2-0.1-4.8C230.6,132.7,232.7,132.7,234.7,132.9z"/>
	<path d="M25,213.1c1.7,0,3.4,0,5.1,0c0.7,0,1,0.3,1,1c0,1.7,0,3.4,0,5.1c-1.6,0-3.3,0-4.9,0c-1,0-1.2-0.3-1.2-1.2
		C25,216.4,25,214.7,25,213.1z"/>
	<path d="M30.6,175.7c-1.7,0-3.3,0-5,0c-0.5,0-0.7-0.1-0.7-0.7c0-1.4,0-2.9,0-4.3c0-0.7,0.2-1,0.9-0.9c1.7,0,3.5,0,5.2,0
		c0,2-0.1,3.9-0.1,5.9C30.8,175.7,30.7,175.7,30.6,175.7z"/>
	<path d="M333.4,132.9c0,1.6-0.1,3.2,0,4.9c0,0.8-0.2,1.1-1,1.1c-1.4,0-2.8,0-4.1,0c-0.6,0-0.9-0.2-0.9-0.9c0-1.7,0.1-3.4,0.1-5.1
		C329.4,132.7,331.4,132.7,333.4,132.9z"/>
	<path d="M265.5,145.2c0,1.6-0.1,3.2,0,4.7c0.1,1-0.3,1.3-1.3,1.3c-1.6,0-3.2,0-4.7,0c0-1.8-0.1-3.6-0.1-5.4c0-0.5,0.2-0.8,0.8-0.8
		C261.9,145.2,263.7,145.2,265.5,145.2z"/>
	<path d="M216.2,250.1c0.2,0,0.4,0.1,0.6,0.1c7.8,0,15.6,0,23.5,0c0.1,0,0.3,0,0.4-0.1c0.4,1.9,0.1,3.7,0.2,5.6
		c0,0.3-0.2,0.4-0.4,0.5c-2.7,0-5.4-0.1-8-0.1c-5.2,0-10.5,0-15.7,0.1c-0.4-0.2-0.5-0.5-0.5-0.9
		C216.2,253.5,216.2,251.8,216.2,250.1z"/>
	<path d="M271.8,250.3c0.4,0,0.8-0.1,1.2-0.1c5.4,0,10.7,0,16.1,0c0.4,0,0.8,0.1,1.2,0.1c0,1.7,0,3.4,0.1,5.1c0,0.3-0.1,0.6-0.4,0.8
		c-5.9,0-11.7,0-17.6,0c-0.5-0.1-0.6-0.5-0.5-0.9C271.7,253.6,271.7,252,271.8,250.3z"/>
	<path d="M240.9,249.9c0.2-1.6,0.1-3.3,0.1-5c0-0.6,0.2-1,0.9-1c3.6,0,7.3,0,10.9,0c0.1,0,0.3,0.1,0.4,0.1c0.3,1.7,0,3.5,0.1,5.3
		c0,0.4-0.2,0.7-0.7,0.7C248.7,250,244.8,250.2,240.9,249.9z"/>
	<path d="M259.5,243.9c3.6,0,7.2,0,10.8,0.1c1.4,0,1.4,0,1.4,1.4c0,1.5,0,3,0,4.5c-3.8,0.2-7.7,0-11.5,0.1c-0.5,0-0.8-0.2-0.8-0.8
		C259.4,247.5,259.4,245.7,259.5,243.9z"/>
	<path d="M253.2,243.9c0-1.7,0.1-3.4,0-5.1c0-0.7,0.2-1,1-1c1.4,0,2.8,0,4.1,0c0.8,0,1,0.3,1,1c0,1.7,0,3.3,0,5
		C257.3,244,255.3,243.8,253.2,243.9z"/>
	<path d="M117.5,250.1c8.2,0.1,16.3,0.1,24.5,0c0.3,1.9,0,3.7,0.1,5.6c0,0.3-0.2,0.5-0.4,0.6c-5.7,0-11.4,0-17.1,0
		c-2.2,0-4.4,0-6.7,0.1c-0.4-0.1-0.5-0.4-0.5-0.8C117.5,253.6,117.5,251.8,117.5,250.1z"/>
	<path d="M173.1,250.1c1.5,0,3,0.1,4.4,0.1c4.6,0,9.3,0,13.9-0.1c0,1.7,0,3.5,0.1,5.2c0,0.4-0.1,0.8-0.5,0.9c-2.7,0-5.5-0.1-8.2-0.1
		c-3.1,0-6.3,0-9.4,0c-0.3-0.2-0.4-0.4-0.4-0.7C173.1,253.7,172.8,251.9,173.1,250.1z"/>
	<path d="M142.2,249.9c0-1.6,0.1-3.2,0-4.8c0-1,0.3-1.2,1.2-1.2c3.6,0,7.3,0,10.9,0c0.3,1.9,0.1,3.7,0.2,5.6c0,0.4-0.3,0.5-0.7,0.5
		C150,250,146.1,250.2,142.2,249.9z"/>
	<path d="M105.2,243.9c3.6,0,7.2,0,10.8,0.1c1.4,0,1.4,0,1.4,1.4c0,1.5,0,3,0,4.5c-3.8,0.2-7.7,0-11.5,0.1c-0.5,0-0.8-0.2-0.8-0.8
		C105.2,247.5,105.2,245.7,105.2,243.9z"/>
	<path d="M92.8,250c0-1.6,0.1-3.2,0-4.9c0-0.9,0.2-1.3,1.2-1.2c1.7,0,3.3,0,5,0c0,1.7,0,3.4,0,5.1c0,0.9-0.3,1.1-1.1,1.1
		C96.2,250,94.5,250,92.8,250z"/>
	<path d="M99,243.9c0-1.7,0.1-3.3,0-5c0-0.8,0.2-1.2,1.1-1.1c1.3,0,2.7,0,4,0c0.8,0,1,0.3,1,1c0,1.7,0,3.3,0,5
		C103.1,243.8,101,243.9,99,243.9z"/>
	<path d="M203.9,243.9c3.6,0,7.1,0,10.7,0.1c1.6,0,1.6,0,1.6,1.5c0,1.5,0,3,0.1,4.5c-3.7,0-7.4,0-11.1,0c-1,0-1.3-0.3-1.3-1.3
		C203.9,247.2,203.9,245.5,203.9,243.9z"/>
	<path d="M191.5,250c0.2-1.7,0.1-3.4,0.1-5c0-0.8,0.3-1.1,1-1c1.7,0,3.4,0,5,0c0,1.8,0,3.5,0.1,5.3c0,0.7-0.3,0.9-1,0.9
		C195,250,193.2,250,191.5,250z"/>
	<path d="M302.8,243.9c3.6,0,7.1,0,10.7,0.1c1.4,0,1.4,0,1.4,1.4c0,1.5-0.1,3,0.1,4.5c-2.4,0.3-4.7,0.1-7.1,0.1c-1.4,0-2.9,0-4.3,0
		c-0.5,0-1-0.1-1-0.7c0-1.6,0-3.2,0-4.9C302.6,244.3,302.7,244.1,302.8,243.9z"/>
	<path d="M290.3,249.9c0-1.5,0-3.1,0-4.6c0-1.3,0-1.3,1.4-1.3c1.5,0,3.1,0,4.6-0.1c0.2,1.8,0,3.6,0.1,5.5c0,0.5-0.3,0.7-0.8,0.7
		C293.9,250,292.1,250.1,290.3,249.9z"/>
	<path d="M296.4,243.8c0-1.7,0.1-3.3,0-5c0-0.7,0.2-1,1-1c1.4,0,2.7,0,4.1,0c0.7,0,1,0.2,0.9,0.9c0,1.7,0,3.4-0.1,5.1
		C300.4,243.9,298.4,243.9,296.4,243.8z"/>
	<path d="M389,206.6c0.2-1.6,0.1-3.2,0.1-4.7c0-0.9,0.2-1.2,1.1-1.2c1.6,0,3.2,0.1,4.8-0.1c0.3,1.8,0.1,3.6,0.2,5.5
		c0,0.4-0.1,0.7-0.6,0.7C392.7,206.7,390.8,207.1,389,206.6z"/>
	<path d="M395,219.1c-1.6,0-3.3-0.1-4.9,0c-0.8,0-1-0.3-1-1.1c0-1.6,0.1-3.3-0.1-4.9c1.8,0,3.6-0.1,5.4-0.1c0.4,0,0.8,0.1,0.8,0.5
		C395.1,215.4,395.3,217.3,395,219.1z"/>
	<path d="M388.8,213c-1.7,0-3.3-0.1-5,0c-0.8,0-1.1-0.3-1-1.1c0.1-1.3,0.1-2.5,0-3.8c0-0.9,0.2-1.2,1.1-1.2c1.6,0,3.2,0.2,4.8-0.1
		C389.1,208.9,389,210.9,388.8,213z"/>
	<path class="st0" d="M24.5,188.3c0.4-2,0.2-3.9,0.1-5.9c0-0.1,0-0.2,0.1-0.3c0.5,0,0.3,0.4,0.3,0.7c0,1.6,0,3.1,0,4.7
		C25.1,187.8,25.1,188.3,24.5,188.3z"/>
	<path class="st0" d="M61.9,244c-0.1-0.1-0.1-0.2,0.1-0.3c0.1,0.1,0.1,0.1,0.2,0.2C62.1,244.1,62,244.1,61.9,244z"/>
	<path class="st0" d="M30.6,175.7c0.1,0,0.2,0,0.4-0.1c0,0.1,0,0.3-0.2,0.3C30.7,175.9,30.6,175.8,30.6,175.7z"/>
	<path class="st0" d="M61.9,151.1c0.1-0.1,0.2,0,0.3,0.1c-0.1,0.1-0.1,0.1-0.2,0.2C61.8,151.3,61.8,151.2,61.9,151.1z"/>
	<path class="st0" d="M370.6,237.9c0,0.1,0,0.2-0.1,0.2c0-0.1,0-0.2,0-0.3C370.5,237.9,370.6,237.9,370.6,237.9z"/>
	<path class="st0" d="M382.9,182.1c0.1,0.1,0.1,0.2-0.1,0.3c-0.1-0.1-0.1-0.1-0.2-0.2C382.7,182,382.8,182,382.9,182.1z"/>
	<path class="st0" d="M129.7,132.8C129.7,132.8,129.7,132.8,129.7,132.8c0-0.2,0.1-0.3,0.3-0.2C130.1,133,129.9,132.9,129.7,132.8z"
		/>
</g>
<path class="st2" d="M226.9,90.5l-24.4-11.3l-4.7,7.9L242,111l-14.4,39.4l-47.7,6.5L142.9,135l11.1-26.2l30.9,12.3l3.4-7.3
	l-45.5-19.2l33.7-50l35.8-4.9l30.5,24.6L226.9,90.5z"/>
<path class="st3" d="M357.5,45.4v45L320,84.2l10.3,70.6h-53.7l8.1-70.6l-38.1-2V43.4L357.5,45.4z"/>
<path class="st4" d="M446.9,43l-6.1,31l-36.2,5.6l-0.5,7.6l32,2.4l-1.5,23.9l-28.5,2.5l2.5,8.1l34.7,0.3l12.8,29.8h-82.7l-8.1-71.7
	l8.1-39.6H446.9z"/>
<path class="st3" d="M555.9,61.9l2.1,44.4l-26.7,25.8l-33.2,2.1v21.1h-35l5.5-111.6h60.8L555.9,61.9z M503.3,96.1l9.9,1.4l12.6-14.9
	l-21.4-4.6L503.3,96.1z"/>
<g>
	<path d="M874.1,157c0-2.1,0-4.3,0-6.4l-0.1,0.1c8.6,0,17.1,0,25.7,0l-0.1-0.1c0,2.1,0,4.3,0,6.4C891.2,157,882.6,157,874.1,157z"/>
	<path d="M848.5,150.6c0,2.1,0,4.3,0,6.4c-6.4,0-12.8,0-19.2,0c0-2.1,0-4.3,0-6.4l-0.1,0.1C835.7,150.7,842.1,150.7,848.5,150.6
		L848.5,150.6z"/>
	<path d="M963.7,99.4c-2.2,0-4.3,0-6.5,0c0-6.4,0.1-12.8,0.1-19.2c0,0-0.1,0.1-0.1,0.1c2.1,0,4.3,0,6.4,0
		C963.7,86.6,963.7,93,963.7,99.4z"/>
	<path d="M957.3,118.6c2.2,0,4.3,0,6.5,0c0,4.3,0,8.5,0,12.8c-2.1,0-4.3,0-6.4,0l0.1,0.1C957.4,127.2,957.3,122.9,957.3,118.6z"/>
	<path d="M848.5,9.9c-0.1-6.4-0.1-6.4,6.2-6.4c5.4,0,10.8,0.1,16.2,0c2.3-0.1,3.6,0.3,3.1,3c-0.2,1.1-0.1,2.3-0.1,3.5
		c0,0,0.1-0.1,0.1-0.1C865.6,9.8,857,9.8,848.5,9.9L848.5,9.9z"/>
	<path d="M810.1,137.8c-7.6,0-15.3,0-22.9,0.1c-2.1,0-3.2-0.3-2.8-2.7c0.2-1.2,0.1-2.5,0.1-3.8c0,0-0.1,0.1-0.1,0.1
		c6.5,0,12.9,0,19.4,0C810.2,131.4,810.2,131.4,810.1,137.8L810.1,137.8z"/>
	<path d="M822.9,41.9c0-5.4,0.1-10.8-0.1-16.2c-0.1-2.4,0.4-3.5,3-3.1c1.1,0.2,2.3,0.1,3.5,0.1l-0.1-0.1c0,4.3,0,8.7,0,13
		C829.3,41.9,829.3,41.9,822.9,41.9L822.9,41.9z"/>
	<path d="M906.1,35.5c6.4-0.1,6.5-0.1,6.4,6.2c0,4.3,0,8.7,0,13l0.1-0.1c-1.2,0-2.3-0.1-3.5,0.1c-2.6,0.4-3.1-0.8-3-3.1
		C906.2,46.2,906.2,40.8,906.1,35.5C906.2,35.4,906.1,35.5,906.1,35.5z"/>
	<path d="M790.9,61.1c-0.1-6.4-0.1-6.4,6.2-6.4c4.3,0,8.7,0,13,0l-0.1-0.1c0,1.2-0.1,2.3,0.1,3.5c0.4,2.6-0.8,3.1-3.1,3
		C801.6,60.9,796.2,61,790.9,61.1L790.9,61.1z"/>
	<path d="M938.1,61.1c6.4-0.1,6.5-0.1,6.4,6.2c0,4.3,0,8.7,0,13l0.1-0.1c-1.2,0-2.3-0.1-3.5,0.1c-2.6,0.4-3.1-0.8-3-3.1
		C938.3,71.8,938.2,66.4,938.1,61.1L938.1,61.1z"/>
	<path d="M758.9,99.4c-6.4,0.1-6.4,0.1-6.4-6.2c0-0.1,0-0.2,0-0.3c0-6.3,0-6.3,6.4-6.2l-0.1-0.1C758.8,90.9,758.8,95.2,758.9,99.4
		L758.9,99.4z"/>
	<path d="M912.5,54.7c6.4-0.1,6.5-0.1,6.4,6.2c0,2.2,0,4.4,0,6.6l0.1-0.1c-1.4,0-2.8-0.1-4.1,0.1c-2,0.3-2.5-0.6-2.4-2.5
		C912.6,61.5,912.6,58.1,912.5,54.7L912.5,54.7z"/>
	<path d="M829.3,150.6c-3.5,0-7-0.1-10.4,0.1c-1.9,0.1-2.7-0.3-2.5-2.4c0.2-1.3,0.1-2.7,0.1-4.1l-0.1,0.1c2.2,0,4.4,0,6.6,0
		C829.4,144.2,829.4,144.2,829.3,150.6L829.3,150.6z"/>
	<path d="M784.5,131.4c-6.4,0.1-6.5,0.1-6.4-6.2c0-2.2,0-4.4,0-6.6c0,0-0.1,0.1-0.1,0.1c1.4,0,2.8,0.1,4.1-0.1
		c2-0.3,2.5,0.6,2.4,2.5C784.4,124.5,784.4,128,784.5,131.4L784.5,131.4z"/>
	<path d="M829.3,22.7c-0.1-6.4-0.1-6.5,6.2-6.4c2.2,0,4.4,0,6.6,0c0,0-0.1-0.1-0.1-0.1c0,1.4-0.1,2.8,0.1,4.1c0.3,2-0.6,2.5-2.5,2.4
		C836.2,22.5,832.7,22.6,829.3,22.7L829.3,22.7z"/>
	<path d="M880.5,16.3c6.4-0.1,6.4-0.1,6.4,6.2c0,2.2,0,4.4,0,6.6L887,29c-1.4,0-2.8-0.1-4.1,0.1c-2,0.3-2.5-0.6-2.4-2.5
		C880.6,23.1,880.5,19.7,880.5,16.3L880.5,16.3z"/>
	<path d="M758.9,86.7c-0.1-6.4-0.1-6.5,6.2-6.4c2.2,0,4.4,0,6.6,0c0,0-0.1-0.1-0.1-0.1c0,1.4-0.1,2.8,0.1,4.1c0.3,2-0.6,2.5-2.5,2.4
		C765.8,86.5,762.3,86.6,758.9,86.7L758.9,86.7z"/>
	<path d="M944.5,80.3c2.2,0,4.3,0,6.5,0l-0.1-0.1c0,1.6-0.1,3.2,0.1,4.7c0.1,1.4-0.5,1.7-1.8,1.7c-4.6,0.2-4.6,0.2-4.6-4.3
		C944.5,81.7,944.6,80.9,944.5,80.3L944.5,80.3z"/>
	<path d="M951,80.3c0-1.5,0.1-3-0.1-4.4c-0.2-1.7,0.5-2.1,2.1-2.1c4.3,0,4.3-0.1,4.3,4.3c0,0.7,0,1.5,0,2.2c0,0,0.1-0.1,0.1-0.1
		C955.2,80.2,953.1,80.2,951,80.3L951,80.3z"/>
	<path d="M765.3,105.8c-6.5,0.2-6.5,0.2-6.4-6.4c0,0-0.1,0.1-0.1,0.1C765.4,99.3,765.4,99.3,765.3,105.8L765.3,105.8z"/>
	<path d="M899.7,29.1c6.5-0.2,6.5-0.2,6.4,6.4c0,0,0.1-0.1,0.1-0.1C899.6,35.5,899.6,35.5,899.7,29.1L899.7,29.1z"/>
	<path d="M771.7,112.2c-6.5,0.2-6.5,0.2-6.4-6.4c0,0-0.1,0.1-0.1,0.1C771.8,105.7,771.8,105.7,771.7,112.2L771.7,112.2z"/>
	<path d="M778.1,118.6c-6.5,0.1-6.5,0.1-6.4-6.4c0,0-0.1,0.1-0.1,0.1C778.2,112.1,778.2,112.1,778.1,118.6L778.1,118.6z"/>
	<path d="M771.7,80.3c-0.1-6.6-0.1-6.6,6.4-6.4l-0.1-0.1C778.2,80.3,778.2,80.3,771.7,80.3L771.7,80.3z"/>
	<path d="M918.9,67.5c2.2,0,4.3,0,6.5,0c0,0-0.1-0.1-0.1-0.1c0,1.6-0.1,3.2,0.1,4.7c0.1,1.4-0.5,1.7-1.8,1.7
		c-4.6,0.2-4.6,0.2-4.6-4.3C918.9,68.9,919,68.1,918.9,67.5L918.9,67.5z"/>
	<path d="M778.1,73.9c-0.1-6.6-0.1-6.6,6.4-6.4l-0.1-0.1C784.6,73.9,784.6,73.9,778.1,73.9L778.1,73.9z"/>
	<path d="M874.1,9.9c6.5-0.1,6.5-0.1,6.4,6.4c0,0,0.1-0.1,0.1-0.1C874,16.3,874,16.3,874.1,9.9L874.1,9.9z"/>
	<path d="M886.9,29.1c2.2,0,4.3,0,6.5,0c0,0-0.1-0.1-0.1-0.1c0,1.6-0.1,3.2,0.1,4.7c0.1,1.4-0.5,1.7-1.8,1.7
		c-4.6,0.2-4.6,0.2-4.6-4.3C886.9,30.5,886.9,29.7,886.9,29.1L886.9,29.1z"/>
	<path d="M925.4,67.5c-0.1-6.6-0.1-6.6,6.4-6.4l-0.1-0.1C931.8,67.5,931.8,67.5,925.4,67.5L925.4,67.5z"/>
	<path d="M842.1,16.3c-0.1-6.5-0.1-6.5,6.4-6.4c0,0-0.1-0.1-0.1-0.1C848.6,16.3,848.6,16.3,842.1,16.3L842.1,16.3z"/>
	<path d="M816.5,144.2c-6.5,0.1-6.5,0.1-6.4-6.4c0,0-0.1,0.1-0.1,0.1C816.6,137.7,816.6,137.7,816.5,144.2L816.5,144.2z"/>
	<path d="M784.5,67.5c-0.1-6.5-0.1-6.5,6.4-6.4c0,0-0.1-0.1-0.1-0.1C791,67.5,791,67.5,784.5,67.5L784.5,67.5z"/>
	<path d="M931.8,61.1c0-1.5,0.1-3-0.1-4.4c-0.2-1.7,0.5-2.1,2.1-2.1c4.3,0,4.3-0.1,4.3,4.3c0,0.7,0,1.5,0,2.2c0,0,0.1-0.1,0.1-0.1
		C936,61,933.9,61,931.8,61.1L931.8,61.1z"/>
	<path d="M893.4,29.1c0-1.5,0.1-3-0.1-4.4c-0.2-1.7,0.5-2.1,2.1-2.1c4.3,0,4.3-0.1,4.3,4.3c0,0.7,0,1.5,0,2.2c0,0,0.1-0.1,0.1-0.1
		C897.6,29,895.4,29,893.4,29.1L893.4,29.1z"/>
	<path d="M810.1,54.7c-0.1-6.6-0.1-6.6,6.4-6.4l-0.1-0.1C816.6,54.7,816.6,54.7,810.1,54.7L810.1,54.7z"/>
	<path d="M816.5,48.3c-0.1-6.5-0.1-6.5,6.4-6.4c0,0-0.1-0.1-0.1-0.1C823,48.3,823,48.3,816.5,48.3L816.5,48.3z"/>
	<path d="M931.7,144.2c0.1,6.4,0.1,6.4-6.2,6.4c-0.1,0-0.2,0-0.3,0c-6.3,0-6.3,0-6.2-6.4l-0.1,0.1
		C923.2,144.3,927.5,144.3,931.7,144.2L931.7,144.2z"/>
	<path d="M912.5,144.2c0.1,6.4,0.1,6.4-6.2,6.4c-2.2,0-4.4,0-6.6,0c0,0,0.1,0.1,0.1,0.1c0-1.4,0.1-2.8-0.1-4.1
		c-0.3-2,0.6-2.5,2.5-2.4C905.6,144.4,909.1,144.3,912.5,144.2C912.6,144.3,912.5,144.2,912.5,144.2z"/>
	<path d="M944.5,137.8c0.1,6.4,0.1,6.4-6.2,6.4c-2.2,0-4.4,0-6.6,0c0,0,0.1,0.1,0.1,0.1c0-1.4,0.1-2.8-0.1-4.1
		c-0.3-2,0.6-2.5,2.5-2.4C937.6,138,941.1,137.9,944.5,137.8L944.5,137.8z"/>
	<path d="M957.3,131.4c0.1,6.4,0.1,6.5-6.2,6.4c-2.2,0-4.4,0-6.6,0c0,0,0.1,0.1,0.1,0.1c0-1.4,0.1-2.8-0.1-4.1
		c-0.3-2,0.6-2.5,2.5-2.4C950.4,131.6,953.9,131.5,957.3,131.4L957.3,131.4z"/>
	<path d="M919,144.2c-2.2,0-4.3,0-6.5,0c0,0,0.1,0.1,0.1,0.1c0-1.6,0.1-3.2-0.1-4.7c-0.1-1.4,0.5-1.7,1.8-1.7
		c4.6-0.2,4.6-0.2,4.6,4.3C918.9,142.8,918.9,143.5,919,144.2L919,144.2z"/>
	<path d="M874.2,150.6c-3.5,0-7-0.1-10.4,0.1c-1.9,0.1-2.7-0.3-2.5-2.4c0.2-1.3,0.1-2.7,0.1-4.1l-0.1,0.1c2.2,0,4.4,0,6.6,0
		C874.2,144.2,874.2,144.2,874.2,150.6L874.2,150.6z"/>
	<path d="M861.4,144.2c-2.2,0-4.3,0-6.5,0l0.1,0.1c0-1.6,0.1-3.2-0.1-4.7c-0.1-1.4,0.5-1.7,1.8-1.7c4.6-0.2,4.6-0.2,4.6,4.3
		C861.3,142.8,861.3,143.5,861.4,144.2C861.3,144.3,861.4,144.2,861.4,144.2z"/>
	<path d="M854.9,144.2c0.1,6.5,0.1,6.5-6.4,6.4c0,0,0.1,0.1,0.1,0.1C848.4,144.1,848.4,144.1,854.9,144.2L854.9,144.2z"/>
	<path class="st5" d="M854.9,144.3c-6.5-0.1-6.5-0.1-6.4,6.4c-6.4,0-12.9,0-19.3,0c0.1-6.4,0.1-6.4-6.2-6.4c-2.2,0-4.4,0-6.6,0
		c0.1-6.5,0.1-6.5-6.4-6.4c0.1-6.4,0.1-6.5-6.2-6.4c-6.5,0-12.9,0-19.4,0c0-3.5-0.1-7,0.1-10.4c0.1-1.9-0.3-2.7-2.4-2.5
		c-1.3,0.2-2.7,0.1-4.1,0.1c0.1-6.5,0.1-6.5-6.4-6.4c0.1-6.5,0.1-6.5-6.4-6.4c0.1-6.5,0.1-6.5-6.4-6.4c0-4.3,0-8.6,0-12.9
		c3.5,0,7-0.1,10.4,0.1c1.9,0.1,2.7-0.3,2.5-2.4c-0.2-1.3-0.1-2.7-0.1-4.1c6.5,0.1,6.5,0.1,6.4-6.4c6.5,0.1,6.5,0.1,6.4-6.4
		c6.5,0.1,6.5,0.1,6.4-6.4c5.4,0,10.8-0.1,16.2,0.1c2.4,0.1,3.5-0.4,3.1-3c-0.2-1.1-0.1-2.3-0.1-3.5c6.5,0.1,6.5,0.1,6.4-6.4
		c6.5,0.1,6.5,0.1,6.4-6.4c6.4,0.1,6.5,0.1,6.4-6.2c0-4.3,0-8.7,0-13c3.5,0,7-0.1,10.4,0.1c1.9,0.1,2.7-0.3,2.5-2.4
		c-0.2-1.3-0.1-2.7-0.1-4.1c6.5,0.1,6.5,0.1,6.4-6.4c8.6,0,17.1,0,25.7,0c-0.1,6.5-0.1,6.5,6.4,6.4c0,3.5,0.1,7-0.1,10.4
		c-0.1,1.9,0.3,2.7,2.4,2.5c1.3-0.2,2.7-0.1,4.1-0.1c0,0.7,0,1.5,0,2.2c0,4.5,0,4.5,4.6,4.3c1.3-0.1,1.9-0.3,1.8-1.7
		c-0.1-1.6-0.1-3.2-0.1-4.7c2.2,0,4.3,0,6.5,0c-0.1,6.5-0.1,6.5,6.4,6.4c0,5.4,0.1,10.8-0.1,16.2c-0.1,2.4,0.4,3.5,3,3.1
		c1.1-0.2,2.3-0.1,3.5-0.1c0,3.5,0.1,7-0.1,10.4c-0.1,1.9,0.3,2.7,2.4,2.5c1.3-0.2,2.7-0.1,4.1-0.1c0,0.7,0,1.5,0,2.2
		c0,4.5,0,4.5,4.6,4.3c1.3-0.1,1.9-0.3,1.8-1.7c-0.1-1.6-0.1-3.2-0.1-4.7c6.5,0.1,6.5,0.1,6.4-6.4c2.2,0,4.3,0,6.5,0
		c0,5.4,0.1,10.8-0.1,16.2c-0.1,2.4,0.4,3.5,3,3.1c1.1-0.2,2.3-0.1,3.5-0.1c0,0.7,0,1.5,0,2.2c0,4.5,0,4.5,4.6,4.3
		c1.3-0.1,1.9-0.3,1.8-1.7c-0.1-1.6-0.1-3.2-0.1-4.7c2.2,0,4.3,0,6.5,0c0,6.4-0.1,12.8-0.1,19.2c0,0,0.1,0,0.1,0
		c-6.4,0.1-6.4,0.1-6.5,6.5l0.1-0.1c-1.6,0-3.2,0.1-4.7,0c-1.1,0-1.6,0.1-1.8,1.5c-0.4,4.9-0.4,4.9,4.3,4.9c0.7,0,1.5,0,2.2,0
		l-0.1-0.1c0.1,6.4,0.1,6.4,6.5,6.5c0,0-0.1,0-0.1,0c0,4.3,0.1,8.6,0.1,12.8c-3.5,0-7,0.1-10.4-0.1c-1.9-0.1-2.7,0.3-2.5,2.4
		c0.2,1.3,0.1,2.7,0.1,4.1c-3.5,0-7,0.1-10.4-0.1c-1.9-0.1-2.7,0.3-2.5,2.4c0.2,1.3,0.1,2.7,0.1,4.1c-4.3,0-8.6,0-12.9,0
		c0-0.7,0-1.5,0-2.2c0-4.5,0-4.5-4.6-4.3c-1.3,0.1-1.9,0.3-1.8,1.7c0.1,1.6,0.1,3.2,0.1,4.7c-3.5,0-7,0.1-10.4-0.1
		c-1.9-0.1-2.7,0.3-2.5,2.4c0.2,1.3,0.1,2.7,0.1,4.1c-8.6,0-17.1,0-25.7,0c0.1-6.4,0.1-6.4-6.2-6.4c-2.2,0-4.4,0-6.6,0
		c0-0.7,0-1.5,0-2.2c0-4.5,0-4.5-4.6-4.3c-1.3,0.1-1.9,0.3-1.8,1.7C855,141.1,854.9,142.7,854.9,144.3z M790.9,112.3
		c0-1.6,0-3.2,0-4.7c0-0.7,0.1-1.4-0.9-1.7c-3.7-1.1-5.4,0.2-5.5,3.8c-0.1,2.1,0.7,2.8,2.7,2.6C788.4,112.1,789.6,112.2,790.9,112.3
		c0,6.4,0,6.4,6.5,6.4c0,0.9,0.1,1.7,0,2.6c-0.6,3.3,0.8,4.1,3.9,3.9c6.5-0.3,13-0.1,19.5-0.1c1.3,0,2.1,0,2.2,1.8
		c0.2,4.6,0.3,4.6,5,4.6c1.4,0,2.8,0.2,4.2,0c2.9-0.4,4.1,0.7,3.6,3.6c-0.4,2.2,0.4,3.1,2.7,2.9c2.2-0.2,4.5-0.3,6.7,0
		c3,0.4,3.8-0.8,3.4-3.5c-0.4-2.4,0.5-3.1,2.9-3c4.1,0.2,8.3-0.1,12.5,0.1c3,0.2,4.4-0.5,3.8-3.7c-0.1-0.8-0.6-2.3,0.6-2.5
		c1.6-0.3,3.5-0.5,5.1,0c1.5,0.4,0.8,2.2,0.7,3.4c-0.1,2.2,0.4,3.3,2.8,2.8c3.2-0.6,4.2,0.8,3.7,3.8c-0.4,2.1,0.5,2.8,2.6,2.7
		c4.2-0.2,8.3-0.3,12.5,0c3.2,0.2,4.8-0.6,4.2-4c-0.3-1.6,0.2-2.5,2.1-2.5c4.2,0,4.2-0.1,4.2-4.5c0-0.6,0-1.3,0-1.9
		c1.6,0,3.2,0,4.7,0c0.7,0,1.4,0.1,1.7-0.9c1.1-3.7-0.2-5.4-3.9-5.5c-2.1-0.1-2.8,0.7-2.6,2.7c0.1,1.3,0,2.5,0,3.8
		c-7.3,0-14.6-0.2-21.9,0.1c-3.1,0.1-4.2-0.8-3.7-3.8c0.2-1.3,0.4-2.7-1.9-2.7c-4.5-0.1-4.5-0.3-4.5-4.8c0-0.5,0-1.1,0-1.6
		c1.6,0,3.2,0,4.7,0c0.7,0,1.4,0.1,1.7-0.9c1.1-3.7-0.2-5.4-3.9-5.5c-2.1-0.1-2.8,0.7-2.6,2.7c0.1,1.3,0,2.5,0,3.8
		c-0.5,0-1.1,0-1.6,0c-4.5,0-4.6,0-4.8,4.6c-0.1,1.7-0.8,1.9-2.2,1.9c-4.5-0.1-9,0.1-13.4-0.1c-2.7-0.1-4.3,0.4-3.7,3.5
		c0.5,2.4-0.6,3.1-2.9,3c-4.3-0.2-8.5-0.2-12.8,0c-2.7,0.1-4.1-0.5-3.5-3.4c0.5-2.6-0.7-3.5-3.1-3c-2.7,0.5-3.6-0.6-3.3-3.3
		c0.1-1,0.7-2.4-0.7-3.1c-3.1-1.4-5.7,0.3-5.6,3.7c0.1,2.1-0.5,2.7-2.7,2.7c-5.5-0.1-11.1,0-16.6,0
		C797.3,112.2,797.3,112.2,790.9,112.3z M880.5,41.8c0,1.6,0,3.2,0,4.7c0,0.7-0.1,1.4,0.9,1.7c3.7,1.1,5.4-0.2,5.5-3.8
		c0.1-2.1-0.7-2.8-2.7-2.6C883,41.9,881.8,41.8,880.5,41.8c0-1.5,0-3.1,0-4.7c0-0.7,0.1-1.4-0.9-1.7c-3.7-1.1-5.4,0.2-5.5,3.8
		c-0.1,2.1,0.7,2.8,2.7,2.6C878,41.7,879.3,41.8,880.5,41.8z M842.1,48.2c3.2,0,6.4-0.2,9.5,0.1c2.6,0.2,3.4-0.5,3.4-3.2
		c0-2.6-0.7-3.7-3.3-3.3c-1,0.2-2.1,0-3.2,0C842,41.8,842,41.8,842.1,48.2c-1.5,0-3.1,0-4.7,0c-0.7,0-1.4-0.1-1.7,0.9
		c-1.1,3.7,0.2,5.4,3.9,5.5c2.1,0.1,2.8-0.7,2.6-2.7C842,50.7,842.1,49.5,842.1,48.2z"/>
	<path d="M950.9,105.9c0.1-6.4,0.1-6.4,6.5-6.5C957.2,105.7,957.2,105.7,950.9,105.9z"/>
	<path d="M951,112.3c-0.7,0-1.5,0-2.2,0c-4.7,0-4.7-0.1-4.3-4.9c0.1-1.4,0.7-1.5,1.8-1.5c1.6,0,3.2,0,4.7,0
		C951,108,951,110.1,951,112.3z"/>
	<path d="M957.4,118.7c-6.4-0.1-6.4-0.1-6.5-6.5C957.2,112.3,957.2,112.3,957.4,118.7z"/>
	<path class="st6" d="M797.3,118.7c5.5,0,11.1-0.1,16.6,0c2.1,0.1,2.7-0.6,2.7-2.7c-0.1-3.4,2.5-5.1,5.6-3.7
		c1.5,0.6,0.9,2.1,0.7,3.1c-0.3,2.7,0.7,3.7,3.3,3.3c2.4-0.4,3.7,0.4,3.1,3c-0.6,2.9,0.8,3.6,3.5,3.4c4.3-0.2,8.5-0.2,12.8,0
		c2.4,0.1,3.4-0.6,2.9-3c-0.6-3.1,1-3.7,3.7-3.5c4.5,0.2,9,0,13.4,0.1c1.4,0,2.1-0.2,2.2-1.9c0.2-4.6,0.3-4.6,4.8-4.6
		c0.5,0,1.1,0,1.6,0l0,0c0,0.5,0,1.1,0,1.6c0,4.5,0,4.7,4.5,4.8c2.3,0.1,2.1,1.4,1.9,2.7c-0.5,3,0.6,3.9,3.7,3.8
		c7.3-0.3,14.6-0.1,21.9-0.1l0,0c0,0.6,0,1.3,0,1.9c0,4.3,0,4.4-4.2,4.5c-2,0-2.5,0.8-2.1,2.5c0.6,3.5-1,4.3-4.2,4
		c-4.1-0.3-8.3-0.2-12.5,0c-2.1,0.1-3-0.6-2.6-2.7c0.5-3-0.5-4.4-3.7-3.8c-2.3,0.4-2.9-0.7-2.8-2.8c0.1-1.1,0.8-2.9-0.7-3.4
		c-1.6-0.5-3.4-0.3-5.1,0c-1.1,0.2-0.7,1.7-0.6,2.5c0.5,3.2-0.9,3.9-3.8,3.7c-4.1-0.3-8.3,0.1-12.5-0.1c-2.4-0.1-3.4,0.6-2.9,3
		c0.5,2.7-0.4,3.9-3.4,3.5c-2.2-0.3-4.5-0.2-6.7,0c-2.3,0.2-3.1-0.7-2.7-2.9c0.5-2.9-0.6-4-3.6-3.6c-1.4,0.2-2.8,0-4.2,0
		c-4.7,0-4.8,0-5-4.6c-0.1-1.8-1-1.8-2.2-1.8c-6.5,0-13-0.2-19.5,0.1c-3.2,0.1-4.5-0.7-3.9-3.9C797.4,120.3,797.3,119.5,797.3,118.7
		L797.3,118.7z"/>
	<path class="st6" d="M842.1,48.2c-0.1-6.4-0.1-6.4,6.4-6.4c1.1,0,2.1,0.1,3.2,0c2.7-0.4,3.3,0.6,3.3,3.3c0,2.7-0.8,3.4-3.4,3.2
		C848.4,48,845.2,48.2,842.1,48.2L842.1,48.2z"/>
	<path class="st6" d="M880.5,41.8c-1.3,0-2.5-0.1-3.8,0c-2,0.2-2.8-0.4-2.7-2.6c0.1-3.7,1.8-4.9,5.5-3.8c1,0.3,0.9,1,0.9,1.7
		C880.5,38.7,880.5,40.3,880.5,41.8L880.5,41.8z"/>
	<path class="st6" d="M874.1,112.3c0-1.3,0.1-2.5,0-3.8c-0.2-2,0.4-2.8,2.6-2.7c3.7,0.1,4.9,1.8,3.9,5.5c-0.3,1-1,0.9-1.7,0.9
		C877.3,112.2,875.7,112.2,874.1,112.3C874.1,112.2,874.1,112.3,874.1,112.3z"/>
	<path class="st6" d="M797.3,118.6c-6.5,0.1-6.5,0.1-6.4-6.4l0,0C797.3,112.2,797.3,112.2,797.3,118.6
		C797.3,118.7,797.3,118.6,797.3,118.6z"/>
	<path class="st6" d="M906.1,125.1c0-1.3,0.1-2.5,0-3.8c-0.2-2,0.4-2.8,2.6-2.7c3.7,0.1,4.9,1.8,3.9,5.5c-0.3,1-1,0.9-1.7,0.9
		C909.3,125,907.7,125,906.1,125.1C906.1,125,906.1,125.1,906.1,125.1z"/>
	<path class="st6" d="M842.1,48.2c0,1.3-0.1,2.5,0,3.8c0.2,2-0.4,2.8-2.6,2.7c-3.7-0.1-4.9-1.8-3.9-5.5c0.3-1,1-0.9,1.7-0.9
		C839,48.2,840.5,48.2,842.1,48.2C842.1,48.2,842.1,48.2,842.1,48.2z"/>
	<path class="st6" d="M880.5,41.8c1.3,0,2.5,0.1,3.8,0c2-0.2,2.8,0.4,2.7,2.6c-0.1,3.7-1.8,4.9-5.5,3.8c-1-0.3-0.9-1-0.9-1.7
		C880.5,45,880.5,43.4,880.5,41.8C880.5,41.8,880.5,41.8,880.5,41.8z"/>
	<path class="st6" d="M790.9,112.2c-1.3,0-2.5-0.1-3.8,0c-2,0.2-2.8-0.4-2.7-2.6c0.1-3.7,1.8-4.9,5.5-3.8c1,0.3,0.9,1,0.9,1.7
		C790.9,109.1,790.9,110.7,790.9,112.2C790.9,112.3,790.9,112.2,790.9,112.2z"/>
</g>
<path class="st7" d="M599.4,42.8l1.8,45.8l22-3.3l1.4-40.3l30.9,1.3l6,107.7l-34.8-1.2l-0.3-33.8l-21,4.1l0.8,30.9h-32.5l-12-104
	L599.4,42.8z"/>
<path class="st2" d="M746.3,43l-6.2,31L704,79.6l-0.4,7.6l31.9,2.4l-1.5,23.9l-28.5,2.5l2.6,8.1l34.7,0.3l12.8,29.8h-82.7l-8.1-71.7
	l8.1-39.6H746.3z"/>
<path class="st7" d="M769,46.9l22.5-2.4l24.7,32.4l-1.8-34.8l35.2,1.8l3.6,105.5l-28.8,1.2l-25.6-31.4l-2.7,36.3l-35.5,2.2L769,46.9
	z"/>
<path class="st7" d="M187,227.2l-25.7-16.5l-6.5,8.2l45.9,33.7l-22.3,42h-54.6l-38.1-30.3l16.5-27.7l32.8,18.5l4.9-7.6l-48.1-28.6
	l45.6-51h41l30.4,32.3L187,227.2z"/>
<path class="st4" d="M346.4,285.9l-51.3,8.2l-4.1-30.1l-41.3-1l-9.3,32.1l-49.5-8.8l67.8-114.1l34-3.4L346.4,285.9z M260.4,230.6
	l26,0.7l-6-17.5l-13.1-0.5L260.4,230.6z"/>
<path class="st3" d="M361.7,174l25.5-3l28.4,36.4l-2.6-39.4l39.9,1.5l5.6,119.5l-32.7,1.8l-29.5-35.2l-2.5,41.2l-40.2,3L361.7,174z"
	/>
<path class="st2" d="M564.5,171.3l-1.9,45L532,202.1l-26.7,12.4l-1.2,28.9l23.5,16l34.5-18l11.6,47.4l-67.8,6l-33.2-29.1l-9.9-36.5
	l15.3-39.3l39.4-21.6L564.5,171.3z"/>
<path class="st4" d="M617.8,167.9l2,51.9l25-3.7l1.5-45.7l35,1.5l6.8,122.1l-39.4-1.4l-0.3-38.2l-23.8,4.6l0.8,35h-36.9l-13.6-117.8
	L617.8,167.9z"/>
<path class="st3" d="M782.8,168.1l-7,35.2l-41,6.3l-0.5,8.7l36.2,2.7l-1.7,27l-32.3,2.9l2.9,9.2l39.3,0.3l14.4,33.8h-93.7l-9.2-81.3
	l9.2-44.9H782.8z"/>
<path class="st2" d="M797.9,298.5v-36.4l45.1-46.9l-45.1,2.7l8-50.4l105.6,7.5l-2,34.5l-41.5,45.8l43.5-6.4l-1.5,54L797.9,298.5z"/>
<path d="M97.6,540.5c-0.1,4-0.1,8,0,12c-1.8,0.4-3.7,0.1-5.5,0.2c-0.6,0-0.7-0.4-0.7-0.9c0-3.5,0-7.1,0-10.6c0-0.5,0.1-0.9,0.7-0.9
	C93.9,540.4,95.8,540.1,97.6,540.5z"/>
<g>
	<path d="M489.1,398c0-2.1,0-4.3,0-6.4l-0.1,0.1c8.6,0,17.1,0,25.7,0l-0.1-0.1c0,2.1,0,4.3,0,6.4C506.2,398,497.6,398,489.1,398z"/>
	<path d="M463.5,391.6c0,2.1,0,4.3,0,6.4c-6.4,0-12.8,0-19.2,0c0-2.1,0-4.3,0-6.4l-0.1,0.1C450.7,391.7,457.1,391.7,463.5,391.6
		L463.5,391.6z"/>
	<path d="M578.7,340.4c-2.2,0-4.3,0-6.5,0c0-6.4,0.1-12.8,0.1-19.2c0,0-0.1,0.1-0.1,0.1c2.1,0,4.3,0,6.4,0
		C578.7,327.6,578.7,334,578.7,340.4z"/>
	<path d="M572.3,359.6c2.2,0,4.3,0,6.5,0c0,4.3,0,8.5,0,12.8c-2.1,0-4.3,0-6.4,0l0.1,0.1C572.4,368.2,572.3,363.9,572.3,359.6z"/>
	<path d="M463.5,250.9c-0.1-6.4-0.1-6.4,6.2-6.4c5.4,0,10.8,0.1,16.2,0c2.3-0.1,3.6,0.3,3.1,3c-0.2,1.1-0.1,2.3-0.1,3.5
		c0,0,0.1-0.1,0.1-0.1C480.6,250.8,472,250.8,463.5,250.9L463.5,250.9z"/>
	<path d="M425.1,378.8c-7.6,0-15.3,0-22.9,0.1c-2.1,0-3.2-0.3-2.8-2.7c0.2-1.2,0.1-2.5,0.1-3.8c0,0-0.1,0.1-0.1,0.1
		c6.5,0,12.9,0,19.4,0C425.2,372.4,425.2,372.4,425.1,378.8L425.1,378.8z"/>
	<path d="M437.9,282.9c0-5.4,0.1-10.8-0.1-16.2c-0.1-2.4,0.4-3.5,3-3.1c1.1,0.2,2.3,0.1,3.5,0.1l-0.1-0.1c0,4.3,0,8.7,0,13
		C444.3,282.9,444.3,282.9,437.9,282.9L437.9,282.9z"/>
	<path d="M521.1,276.5c6.4-0.1,6.5-0.1,6.4,6.2c0,4.3,0,8.7,0,13l0.1-0.1c-1.2,0-2.3-0.1-3.5,0.1c-2.6,0.4-3.1-0.8-3-3.1
		C521.2,287.2,521.2,281.8,521.1,276.5C521.2,276.4,521.1,276.5,521.1,276.5z"/>
	<path d="M405.9,302.1c-0.1-6.4-0.1-6.4,6.2-6.4c4.3,0,8.7,0,13,0l-0.1-0.1c0,1.2-0.1,2.3,0.1,3.5c0.4,2.6-0.8,3.1-3.1,3
		C416.6,301.9,411.2,302,405.9,302.1L405.9,302.1z"/>
	<path d="M553.1,302.1c6.4-0.1,6.5-0.1,6.4,6.2c0,4.3,0,8.7,0,13l0.1-0.1c-1.2,0-2.3-0.1-3.5,0.1c-2.6,0.4-3.1-0.8-3-3.1
		C553.3,312.8,553.2,307.4,553.1,302.1L553.1,302.1z"/>
	<path d="M373.9,340.4c-6.4,0.1-6.4,0.1-6.4-6.2c0-0.1,0-0.2,0-0.3c0-6.3,0-6.3,6.4-6.2l-0.1-0.1
		C373.8,331.9,373.8,336.2,373.9,340.4L373.9,340.4z"/>
	<path d="M527.5,295.7c6.4-0.1,6.5-0.1,6.4,6.2c0,2.2,0,4.4,0,6.6l0.1-0.1c-1.4,0-2.8-0.1-4.1,0.1c-2,0.3-2.5-0.6-2.4-2.5
		C527.6,302.5,527.6,299.1,527.5,295.7L527.5,295.7z"/>
	<path d="M444.3,391.6c-3.5,0-7-0.1-10.4,0.1c-1.9,0.1-2.7-0.3-2.5-2.4c0.2-1.3,0.1-2.7,0.1-4.1l-0.1,0.1c2.2,0,4.4,0,6.6,0
		C444.4,385.2,444.4,385.2,444.3,391.6L444.3,391.6z"/>
	<path d="M399.5,372.4c-6.4,0.1-6.5,0.1-6.4-6.2c0-2.2,0-4.4,0-6.6c0,0-0.1,0.1-0.1,0.1c1.4,0,2.8,0.1,4.1-0.1
		c2-0.3,2.5,0.6,2.4,2.5C399.4,365.5,399.4,369,399.5,372.4L399.5,372.4z"/>
	<path d="M444.3,263.7c-0.1-6.4-0.1-6.5,6.2-6.4c2.2,0,4.4,0,6.6,0c0,0-0.1-0.1-0.1-0.1c0,1.4-0.1,2.8,0.1,4.1
		c0.3,2-0.6,2.5-2.5,2.4C451.2,263.5,447.7,263.6,444.3,263.7L444.3,263.7z"/>
	<path d="M495.5,257.3c6.4-0.1,6.4-0.1,6.4,6.2c0,2.2,0,4.4,0,6.6l0.1-0.1c-1.4,0-2.8-0.1-4.1,0.1c-2,0.3-2.5-0.6-2.4-2.5
		C495.6,264.1,495.5,260.7,495.5,257.3L495.5,257.3z"/>
	<path d="M373.9,327.7c-0.1-6.4-0.1-6.5,6.2-6.4c2.2,0,4.4,0,6.6,0c0,0-0.1-0.1-0.1-0.1c0,1.4-0.1,2.8,0.1,4.1
		c0.3,2-0.6,2.5-2.5,2.4C380.8,327.5,377.3,327.6,373.9,327.7L373.9,327.7z"/>
	<path d="M559.5,321.3c2.2,0,4.3,0,6.5,0l-0.1-0.1c0,1.6-0.1,3.2,0.1,4.7c0.1,1.4-0.5,1.7-1.8,1.7c-4.6,0.2-4.6,0.2-4.6-4.3
		C559.5,322.7,559.6,321.9,559.5,321.3L559.5,321.3z"/>
	<path d="M566,321.3c0-1.5,0.1-3-0.1-4.4c-0.2-1.7,0.5-2.1,2.1-2.1c4.3,0,4.3-0.1,4.3,4.3c0,0.7,0,1.5,0,2.2c0,0,0.1-0.1,0.1-0.1
		C570.2,321.2,568.1,321.2,566,321.3L566,321.3z"/>
	<path d="M380.3,346.8c-6.5,0.2-6.5,0.2-6.4-6.4c0,0-0.1,0.1-0.1,0.1C380.4,340.3,380.4,340.3,380.3,346.8L380.3,346.8z"/>
	<path d="M514.7,270.1c6.5-0.2,6.5-0.2,6.4,6.4c0,0,0.1-0.1,0.1-0.1C514.6,276.5,514.6,276.5,514.7,270.1L514.7,270.1z"/>
	<path d="M386.7,353.2c-6.5,0.2-6.5,0.2-6.4-6.4c0,0-0.1,0.1-0.1,0.1C386.8,346.7,386.8,346.7,386.7,353.2L386.7,353.2z"/>
	<path d="M393.1,359.6c-6.5,0.1-6.5,0.1-6.4-6.4c0,0-0.1,0.1-0.1,0.1C393.2,353.1,393.2,353.1,393.1,359.6L393.1,359.6z"/>
	<path d="M386.7,321.3c-0.1-6.6-0.1-6.6,6.4-6.4l-0.1-0.1C393.2,321.3,393.2,321.3,386.7,321.3L386.7,321.3z"/>
	<path d="M533.9,308.5c2.2,0,4.3,0,6.5,0c0,0-0.1-0.1-0.1-0.1c0,1.6-0.1,3.2,0.1,4.7c0.1,1.4-0.5,1.7-1.8,1.7
		c-4.6,0.2-4.6,0.2-4.6-4.3C533.9,309.9,534,309.1,533.9,308.5L533.9,308.5z"/>
	<path d="M393.1,314.9c-0.1-6.6-0.1-6.6,6.4-6.4l-0.1-0.1C399.6,314.9,399.6,314.9,393.1,314.9L393.1,314.9z"/>
	<path d="M489.1,250.9c6.5-0.1,6.5-0.1,6.4,6.4c0,0,0.1-0.1,0.1-0.1C489,257.3,489,257.3,489.1,250.9L489.1,250.9z"/>
	<path d="M501.9,270.1c2.2,0,4.3,0,6.5,0c0,0-0.1-0.1-0.1-0.1c0,1.6-0.1,3.2,0.1,4.7c0.1,1.4-0.5,1.7-1.8,1.7
		c-4.6,0.2-4.6,0.2-4.6-4.3C501.9,271.5,501.9,270.7,501.9,270.1L501.9,270.1z"/>
	<path d="M540.4,308.5c-0.1-6.6-0.1-6.6,6.4-6.4l-0.1-0.1C546.8,308.5,546.8,308.5,540.4,308.5L540.4,308.5z"/>
	<path d="M457.1,257.3c-0.1-6.5-0.1-6.5,6.4-6.4c0,0-0.1-0.1-0.1-0.1C463.6,257.3,463.6,257.3,457.1,257.3L457.1,257.3z"/>
	<path d="M431.5,385.2c-6.5,0.1-6.5,0.1-6.4-6.4c0,0-0.1,0.1-0.1,0.1C431.6,378.7,431.6,378.7,431.5,385.2L431.5,385.2z"/>
	<path d="M399.5,308.5c-0.1-6.5-0.1-6.5,6.4-6.4c0,0-0.1-0.1-0.1-0.1C406,308.5,406,308.5,399.5,308.5L399.5,308.5z"/>
	<path d="M546.8,302.1c0-1.5,0.1-3-0.1-4.4c-0.2-1.7,0.5-2.1,2.1-2.1c4.3,0,4.3-0.1,4.3,4.3c0,0.7,0,1.5,0,2.2c0,0,0.1-0.1,0.1-0.1
		C551,302,548.9,302,546.8,302.1L546.8,302.1z"/>
	<path d="M508.4,270.1c0-1.5,0.1-3-0.1-4.4c-0.2-1.7,0.5-2.1,2.1-2.1c4.3,0,4.3-0.1,4.3,4.3c0,0.7,0,1.5,0,2.2c0,0,0.1-0.1,0.1-0.1
		C512.6,270,510.4,270,508.4,270.1L508.4,270.1z"/>
	<path d="M425.1,295.7c-0.1-6.6-0.1-6.6,6.4-6.4l-0.1-0.1C431.6,295.7,431.6,295.7,425.1,295.7L425.1,295.7z"/>
	<path d="M431.5,289.3c-0.1-6.5-0.1-6.5,6.4-6.4c0,0-0.1-0.1-0.1-0.1C438,289.3,438,289.3,431.5,289.3L431.5,289.3z"/>
	<path d="M546.7,385.2c0.1,6.4,0.1,6.4-6.2,6.4c-0.1,0-0.2,0-0.3,0c-6.3,0-6.3,0-6.2-6.4l-0.1,0.1
		C538.2,385.3,542.5,385.3,546.7,385.2L546.7,385.2z"/>
	<path d="M527.5,385.2c0.1,6.4,0.1,6.4-6.2,6.4c-2.2,0-4.4,0-6.6,0c0,0,0.1,0.1,0.1,0.1c0-1.4,0.1-2.8-0.1-4.1
		c-0.3-2,0.6-2.5,2.5-2.4C520.6,385.4,524.1,385.3,527.5,385.2C527.6,385.3,527.5,385.2,527.5,385.2z"/>
	<path d="M559.5,378.8c0.1,6.4,0.1,6.4-6.2,6.4c-2.2,0-4.4,0-6.6,0c0,0,0.1,0.1,0.1,0.1c0-1.4,0.1-2.8-0.1-4.1
		c-0.3-2,0.6-2.5,2.5-2.4C552.6,379,556.1,378.9,559.5,378.8L559.5,378.8z"/>
	<path d="M572.3,372.4c0.1,6.4,0.1,6.5-6.2,6.4c-2.2,0-4.4,0-6.6,0c0,0,0.1,0.1,0.1,0.1c0-1.4,0.1-2.8-0.1-4.1
		c-0.3-2,0.6-2.5,2.5-2.4C565.4,372.6,568.9,372.5,572.3,372.4L572.3,372.4z"/>
	<path d="M534,385.2c-2.2,0-4.3,0-6.5,0c0,0,0.1,0.1,0.1,0.1c0-1.6,0.1-3.2-0.1-4.7c-0.1-1.4,0.5-1.7,1.8-1.7
		c4.6-0.2,4.6-0.2,4.6,4.3C533.9,383.8,533.9,384.5,534,385.2L534,385.2z"/>
	<path d="M489.2,391.6c-3.5,0-7-0.1-10.4,0.1c-1.9,0.1-2.7-0.3-2.5-2.4c0.2-1.3,0.1-2.7,0.1-4.1l-0.1,0.1c2.2,0,4.4,0,6.6,0
		C489.2,385.2,489.2,385.2,489.2,391.6L489.2,391.6z"/>
	<path d="M476.4,385.2c-2.2,0-4.3,0-6.5,0l0.1,0.1c0-1.6,0.1-3.2-0.1-4.7c-0.1-1.4,0.5-1.7,1.8-1.7c4.6-0.2,4.6-0.2,4.6,4.3
		C476.3,383.8,476.3,384.5,476.4,385.2C476.3,385.3,476.4,385.2,476.4,385.2z"/>
	<path d="M469.9,385.2c0.1,6.5,0.1,6.5-6.4,6.4c0,0,0.1,0.1,0.1,0.1C463.4,385.1,463.4,385.1,469.9,385.2L469.9,385.2z"/>
	<path class="st5" d="M469.9,385.3c-6.5-0.1-6.5-0.1-6.4,6.4c-6.4,0-12.9,0-19.3,0c0.1-6.4,0.1-6.4-6.2-6.4c-2.2,0-4.4,0-6.6,0
		c0.1-6.5,0.1-6.5-6.4-6.4c0.1-6.4,0.1-6.5-6.2-6.4c-6.5,0-12.9,0-19.4,0c0-3.5-0.1-7,0.1-10.4c0.1-1.9-0.3-2.7-2.4-2.5
		c-1.3,0.2-2.7,0.1-4.1,0.1c0.1-6.5,0.1-6.5-6.4-6.4c0.1-6.5,0.1-6.5-6.4-6.4c0.1-6.5,0.1-6.5-6.4-6.4c0-4.3,0-8.6,0-12.9
		c3.5,0,7-0.1,10.4,0.1c1.9,0.1,2.7-0.3,2.5-2.4c-0.2-1.3-0.1-2.7-0.1-4.1c6.5,0.1,6.5,0.1,6.4-6.4c6.5,0.1,6.5,0.1,6.4-6.4
		c6.5,0.1,6.5,0.1,6.4-6.4c5.4,0,10.8-0.1,16.2,0.1c2.4,0.1,3.5-0.4,3.1-3c-0.2-1.1-0.1-2.3-0.1-3.5c6.5,0.1,6.5,0.1,6.4-6.4
		c6.5,0.1,6.5,0.1,6.4-6.4c6.4,0.1,6.5,0.1,6.4-6.2c0-4.3,0-8.7,0-13c3.5,0,7-0.1,10.4,0.1c1.9,0.1,2.7-0.3,2.5-2.4
		c-0.2-1.3-0.1-2.7-0.1-4.1c6.5,0.1,6.5,0.1,6.4-6.4c8.6,0,17.1,0,25.7,0c-0.1,6.5-0.1,6.5,6.4,6.4c0,3.5,0.1,7-0.1,10.4
		c-0.1,1.9,0.3,2.7,2.4,2.5c1.3-0.2,2.7-0.1,4.1-0.1c0,0.7,0,1.5,0,2.2c0,4.5,0,4.5,4.6,4.3c1.3-0.1,1.9-0.3,1.8-1.7
		c-0.1-1.6-0.1-3.2-0.1-4.7c2.2,0,4.3,0,6.5,0c-0.1,6.5-0.1,6.5,6.4,6.4c0,5.4,0.1,10.8-0.1,16.2c-0.1,2.4,0.4,3.5,3,3.1
		c1.1-0.2,2.3-0.1,3.5-0.1c0,3.5,0.1,7-0.1,10.4c-0.1,1.9,0.3,2.7,2.4,2.5c1.3-0.2,2.7-0.1,4.1-0.1c0,0.7,0,1.5,0,2.2
		c0,4.5,0,4.5,4.6,4.3c1.3-0.1,1.9-0.3,1.8-1.7c-0.1-1.6-0.1-3.2-0.1-4.7c6.5,0.1,6.5,0.1,6.4-6.4c2.2,0,4.3,0,6.5,0
		c0,5.4,0.1,10.8-0.1,16.2c-0.1,2.4,0.4,3.5,3,3.1c1.1-0.2,2.3-0.1,3.5-0.1c0,0.7,0,1.5,0,2.2c0,4.5,0,4.5,4.6,4.3
		c1.3-0.1,1.9-0.3,1.8-1.7c-0.1-1.6-0.1-3.2-0.1-4.7c2.2,0,4.3,0,6.5,0c0,6.4-0.1,12.8-0.1,19.2c0,0,0.1,0,0.1,0
		c-6.4,0.1-6.4,0.1-6.5,6.5l0.1-0.1c-1.6,0-3.2,0.1-4.7,0c-1.1,0-1.6,0.1-1.8,1.5c-0.4,4.9-0.4,4.9,4.3,4.9c0.7,0,1.5,0,2.2,0
		l-0.1-0.1c0.1,6.4,0.1,6.4,6.5,6.5c0,0-0.1,0-0.1,0c0,4.3,0.1,8.6,0.1,12.8c-3.5,0-7,0.1-10.4-0.1c-1.9-0.1-2.7,0.3-2.5,2.4
		c0.2,1.3,0.1,2.7,0.1,4.1c-3.5,0-7,0.1-10.4-0.1c-1.9-0.1-2.7,0.3-2.5,2.4c0.2,1.3,0.1,2.7,0.1,4.1c-4.3,0-8.6,0-12.9,0
		c0-0.7,0-1.5,0-2.2c0-4.5,0-4.5-4.6-4.3c-1.3,0.1-1.9,0.3-1.8,1.7c0.1,1.6,0.1,3.2,0.1,4.7c-3.5,0-7,0.1-10.4-0.1
		c-1.9-0.1-2.7,0.3-2.5,2.4c0.2,1.3,0.1,2.7,0.1,4.1c-8.6,0-17.1,0-25.7,0c0.1-6.4,0.1-6.4-6.2-6.4c-2.2,0-4.4,0-6.6,0
		c0-0.7,0-1.5,0-2.2c0-4.5,0-4.5-4.6-4.3c-1.3,0.1-1.9,0.3-1.8,1.7C470,382.1,469.9,383.7,469.9,385.3z M405.9,353.3
		c0-1.6,0-3.2,0-4.7c0-0.7,0.1-1.4-0.9-1.7c-3.7-1.1-5.4,0.2-5.5,3.8c-0.1,2.1,0.7,2.8,2.7,2.6C403.4,353.1,404.6,353.2,405.9,353.3
		c0,6.4,0,6.4,6.5,6.4c0,0.9,0.1,1.7,0,2.6c-0.6,3.3,0.8,4.1,3.9,3.9c6.5-0.3,13-0.1,19.5-0.1c1.3,0,2.1,0,2.2,1.8
		c0.2,4.6,0.3,4.6,5,4.6c1.4,0,2.8,0.2,4.2,0c2.9-0.4,4.1,0.7,3.6,3.6c-0.4,2.2,0.4,3.1,2.7,2.9c2.2-0.2,4.5-0.3,6.7,0
		c3,0.4,3.8-0.8,3.4-3.5c-0.4-2.4,0.5-3.1,2.9-3c4.1,0.2,8.3-0.1,12.5,0.1c3,0.2,4.4-0.5,3.8-3.7c-0.1-0.8-0.6-2.3,0.6-2.5
		c1.6-0.3,3.5-0.5,5.1,0c1.5,0.4,0.8,2.2,0.7,3.4c-0.1,2.2,0.4,3.3,2.8,2.8c3.2-0.6,4.2,0.8,3.7,3.8c-0.4,2.1,0.5,2.8,2.6,2.7
		c4.2-0.2,8.3-0.3,12.5,0c3.2,0.2,4.8-0.6,4.2-4c-0.3-1.6,0.2-2.5,2.1-2.5c4.2,0,4.2-0.1,4.2-4.5c0-0.6,0-1.3,0-1.9
		c1.6,0,3.2,0,4.7,0c0.7,0,1.4,0.1,1.7-0.9c1.1-3.7-0.2-5.4-3.9-5.5c-2.1-0.1-2.8,0.7-2.6,2.7c0.1,1.3,0,2.5,0,3.8
		c-7.3,0-14.6-0.2-21.9,0.1c-3.1,0.1-4.2-0.8-3.7-3.8c0.2-1.3,0.4-2.7-1.9-2.7c-4.5-0.1-4.5-0.3-4.5-4.8c0-0.5,0-1.1,0-1.6
		c1.6,0,3.2,0,4.7,0c0.7,0,1.4,0.1,1.7-0.9c1.1-3.7-0.2-5.4-3.9-5.5c-2.1-0.1-2.8,0.7-2.6,2.7c0.1,1.3,0,2.5,0,3.8
		c-0.5,0-1.1,0-1.6,0c-4.5,0-4.6,0-4.8,4.6c-0.1,1.7-0.8,1.9-2.2,1.9c-4.5-0.1-9,0.1-13.4-0.1c-2.7-0.1-4.3,0.4-3.7,3.5
		c0.5,2.4-0.6,3.1-2.9,3c-4.3-0.2-8.5-0.2-12.8,0c-2.7,0.1-4.1-0.5-3.5-3.4c0.5-2.6-0.7-3.5-3.1-3c-2.7,0.5-3.6-0.6-3.3-3.3
		c0.1-1,0.7-2.4-0.7-3.1c-3.1-1.4-5.7,0.3-5.6,3.7c0.1,2.1-0.5,2.7-2.7,2.7c-5.5-0.1-11.1,0-16.6,0
		C412.3,353.2,412.3,353.2,405.9,353.3z M495.5,282.8c0,1.6,0,3.2,0,4.7c0,0.7-0.1,1.4,0.9,1.7c3.7,1.1,5.4-0.2,5.5-3.8
		c0.1-2.1-0.7-2.8-2.7-2.6C498,282.9,496.8,282.8,495.5,282.8c0-1.5,0-3.1,0-4.7c0-0.7,0.1-1.4-0.9-1.7c-3.7-1.1-5.4,0.2-5.5,3.8
		c-0.1,2.1,0.7,2.8,2.7,2.6C493,282.7,494.3,282.8,495.5,282.8z M457.1,289.2c3.2,0,6.4-0.2,9.5,0.1c2.6,0.2,3.4-0.5,3.4-3.2
		c0-2.6-0.7-3.7-3.3-3.3c-1,0.2-2.1,0-3.2,0C457,282.8,457,282.8,457.1,289.2c-1.5,0-3.1,0-4.7,0c-0.7,0-1.4-0.1-1.7,0.9
		c-1.1,3.7,0.2,5.4,3.9,5.5c2.1,0.1,2.8-0.7,2.6-2.7C457,291.7,457.1,290.5,457.1,289.2z"/>
	<path d="M565.9,346.9c0.1-6.4,0.1-6.4,6.5-6.5C572.2,346.7,572.2,346.7,565.9,346.9z"/>
	<path d="M566,353.3c-0.7,0-1.5,0-2.2,0c-4.7,0-4.7-0.1-4.3-4.9c0.1-1.4,0.7-1.5,1.8-1.5c1.6,0,3.2,0,4.7,0
		C566,349,566,351.1,566,353.3z"/>
	<path d="M572.4,359.7c-6.4-0.1-6.4-0.1-6.5-6.5C572.2,353.3,572.2,353.3,572.4,359.7z"/>
	<path class="st6" d="M412.3,359.7c5.5,0,11.1-0.1,16.6,0c2.1,0.1,2.7-0.6,2.7-2.7c-0.1-3.4,2.5-5.1,5.6-3.7
		c1.5,0.6,0.9,2.1,0.7,3.1c-0.3,2.7,0.7,3.7,3.3,3.3c2.4-0.4,3.7,0.4,3.1,3c-0.6,2.9,0.8,3.6,3.5,3.4c4.3-0.2,8.5-0.2,12.8,0
		c2.4,0.1,3.4-0.6,2.9-3c-0.6-3.1,1-3.7,3.7-3.5c4.5,0.2,9,0,13.4,0.1c1.4,0,2.1-0.2,2.2-1.9c0.2-4.6,0.3-4.6,4.8-4.6
		c0.5,0,1.1,0,1.6,0l0,0c0,0.5,0,1.1,0,1.6c0,4.5,0,4.7,4.5,4.8c2.3,0.1,2.1,1.4,1.9,2.7c-0.5,3,0.6,3.9,3.7,3.8
		c7.3-0.3,14.6-0.1,21.9-0.1l0,0c0,0.6,0,1.3,0,1.9c0,4.3,0,4.4-4.2,4.5c-2,0-2.5,0.8-2.1,2.5c0.6,3.5-1,4.3-4.2,4
		c-4.1-0.3-8.3-0.2-12.5,0c-2.1,0.1-3-0.6-2.6-2.7c0.5-3-0.5-4.4-3.7-3.8c-2.3,0.4-2.9-0.7-2.8-2.8c0.1-1.1,0.8-2.9-0.7-3.4
		c-1.6-0.5-3.4-0.3-5.1,0c-1.1,0.2-0.7,1.7-0.6,2.5c0.5,3.2-0.9,3.9-3.8,3.7c-4.1-0.3-8.3,0.1-12.5-0.1c-2.4-0.1-3.4,0.6-2.9,3
		c0.5,2.7-0.4,3.9-3.4,3.5c-2.2-0.3-4.5-0.2-6.7,0c-2.3,0.2-3.1-0.7-2.7-2.9c0.5-2.9-0.6-4-3.6-3.6c-1.4,0.2-2.8,0-4.2,0
		c-4.7,0-4.8,0-5-4.6c-0.1-1.8-1-1.8-2.2-1.8c-6.5,0-13-0.2-19.5,0.1c-3.2,0.1-4.5-0.7-3.9-3.9C412.4,361.3,412.3,360.5,412.3,359.7
		L412.3,359.7z"/>
	<path class="st6" d="M457.1,289.2c-0.1-6.4-0.1-6.4,6.4-6.4c1.1,0,2.1,0.1,3.2,0c2.7-0.4,3.3,0.6,3.3,3.3c0,2.7-0.8,3.4-3.4,3.2
		C463.4,289,460.2,289.2,457.1,289.2L457.1,289.2z"/>
	<path class="st6" d="M495.5,282.8c-1.3,0-2.5-0.1-3.8,0c-2,0.2-2.8-0.4-2.7-2.6c0.1-3.7,1.8-4.9,5.5-3.8c1,0.3,0.9,1,0.9,1.7
		C495.5,279.7,495.5,281.3,495.5,282.8L495.5,282.8z"/>
	<path class="st6" d="M489.1,353.3c0-1.3,0.1-2.5,0-3.8c-0.2-2,0.4-2.8,2.6-2.7c3.7,0.1,4.9,1.8,3.9,5.5c-0.3,1-1,0.9-1.7,0.9
		C492.3,353.2,490.7,353.2,489.1,353.3C489.1,353.2,489.1,353.3,489.1,353.3z"/>
	<path class="st6" d="M412.3,359.6c-6.5,0.1-6.5,0.1-6.4-6.4l0,0C412.3,353.2,412.3,353.2,412.3,359.6
		C412.3,359.7,412.3,359.6,412.3,359.6z"/>
	<path class="st6" d="M521.1,366.1c0-1.3,0.1-2.5,0-3.8c-0.2-2,0.4-2.8,2.6-2.7c3.7,0.1,4.9,1.8,3.9,5.5c-0.3,1-1,0.9-1.7,0.9
		C524.3,366,522.7,366,521.1,366.1C521.1,366,521.1,366.1,521.1,366.1z"/>
	<path class="st6" d="M457.1,289.2c0,1.3-0.1,2.5,0,3.8c0.2,2-0.4,2.8-2.6,2.7c-3.7-0.1-4.9-1.8-3.9-5.5c0.3-1,1-0.9,1.7-0.9
		C454,289.2,455.5,289.2,457.1,289.2C457.1,289.2,457.1,289.2,457.1,289.2z"/>
	<path class="st6" d="M495.5,282.8c1.3,0,2.5,0.1,3.8,0c2-0.2,2.8,0.4,2.7,2.6c-0.1,3.7-1.8,4.9-5.5,3.8c-1-0.3-0.9-1-0.9-1.7
		C495.5,286,495.5,284.4,495.5,282.8C495.5,282.8,495.5,282.8,495.5,282.8z"/>
	<path class="st6" d="M405.9,353.2c-1.3,0-2.5-0.1-3.8,0c-2,0.2-2.8-0.4-2.7-2.6c0.1-3.7,1.8-4.9,5.5-3.8c1,0.3,0.9,1,0.9,1.7
		C405.9,350.1,405.9,351.7,405.9,353.2C405.9,353.3,405.9,353.2,405.9,353.2z"/>
</g>
</svg>
