<?xml version="1.0" encoding="utf-8"?>
<!-- Generator: Adobe Illustrator 26.1.0, SVG Export Plug-In . SVG Version: 6.00 Build 0)  -->
<svg version="1.1" id="Layer_1" xmlns="http://www.w3.org/2000/svg" xmlns:xlink="http://www.w3.org/1999/xlink" x="0px" y="0px"
	 viewBox="0 0 1000 400" style="enable-background:new 0 0 1000 400;" xml:space="preserve">
<style type="text/css">
	.st0{fill:#FF0000;stroke:#000000;stroke-width:4;}
	.st1{fill:#00FFFF;stroke:#000000;stroke-width:4;}
	.st2{fill:#FCEE21;stroke:#000000;stroke-width:4;}
	.st3{fill:#39B54A;stroke:#000000;stroke-width:4;}
</style>
<path class="st0" d="M230.9,116.5l-24.4-11.3l-4.7,7.9L246,137l-14.4,39.4l-47.7,6.5L146.9,161l11.1-26.2l30.9,12.3l3.4-7.3
	l-45.5-19.2l33.7-50l35.8-4.9l30.5,24.6L230.9,116.5z"/>
<path class="st1" d="M361.5,71.4v45l-37.5-6.1l10.3,70.6h-53.7l8.1-70.6l-38.1-2V69.4L361.5,71.4z"/>
<path class="st2" d="M450.9,69l-6.1,31l-36.2,5.6l-0.5,7.6l32,2.4l-1.5,23.9l-28.5,2.5l2.5,8.1l34.7,0.3l12.8,29.8h-82.7l-8.1-71.7
	l8.1-39.6H450.9z"/>
<path class="st1" d="M559.9,87.9l2.1,44.4l-26.7,25.8l-33.2,2.1v21.1h-35l5.5-111.6h60.8L559.9,87.9z M507.3,122.1l9.9,1.4
	l12.6-14.9l-21.4-4.6L507.3,122.1z"/>
<path class="st3" d="M603.4,68.8l1.8,45.8l22-3.3l1.4-40.3l30.9,1.3l6,107.7l-34.8-1.2l-0.3-33.8l-21,4.1l0.8,30.9h-32.5l-12-104
	L603.4,68.8z"/>
<path class="st0" d="M750.3,69l-6.2,31l-36.2,5.6l-0.4,7.6l31.9,2.4l-1.5,23.9l-28.5,2.5l2.6,8.1l34.7,0.3l12.8,29.8h-82.7
	l-8.1-71.7l8.1-39.6H750.3z"/>
<path class="st3" d="M773,72.9l22.5-2.4l24.7,32.4l-1.8-34.8l35.2,1.8l3.6,105.5l-28.8,1.2l-25.6-31.4l-2.7,36.3l-35.5,2.2L773,72.9
	z"/>
<path class="st3" d="M191,253.2l-25.7-16.5l-6.5,8.2l45.9,33.7l-22.3,42h-54.6l-38.1-30.3l16.5-27.7l32.8,18.5l4.9-7.6l-48.1-28.6
	l45.6-51h41l30.4,32.3L191,253.2z"/>
<path class="st2" d="M350.4,311.9l-51.3,8.2l-4.1-30.1l-41.3-1l-9.3,32.1l-49.5-8.8l67.8-114.1l34-3.4L350.4,311.9z M264.4,256.6
	l26,0.7l-6-17.5l-13.1-0.5L264.4,256.6z"/>
<path class="st1" d="M365.7,200l25.5-3l28.4,36.4l-2.6-39.4l39.9,1.5l5.6,119.5l-32.7,1.8l-29.5-35.2l-2.5,41.2l-40.2,3L365.7,200z"
	/>
<path class="st0" d="M568.5,197.3l-1.9,45L536,228.1l-26.7,12.4l-1.2,28.9l23.5,16l34.5-18l11.6,47.4l-67.8,6l-33.2-29.1l-9.9-36.5
	l15.3-39.3l39.4-21.6L568.5,197.3z"/>
<path class="st2" d="M621.8,193.9l2,51.9l25-3.7l1.5-45.7l35,1.5l6.8,122.1l-39.4-1.4l-0.3-38.2l-23.8,4.6l0.8,35h-36.9l-13.6-117.8
	L621.8,193.9z"/>
<path class="st1" d="M786.8,194.1l-7,35.2l-41,6.3l-0.5,8.7l36.2,2.7l-1.7,27l-32.3,2.9l2.9,9.2l39.3,0.3l14.4,33.8h-93.7l-9.2-81.3
	l9.2-44.9H786.8z"/>
<path class="st0" d="M801.9,324.5v-36.4l45.1-46.9l-45.1,2.7l8-50.4l105.6,7.5l-2,34.5l-41.5,45.8l43.5-6.4l-1.5,54L801.9,324.5z"/>
</svg>
